<svg width="19" height="12" viewBox="0 0 19 12" fill="none" xmlns="http://www.w3.org/2000/svg">
<path d="M11.7227 6.13281C11.7227 5.75781 11.6836 5.46875 11.6289 5.17969H6.22266V7.14844H9.47266C9.33984 7.98437 8.48828 9.61719 6.22266 9.61719C4.26953 9.61719 2.67578 8 2.67578 6C2.67578 4 4.26953 2.38281 6.22266 2.38281C7.33984 2.38281 8.08203 2.85937 8.50391 3.26562L10.0586 1.77344C9.05859 0.835937 7.76953 0.273437 6.22266 0.273437C3.05859 0.273437 0.496094 2.83594 0.496094 6C0.496094 9.16406 3.05859 11.7266 6.22266 11.7266C9.52734 11.7266 11.7227 9.40625 11.7227 6.13281ZM18.4961 5.17969H16.8633V3.54687H15.2227V5.17969H13.5898V6.82031H15.2227V8.45312H16.8633V6.82031H18.4961V5.17969Z" fill="#363E58"/>
</svg>
