<svg width="1864" height="883" viewBox="0 0 1864 883" version="1.1" xmlns="http://www.w3.org/2000/svg" xmlns:xlink="http://www.w3.org/1999/xlink">
<title>intuitive-back</title>
<desc>Created using Figma</desc>
<g id="Canvas" transform="translate(-6563 -2556)">
<g id="intuitive-back">
<g id="Group 2">
<g id="Vector">
<use xlink:href="#path0_stroke" transform="translate(6666.1 2845.09)" fill="#DCDCE6"/>
</g>
<g id="Vector">
<use xlink:href="#path1_stroke" transform="translate(6817.48 2675.17)" fill="#DCDCE6"/>
</g>
<g id="Vector">
<use xlink:href="#path2_fill" transform="translate(7346.86 2764.45)" fill="#FFFFFF"/>
<use xlink:href="#path3_stroke" transform="translate(7346.86 2764.45)" fill="#DCDCE6"/>
</g>
<g id="Vector">
<use xlink:href="#path4_fill" transform="translate(7346.86 2747.05)" fill="#FFFFFF"/>
<use xlink:href="#path5_stroke" transform="translate(7346.86 2747.05)" fill="#DCDCE6"/>
</g>
<g id="Vector">
<use xlink:href="#path6_fill" transform="translate(7209.62 2961.94)" fill="#FFFFFF"/>
<use xlink:href="#path7_stroke" transform="translate(7209.62 2961.94)" fill="#DCDCE6"/>
</g>
<g id="Vector">
<use xlink:href="#path8_fill" transform="translate(7209.62 2944.65)" fill="#FFFFFF"/>
<use xlink:href="#path9_stroke" transform="translate(7209.62 2944.65)" fill="#DCDCE6"/>
</g>
<g id="Vector">
<use xlink:href="#path10_fill" transform="translate(7464.75 2907.56)" fill="#FFFFFF"/>
<use xlink:href="#path11_stroke" transform="translate(7464.75 2907.56)" fill="#DCDCE6"/>
</g>
<g id="Vector">
<use xlink:href="#path12_fill" transform="translate(7464.75 2890.27)" fill="#FFFFFF"/>
<use xlink:href="#path13_stroke" transform="translate(7464.75 2890.27)" fill="#DCDCE6"/>
</g>
<g id="Vector">
<use xlink:href="#path14_fill" transform="translate(7283.98 3081.53)" fill="#FFFFFF"/>
<use xlink:href="#path15_stroke" transform="translate(7283.98 3081.53)" fill="#DCDCE6"/>
</g>
<g id="Vector">
<use xlink:href="#path16_fill" transform="translate(7283.98 3064.24)" fill="#FFFFFF"/>
<use xlink:href="#path17_stroke" transform="translate(7283.98 3064.24)" fill="#DCDCE6"/>
</g>
<g id="Vector">
<use xlink:href="#path18_fill" transform="translate(7184.47 3221.36)" fill="#FFFFFF"/>
<use xlink:href="#path19_stroke" transform="translate(7184.47 3221.36)" fill="#DCDCE6"/>
</g>
<g id="Vector">
<use xlink:href="#path20_fill" transform="translate(7184.47 3203.96)" fill="#FFFFFF"/>
<use xlink:href="#path21_stroke" transform="translate(7184.47 3203.96)" fill="#DCDCE6"/>
</g>
<g id="Vector">
<use xlink:href="#path22_fill" transform="translate(6907.26 3385.7)" fill="#FFFFFF"/>
<use xlink:href="#path23_stroke" transform="translate(6907.26 3385.7)" fill="#DCDCE6"/>
</g>
<g id="Vector">
<use xlink:href="#path24_fill" transform="translate(6907.26 3368.41)" fill="#FFFFFF"/>
<use xlink:href="#path25_stroke" transform="translate(6907.26 3368.41)" fill="#DCDCE6"/>
</g>
<g id="Vector">
<use xlink:href="#path26_fill" transform="translate(6564 3070.81)" fill="#FFFFFF"/>
<use xlink:href="#path27_stroke" transform="translate(6564 3070.81)" fill="#DCDCE6"/>
</g>
<g id="Vector">
<use xlink:href="#path28_fill" transform="translate(6564 3053.41)" fill="#FFFFFF"/>
<use xlink:href="#path29_stroke" transform="translate(6564 3053.41)" fill="#DCDCE6"/>
</g>
<g id="Vector">
<use xlink:href="#path30_fill" transform="translate(7012.79 2750.88)" fill="#FFFFFF"/>
<use xlink:href="#path31_stroke" transform="translate(7012.79 2750.88)" fill="#DCDCE6"/>
</g>
<g id="Vector">
<use xlink:href="#path32_fill" transform="translate(7012.79 2733.59)" fill="#FFFFFF"/>
<use xlink:href="#path33_stroke" transform="translate(7012.79 2733.59)" fill="#DCDCE6"/>
</g>
<g id="Vector">
<use xlink:href="#path34_fill" transform="translate(7012.79 2855.26)" fill="#FFFFFF"/>
<use xlink:href="#path35_stroke" transform="translate(7012.79 2855.26)" fill="#DCDCE6"/>
</g>
<g id="Vector">
<use xlink:href="#path36_fill" transform="translate(7012.79 2837.97)" fill="#FFFFFF"/>
<use xlink:href="#path37_stroke" transform="translate(7012.79 2837.97)" fill="#DCDCE6"/>
</g>
<g id="Vector">
<use xlink:href="#path38_fill" transform="translate(6771.77 3027.37)" fill="#FFFFFF"/>
<use xlink:href="#path39_stroke" transform="translate(6771.77 3027.37)" fill="#DCDCE6"/>
</g>
<g id="Vector">
<use xlink:href="#path40_fill" transform="translate(6771.77 3009.97)" fill="#FFFFFF"/>
<use xlink:href="#path41_stroke" transform="translate(6771.77 3009.97)" fill="#DCDCE6"/>
</g>
<g id="Vector">
<use xlink:href="#path42_fill" transform="translate(6757.23 3268.08)" fill="#FFFFFF"/>
<use xlink:href="#path43_stroke" transform="translate(6757.23 3268.08)" fill="#DCDCE6"/>
</g>
<g id="Vector">
<use xlink:href="#path44_fill" transform="translate(6757.23 3250.68)" fill="#FFFFFF"/>
<use xlink:href="#path45_stroke" transform="translate(6757.23 3250.68)" fill="#DCDCE6"/>
</g>
<g id="Vector">
<use xlink:href="#path46_fill" transform="translate(6666.14 3215.56)" fill="#FFFFFF"/>
<use xlink:href="#path47_stroke" transform="translate(6666.14 3215.56)" fill="#DCDCE6"/>
</g>
<g id="Vector">
<use xlink:href="#path48_fill" transform="translate(6666.14 3198.17)" fill="#FFFFFF"/>
<use xlink:href="#path49_stroke" transform="translate(6666.14 3198.17)" fill="#DCDCE6"/>
</g>
<g id="Vector">
<use xlink:href="#path50_fill" transform="translate(7161.29 2635.67)" fill="#FFFFFF"/>
<use xlink:href="#path51_stroke" transform="translate(7161.29 2635.67)" fill="#DCDCE6"/>
</g>
<g id="Vector">
<use xlink:href="#path52_fill" transform="translate(7161.29 2618.27)" fill="#FFFFFF"/>
<use xlink:href="#path53_stroke" transform="translate(7161.29 2618.27)" fill="#DCDCE6"/>
</g>
<g id="Vector">
<use xlink:href="#path54_fill" transform="translate(7464.75 2574.4)" fill="#FFFFFF"/>
<use xlink:href="#path55_stroke" transform="translate(7464.75 2574.4)" fill="#DCDCE6"/>
</g>
<g id="Vector">
<use xlink:href="#path56_fill" transform="translate(7464.75 2557)" fill="#FFFFFF"/>
<use xlink:href="#path57_stroke" transform="translate(7464.75 2557)" fill="#DCDCE6"/>
</g>
<g id="Vector">
<use xlink:href="#path58_fill" transform="translate(7090.32 3221.36)" fill="#FFFFFF"/>
<use xlink:href="#path59_stroke" transform="translate(7090.32 3221.36)" fill="#DCDCE6"/>
</g>
<g id="Vector">
<use xlink:href="#path60_fill" transform="translate(7090.32 3203.96)" fill="#FFFFFF"/>
<use xlink:href="#path61_stroke" transform="translate(7090.32 3203.96)" fill="#DCDCE6"/>
</g>
<g id="Vector">
<use xlink:href="#path62_fill" transform="translate(6741.59 2803.07)" fill="#FFFFFF"/>
<use xlink:href="#path63_stroke" transform="translate(6741.59 2803.07)" fill="#DCDCE6"/>
</g>
<g id="Vector">
<use xlink:href="#path64_fill" transform="translate(6741.59 2785.78)" fill="#FFFFFF"/>
<use xlink:href="#path65_stroke" transform="translate(6741.59 2785.78)" fill="#DCDCE6"/>
</g>
<g id="Vector">
<use xlink:href="#path66_stroke" transform="translate(6980.54 2794.54)" fill="#DCDCE6"/>
</g>
<g id="Vector">
<use xlink:href="#path67_stroke" transform="translate(7057.84 2794.54)" fill="#DCDCE6"/>
</g>
<g id="Vector">
<use xlink:href="#path68_stroke" transform="translate(6937.44 2896.95)" fill="#DCDCE6"/>
</g>
<g id="Vector">
<use xlink:href="#path69_fill" transform="translate(6892.28 2890.17)" fill="#FFFFFF"/>
<use xlink:href="#path70_stroke" transform="translate(6892.28 2890.17)" fill="#DCDCE6"/>
</g>
<g id="Vector">
<use xlink:href="#path71_fill" transform="translate(6892.28 2872.77)" fill="#FFFFFF"/>
<use xlink:href="#path72_stroke" transform="translate(6892.28 2872.77)" fill="#DCDCE6"/>
</g>
<g id="Vector">
<use xlink:href="#path73_stroke" transform="translate(7191.47 2808.1)" fill="#DCDCE6"/>
</g>
<g id="Vector">
<use xlink:href="#path74_fill" transform="translate(7283.98 2907.56)" fill="#FFFFFF"/>
<use xlink:href="#path75_stroke" transform="translate(7283.98 2907.56)" fill="#DCDCE6"/>
</g>
<g id="Vector">
<use xlink:href="#path16_fill" transform="translate(7283.98 2890.27)" fill="#FFFFFF"/>
<use xlink:href="#path17_stroke" transform="translate(7283.98 2890.27)" fill="#DCDCE6"/>
</g>
<g id="Vector">
<use xlink:href="#path76_stroke" transform="translate(7329.91 2618.27)" fill="#DCDCE6"/>
</g>
<g id="Vector">
<use xlink:href="#path77_fill" transform="translate(6862.21 2982.95)" fill="#FFFFFF"/>
<use xlink:href="#path78_stroke" transform="translate(6862.21 2982.95)" fill="#DCDCE6"/>
</g>
<g id="Vector">
<use xlink:href="#path79_fill" transform="translate(6862.21 2965.55)" fill="#FFFFFF"/>
<use xlink:href="#path80_stroke" transform="translate(6862.21 2965.55)" fill="#DCDCE6"/>
</g>
<g id="Vector">
<use xlink:href="#path81_stroke" transform="translate(6912.4 3023.32)" fill="#DCDCE6"/>
</g>
<g id="Vector">
<use xlink:href="#path82_stroke" transform="translate(6606.43 3115.89)" fill="#DCDCE6"/>
</g>
<g id="Vector">
<use xlink:href="#path83_stroke" transform="translate(6726.39 3073.1)" fill="#DCDCE6"/>
</g>
<g id="Vector">
<use xlink:href="#path84_stroke" transform="translate(7244.73 3123.22)" fill="#DCDCE6"/>
</g>
<g id="Vector">
<use xlink:href="#path0_stroke" transform="translate(7567.1 2845.09)" fill="#DCDCE6"/>
</g>
<g id="Vector">
<use xlink:href="#path85_stroke" transform="translate(7718.48 2675.17)" fill="#DCDCE6"/>
</g>
<g id="Vector">
<use xlink:href="#path2_fill" transform="translate(8247.86 2764.45)" fill="#FFFFFF"/>
<use xlink:href="#path3_stroke" transform="translate(8247.86 2764.45)" fill="#DCDCE6"/>
</g>
<g id="Vector">
<use xlink:href="#path4_fill" transform="translate(8247.86 2747.05)" fill="#FFFFFF"/>
<use xlink:href="#path5_stroke" transform="translate(8247.86 2747.05)" fill="#DCDCE6"/>
</g>
<g id="Vector">
<use xlink:href="#path6_fill" transform="translate(8110.62 2961.94)" fill="#FFFFFF"/>
<use xlink:href="#path7_stroke" transform="translate(8110.62 2961.94)" fill="#DCDCE6"/>
</g>
<g id="Vector">
<use xlink:href="#path8_fill" transform="translate(8110.62 2944.65)" fill="#FFFFFF"/>
<use xlink:href="#path9_stroke" transform="translate(8110.62 2944.65)" fill="#DCDCE6"/>
</g>
<g id="Vector">
<use xlink:href="#path10_fill" transform="translate(8365.75 2907.56)" fill="#FFFFFF"/>
<use xlink:href="#path11_stroke" transform="translate(8365.75 2907.56)" fill="#DCDCE6"/>
</g>
<g id="Vector">
<use xlink:href="#path12_fill" transform="translate(8365.75 2890.27)" fill="#FFFFFF"/>
<use xlink:href="#path13_stroke" transform="translate(8365.75 2890.27)" fill="#DCDCE6"/>
</g>
<g id="Vector">
<use xlink:href="#path14_fill" transform="translate(8184.98 3081.53)" fill="#FFFFFF"/>
<use xlink:href="#path15_stroke" transform="translate(8184.98 3081.53)" fill="#DCDCE6"/>
</g>
<g id="Vector">
<use xlink:href="#path16_fill" transform="translate(8184.98 3064.24)" fill="#FFFFFF"/>
<use xlink:href="#path17_stroke" transform="translate(8184.98 3064.24)" fill="#DCDCE6"/>
</g>
<g id="Vector">
<use xlink:href="#path18_fill" transform="translate(8085.47 3221.36)" fill="#FFFFFF"/>
<use xlink:href="#path19_stroke" transform="translate(8085.47 3221.36)" fill="#DCDCE6"/>
</g>
<g id="Vector">
<use xlink:href="#path20_fill" transform="translate(8085.47 3203.96)" fill="#FFFFFF"/>
<use xlink:href="#path21_stroke" transform="translate(8085.47 3203.96)" fill="#DCDCE6"/>
</g>
<g id="Vector">
<use xlink:href="#path22_fill" transform="translate(7808.26 3385.7)" fill="#FFFFFF"/>
<use xlink:href="#path23_stroke" transform="translate(7808.26 3385.7)" fill="#DCDCE6"/>
</g>
<g id="Vector">
<use xlink:href="#path24_fill" transform="translate(7808.26 3368.41)" fill="#FFFFFF"/>
<use xlink:href="#path25_stroke" transform="translate(7808.26 3368.41)" fill="#DCDCE6"/>
</g>
<g id="Vector">
<use xlink:href="#path26_fill" transform="translate(7465 3070.81)" fill="#FFFFFF"/>
<use xlink:href="#path27_stroke" transform="translate(7465 3070.81)" fill="#DCDCE6"/>
</g>
<g id="Vector">
<use xlink:href="#path28_fill" transform="translate(7465 3053.41)" fill="#FFFFFF"/>
<use xlink:href="#path29_stroke" transform="translate(7465 3053.41)" fill="#DCDCE6"/>
</g>
<g id="Vector">
<use xlink:href="#path30_fill" transform="translate(7913.79 2750.88)" fill="#FFFFFF"/>
<use xlink:href="#path31_stroke" transform="translate(7913.79 2750.88)" fill="#DCDCE6"/>
</g>
<g id="Vector">
<use xlink:href="#path32_fill" transform="translate(7913.79 2733.59)" fill="#FFFFFF"/>
<use xlink:href="#path33_stroke" transform="translate(7913.79 2733.59)" fill="#DCDCE6"/>
</g>
<g id="Vector">
<use xlink:href="#path34_fill" transform="translate(7913.79 2855.26)" fill="#FFFFFF"/>
<use xlink:href="#path35_stroke" transform="translate(7913.79 2855.26)" fill="#DCDCE6"/>
</g>
<g id="Vector">
<use xlink:href="#path36_fill" transform="translate(7913.79 2837.97)" fill="#FFFFFF"/>
<use xlink:href="#path37_stroke" transform="translate(7913.79 2837.97)" fill="#DCDCE6"/>
</g>
<g id="Vector">
<use xlink:href="#path38_fill" transform="translate(7672.77 3027.37)" fill="#FFFFFF"/>
<use xlink:href="#path39_stroke" transform="translate(7672.77 3027.37)" fill="#DCDCE6"/>
</g>
<g id="Vector">
<use xlink:href="#path40_fill" transform="translate(7672.77 3009.97)" fill="#FFFFFF"/>
<use xlink:href="#path41_stroke" transform="translate(7672.77 3009.97)" fill="#DCDCE6"/>
</g>
<g id="Vector">
<use xlink:href="#path42_fill" transform="translate(7658.23 3268.08)" fill="#FFFFFF"/>
<use xlink:href="#path43_stroke" transform="translate(7658.23 3268.08)" fill="#DCDCE6"/>
</g>
<g id="Vector">
<use xlink:href="#path44_fill" transform="translate(7658.23 3250.68)" fill="#FFFFFF"/>
<use xlink:href="#path45_stroke" transform="translate(7658.23 3250.68)" fill="#DCDCE6"/>
</g>
<g id="Vector">
<use xlink:href="#path46_fill" transform="translate(7567.14 3215.56)" fill="#FFFFFF"/>
<use xlink:href="#path47_stroke" transform="translate(7567.14 3215.56)" fill="#DCDCE6"/>
</g>
<g id="Vector">
<use xlink:href="#path48_fill" transform="translate(7567.14 3198.17)" fill="#FFFFFF"/>
<use xlink:href="#path49_stroke" transform="translate(7567.14 3198.17)" fill="#DCDCE6"/>
</g>
<g id="Vector">
<use xlink:href="#path50_fill" transform="translate(8062.29 2635.67)" fill="#FFFFFF"/>
<use xlink:href="#path51_stroke" transform="translate(8062.29 2635.67)" fill="#DCDCE6"/>
</g>
<g id="Vector">
<use xlink:href="#path52_fill" transform="translate(8062.29 2618.27)" fill="#FFFFFF"/>
<use xlink:href="#path53_stroke" transform="translate(8062.29 2618.27)" fill="#DCDCE6"/>
</g>
<g id="Vector">
<use xlink:href="#path54_fill" transform="translate(8365.75 2574.4)" fill="#FFFFFF"/>
<use xlink:href="#path55_stroke" transform="translate(8365.75 2574.4)" fill="#DCDCE6"/>
</g>
<g id="Vector">
<use xlink:href="#path56_fill" transform="translate(8365.75 2557)" fill="#FFFFFF"/>
<use xlink:href="#path57_stroke" transform="translate(8365.75 2557)" fill="#DCDCE6"/>
</g>
<g id="Vector">
<use xlink:href="#path58_fill" transform="translate(7991.32 3221.36)" fill="#FFFFFF"/>
<use xlink:href="#path59_stroke" transform="translate(7991.32 3221.36)" fill="#DCDCE6"/>
</g>
<g id="Vector">
<use xlink:href="#path60_fill" transform="translate(7991.32 3203.96)" fill="#FFFFFF"/>
<use xlink:href="#path61_stroke" transform="translate(7991.32 3203.96)" fill="#DCDCE6"/>
</g>
<g id="Vector">
<use xlink:href="#path62_fill" transform="translate(7642.59 2803.07)" fill="#FFFFFF"/>
<use xlink:href="#path63_stroke" transform="translate(7642.59 2803.07)" fill="#DCDCE6"/>
</g>
<g id="Vector">
<use xlink:href="#path64_fill" transform="translate(7642.59 2785.78)" fill="#FFFFFF"/>
<use xlink:href="#path65_stroke" transform="translate(7642.59 2785.78)" fill="#DCDCE6"/>
</g>
<g id="Vector">
<use xlink:href="#path66_stroke" transform="translate(7881.54 2794.54)" fill="#DCDCE6"/>
</g>
<g id="Vector">
<use xlink:href="#path67_stroke" transform="translate(7958.84 2794.54)" fill="#DCDCE6"/>
</g>
<g id="Vector">
<use xlink:href="#path86_stroke" transform="translate(7838.44 2896.95)" fill="#DCDCE6"/>
</g>
<g id="Vector">
<use xlink:href="#path69_fill" transform="translate(7793.28 2890.17)" fill="#FFFFFF"/>
<use xlink:href="#path70_stroke" transform="translate(7793.28 2890.17)" fill="#DCDCE6"/>
</g>
<g id="Vector">
<use xlink:href="#path71_fill" transform="translate(7793.28 2872.77)" fill="#FFFFFF"/>
<use xlink:href="#path72_stroke" transform="translate(7793.28 2872.77)" fill="#DCDCE6"/>
</g>
<g id="Vector">
<use xlink:href="#path73_stroke" transform="translate(8092.47 2808.1)" fill="#DCDCE6"/>
</g>
<g id="Vector">
<use xlink:href="#path74_fill" transform="translate(8184.98 2907.56)" fill="#FFFFFF"/>
<use xlink:href="#path75_stroke" transform="translate(8184.98 2907.56)" fill="#DCDCE6"/>
</g>
<g id="Vector">
<use xlink:href="#path16_fill" transform="translate(8184.98 2890.27)" fill="#FFFFFF"/>
<use xlink:href="#path17_stroke" transform="translate(8184.98 2890.27)" fill="#DCDCE6"/>
</g>
<g id="Vector">
<use xlink:href="#path76_stroke" transform="translate(8230.91 2618.27)" fill="#DCDCE6"/>
</g>
<g id="Vector">
<use xlink:href="#path77_fill" transform="translate(7763.21 2982.95)" fill="#FFFFFF"/>
<use xlink:href="#path78_stroke" transform="translate(7763.21 2982.95)" fill="#DCDCE6"/>
</g>
<g id="Vector">
<use xlink:href="#path79_fill" transform="translate(7763.21 2965.55)" fill="#FFFFFF"/>
<use xlink:href="#path80_stroke" transform="translate(7763.21 2965.55)" fill="#DCDCE6"/>
</g>
<g id="Vector">
<use xlink:href="#path81_stroke" transform="translate(7813.4 3023.32)" fill="#DCDCE6"/>
</g>
<g id="Vector">
<use xlink:href="#path82_stroke" transform="translate(7507.43 3115.89)" fill="#DCDCE6"/>
</g>
<g id="Vector">
<use xlink:href="#path83_stroke" transform="translate(7627.39 3073.1)" fill="#DCDCE6"/>
</g>
<g id="Vector">
<use xlink:href="#path84_stroke" transform="translate(8145.73 3123.22)" fill="#DCDCE6"/>
</g>
</g>
</g>
</g>
<defs>
<path id="path0_stroke" d="M 88.2073 0.885083C 88.6961 0.628046 88.884 0.0234045 88.627 -0.465421C 88.37 -0.954246 87.7653 -1.14215 87.2765 -0.88511L 88.2073 0.885083ZM 6.38276 42.7808L 5.91736 41.8957L 5.91581 41.8965L 6.38276 42.7808ZM 5.07052 63.1318L 5.64576 62.3138L 5.64502 62.3133L 5.07052 63.1318ZM 47.3904 92.8923L 46.8151 93.7104L 46.8224 93.7154L 47.3904 92.8923ZM 57.779 168.278L 57.2241 169.11C 57.2397 169.121 57.2556 169.131 57.2718 169.14L 57.779 168.278ZM 105.059 197.26C 105.535 197.54 106.148 197.381 106.428 196.905C 106.708 196.429 106.55 195.816 106.074 195.536L 105.059 197.26ZM 87.2765 -0.88511L 5.91736 41.8957L 6.84817 43.6659L 88.2073 0.885083L 87.2765 -0.88511ZM 5.91581 41.8965C -2.61183 46.3997 -3.44874 58.374 4.49603 63.9503L 5.64502 62.3133C -1.06361 57.6046 -0.369567 47.4774 6.84972 43.6651L 5.91581 41.8965ZM 4.49529 63.9498L 46.8152 93.7103L 47.9656 92.0743L 5.64576 62.3138L 4.49529 63.9498ZM 46.8224 93.7154C 49.7106 95.7083 51.4207 99.1138 51.4207 102.63L 53.4207 102.63C 53.4207 98.4876 51.4127 94.4529 47.9583 92.0693L 46.8224 93.7154ZM 51.4207 102.63L 51.4207 158.322L 53.4207 158.322L 53.4207 102.63L 51.4207 102.63ZM 51.4207 158.322C 51.4207 162.714 53.6739 166.742 57.2241 169.11L 58.3339 167.447C 55.3229 165.438 53.4207 162.026 53.4207 158.322L 51.4207 158.322ZM 57.2718 169.14L 105.059 197.26L 106.074 195.536L 58.2861 167.417L 57.2718 169.14Z"/>
<path id="path1_stroke" d="M -0.505194 603.429C -0.981819 603.708 -1.14202 604.321 -0.863006 604.798C -0.583995 605.274 0.0285692 605.434 0.505194 605.155L -0.505194 603.429ZM 268.026 447.393L 268.531 448.256L 268.536 448.253L 268.026 447.393ZM 277.758 324.303L 278.255 325.171L 278.257 325.17L 277.758 324.303ZM 387.221 261.39L 386.725 260.521L 386.723 260.523L 387.221 261.39ZM 387.112 65.32L 386.633 66.1977L 386.64 66.2014L 387.112 65.32ZM 326.202 32.0583L 326.681 31.1806L 326.678 31.1788L 326.202 32.0583ZM 325.983 15.0991L 326.487 15.9628L 326.488 15.9622L 325.983 15.0991ZM 352.296 0.863126C 352.772 0.584229 352.933 -0.0282963 352.654 -0.504988C 352.375 -0.981679 351.762 -1.14202 351.286 -0.863126L 352.296 0.863126ZM 0.505194 605.155L 268.531 448.256L 267.521 446.53L -0.505194 603.429L 0.505194 605.155ZM 268.536 448.253C 271.787 446.326 273.837 442.829 273.837 438.968L 271.837 438.968C 271.837 442.11 270.17 444.959 267.516 446.533L 268.536 448.253ZM 273.837 438.968L 273.837 332.727L 271.837 332.727L 271.837 438.968L 273.837 438.968ZM 273.837 332.727C 273.837 329.59 275.5 326.746 278.255 325.171L 277.262 323.434C 273.893 325.361 271.837 328.862 271.837 332.727L 273.837 332.727ZM 278.257 325.17L 387.72 262.257L 386.723 260.523L 277.26 323.436L 278.257 325.17ZM 387.718 262.258C 391.087 260.332 393.142 256.83 393.142 252.965L 391.142 252.965C 391.142 256.102 389.48 258.946 386.725 260.521L 387.718 262.258ZM 393.142 252.965L 393.142 73.8543L 391.142 73.8543L 391.142 252.965L 393.142 252.965ZM 393.142 73.8543C 393.142 69.8824 390.978 66.2574 387.584 64.4387L 386.64 66.2014C 389.37 67.6651 391.142 70.605 391.142 73.8543L 393.142 73.8543ZM 387.591 64.4424L 326.681 31.1806L 325.723 32.9359L 386.633 66.1977L 387.591 64.4424ZM 326.678 31.1788C 320.702 27.9442 320.591 19.4042 326.487 15.9628L 325.479 14.2355C 318.253 18.453 318.361 28.951 325.726 32.9377L 326.678 31.1788ZM 326.488 15.9622L 352.296 0.863126L 351.286 -0.863126L 325.478 14.236L 326.488 15.9622Z"/>
<path id="path2_fill" d="M 60.2539 6.67809e-06L 60.2539 34.903L 60.0351 34.903L 30.0723 52.2998L 2.66977e-05 34.903L 2.66977e-05 6.67809e-06L 60.2539 6.67809e-06Z"/>
<path id="path3_stroke" d="M 60.2539 6.67809e-06L 61.2539 6.67809e-06C 61.2539 -0.552278 60.8061 -0.999993 60.2539 -0.999993L 60.2539 6.67809e-06ZM 60.2539 34.903L 60.2539 35.903C 60.8061 35.903 61.2539 35.4553 61.2539 34.903L 60.2539 34.903ZM 60.0351 34.903L 60.0351 33.903C 59.8588 33.903 59.6856 33.9496 59.533 34.0382L 60.0351 34.903ZM 30.0723 52.2998L 29.5715 53.1654C 29.8818 53.3449 30.2644 53.3446 30.5744 53.1646L 30.0723 52.2998ZM 2.66977e-05 34.903L -0.999973 34.903C -0.999973 35.26 -0.8097 35.5899 -0.500719 35.7686L 2.66977e-05 34.903ZM 2.66977e-05 6.67809e-06L 2.66977e-05 -0.999993C -0.552258 -0.999993 -0.999973 -0.552278 -0.999973 6.67809e-06L 2.66977e-05 6.67809e-06ZM 59.2539 6.67809e-06L 59.2539 34.903L 61.2539 34.903L 61.2539 6.67809e-06L 59.2539 6.67809e-06ZM 60.2539 33.903L 60.0351 33.903L 60.0351 35.903L 60.2539 35.903L 60.2539 33.903ZM 59.533 34.0382L 29.5702 51.435L 30.5744 53.1646L 60.5373 35.7678L 59.533 34.0382ZM 30.573 51.4342L 0.500773 34.0374L -0.500719 35.7686L 29.5715 53.1654L 30.573 51.4342ZM 1.00003 34.903L 1.00003 6.67809e-06L -0.999973 6.67809e-06L -0.999973 34.903L 1.00003 34.903ZM 2.66977e-05 1.00001L 60.2539 1.00001L 60.2539 -0.999993L 2.66977e-05 -0.999993L 2.66977e-05 1.00001Z"/>
<path id="path4_fill" d="M 30.0723 34.7936L 60.2539 17.3968L 30.1816 -3.33904e-06L 2.66977e-05 17.5062L 30.0723 34.7936Z"/>
<path id="path5_stroke" d="M 30.0723 34.7936L 29.5739 35.6605C 29.8828 35.8381 30.2629 35.8379 30.5717 35.66L 30.0723 34.7936ZM 60.2539 17.3968L 60.7532 18.2632C 61.0628 18.0848 61.2536 17.7548 61.2539 17.3976C 61.2541 17.0404 61.0638 16.7101 60.7546 16.5312L 60.2539 17.3968ZM 30.1816 -3.33904e-06L 30.6824 -0.865597C 30.3722 -1.04501 29.9898 -1.04479 29.6799 -0.865023L 30.1816 -3.33904e-06ZM 2.66977e-05 17.5062L -0.501711 16.6412C -0.810731 16.8204 -1.00066 17.1509 -0.999971 17.5081C -0.999279 17.8654 -0.808067 18.1951 -0.498354 18.3732L 2.66977e-05 17.5062ZM 30.5717 35.66L 60.7532 18.2632L 59.7545 16.5304L 29.5729 33.9272L 30.5717 35.66ZM 60.7546 16.5312L 30.6824 -0.865597L 29.6809 0.865591L 59.7531 18.2624L 60.7546 16.5312ZM 29.6799 -0.865023L -0.501711 16.6412L 0.501764 18.3712L 30.6833 0.865017L 29.6799 -0.865023ZM -0.498354 18.3732L 29.5739 35.6605L 30.5707 33.9266L 0.498408 16.6392L -0.498354 18.3732Z"/>
<path id="path6_fill" d="M 60.2539 6.67809e-06L 60.2539 35.0124L 60.0351 35.0124L 30.0723 52.2998L 2.66977e-05 35.0124L 2.66977e-05 6.67809e-06L 60.2539 6.67809e-06Z"/>
<path id="path7_stroke" d="M 60.2539 6.67809e-06L 61.2539 6.67809e-06C 61.2539 -0.552278 60.8061 -0.999993 60.2539 -0.999993L 60.2539 6.67809e-06ZM 60.2539 35.0124L 60.2539 36.0124C 60.8061 36.0124 61.2539 35.5647 61.2539 35.0124L 60.2539 35.0124ZM 60.0351 35.0124L 60.0351 34.0124C 59.8597 34.0124 59.6874 34.0586 59.5354 34.1463L 60.0351 35.0124ZM 30.0723 52.2998L 29.5739 53.1668C 29.883 53.3444 30.2632 53.3441 30.572 53.166L 30.0723 52.2998ZM 2.66977e-05 35.0124L -0.999973 35.0124C -0.999973 35.3704 -0.808667 35.701 -0.498354 35.8794L 2.66977e-05 35.0124ZM 2.66977e-05 6.67809e-06L 2.66977e-05 -0.999993C -0.552258 -0.999993 -0.999973 -0.552278 -0.999973 6.67809e-06L 2.66977e-05 6.67809e-06ZM 59.2539 6.67809e-06L 59.2539 35.0124L 61.2539 35.0124L 61.2539 6.67809e-06L 59.2539 6.67809e-06ZM 60.2539 34.0124L 60.0351 34.0124L 60.0351 36.0124L 60.2539 36.0124L 60.2539 34.0124ZM 59.5354 34.1463L 29.5725 51.4336L 30.572 53.166L 60.5349 35.8786L 59.5354 34.1463ZM 30.5707 51.4328L 0.498407 34.1455L -0.498354 35.8794L 29.5739 53.1668L 30.5707 51.4328ZM 1.00003 35.0124L 1.00003 6.67809e-06L -0.999973 6.67809e-06L -0.999973 35.0124L 1.00003 35.0124ZM 2.66977e-05 1.00001L 60.2539 1.00001L 60.2539 -0.999993L 2.66977e-05 -0.999993L 2.66977e-05 1.00001Z"/>
<path id="path8_fill" d="M 30.0723 34.7936L 60.2539 17.2874L 30.1816 -1.33562e-05L 2.66977e-05 17.3968L 30.0723 34.7936Z"/>
<path id="path9_stroke" d="M 30.0723 34.7936L 29.5715 35.6592C 29.8817 35.8386 30.2641 35.8384 30.574 35.6586L 30.0723 34.7936ZM 60.2539 17.2874L 60.7556 18.1524C 61.0646 17.9732 61.2546 17.6427 61.2539 17.2855C 61.2532 16.9282 61.062 16.5985 60.7522 16.4204L 60.2539 17.2874ZM 30.1816 -1.33562e-05L 30.68 -0.866971C 30.3711 -1.04457 29.991 -1.04435 29.6822 -0.866393L 30.1816 -1.33562e-05ZM 2.66977e-05 17.3968L -0.499359 16.5304C -0.808863 16.7088 -0.999692 17.0388 -0.999973 17.396C -1.00025 17.7533 -0.809943 18.0835 -0.500719 18.2624L 2.66977e-05 17.3968ZM 30.574 35.6586L 60.7556 18.1524L 59.7521 16.4224L 29.5705 33.9286L 30.574 35.6586ZM 60.7522 16.4204L 30.68 -0.866971L 29.6832 0.866945L 59.7555 18.1543L 60.7522 16.4204ZM 29.6822 -0.866393L -0.499359 16.5304L 0.499412 18.2632L 30.681 0.866366L 29.6822 -0.866393ZM -0.500719 18.2624L 29.5715 35.6592L 30.573 33.928L 0.500773 16.5312L -0.500719 18.2624Z"/>
<path id="path10_fill" d="M 60.2539 -6.67809e-06L 60.2539 34.903L 60.0351 34.903L 30.0723 52.2998L 1.33488e-05 34.903L 1.33488e-05 -6.67809e-06L 60.2539 -6.67809e-06Z"/>
<path id="path11_stroke" d="M 60.2539 -6.67809e-06L 61.2539 -6.67809e-06C 61.2539 -0.552291 60.8061 -1.00001 60.2539 -1.00001L 60.2539 -6.67809e-06ZM 60.2539 34.903L 60.2539 35.903C 60.8061 35.903 61.2539 35.4553 61.2539 34.903L 60.2539 34.903ZM 60.0351 34.903L 60.0351 33.903C 59.8588 33.903 59.6855 33.9496 59.533 34.0382L 60.0351 34.903ZM 30.0723 52.2998L 29.5715 53.1654C 29.8818 53.3449 30.2644 53.3446 30.5744 53.1646L 30.0723 52.2998ZM 1.33488e-05 34.903L -0.999987 34.903C -0.999987 35.26 -0.809714 35.5898 -0.500733 35.7686L 1.33488e-05 34.903ZM 1.33488e-05 -6.67809e-06L 1.33488e-05 -1.00001C -0.552271 -1.00001 -0.999987 -0.552291 -0.999987 -6.67809e-06L 1.33488e-05 -6.67809e-06ZM 59.2539 -6.67809e-06L 59.2539 34.903L 61.2539 34.903L 61.2539 -6.67809e-06L 59.2539 -6.67809e-06ZM 60.2539 33.903L 60.0351 33.903L 60.0351 35.903L 60.2539 35.903L 60.2539 33.903ZM 59.533 34.0382L 29.5702 51.435L 30.5744 53.1646L 60.5372 35.7678L 59.533 34.0382ZM 30.573 51.4342L 0.50076 34.0374L -0.500733 35.7686L 29.5715 53.1654L 30.573 51.4342ZM 1.00001 34.903L 1.00001 -6.67809e-06L -0.999987 -6.67809e-06L -0.999987 34.903L 1.00001 34.903ZM 1.33488e-05 0.999993L 60.2539 0.999993L 60.2539 -1.00001L 1.33488e-05 -1.00001L 1.33488e-05 0.999993Z"/>
<path id="path12_fill" d="M 30.0723 34.7936L 60.2539 17.2874L 30.1816 6.67809e-06L 1.33488e-05 17.3968L 30.0723 34.7936Z"/>
<path id="path13_stroke" d="M 30.0723 34.7936L 29.5715 35.6592C 29.8817 35.8386 30.2641 35.8384 30.574 35.6586L 30.0723 34.7936ZM 60.2539 17.2874L 60.7556 18.1524C 61.0646 17.9732 61.2545 17.6427 61.2538 17.2854C 61.2532 16.9282 61.0619 16.5985 60.7522 16.4204L 60.2539 17.2874ZM 30.1816 6.67809e-06L 30.68 -0.866952C 30.371 -1.04455 29.9909 -1.04433 29.6822 -0.866373L 30.1816 6.67809e-06ZM 1.33488e-05 17.3968L -0.499372 16.5304C -0.808876 16.7088 -0.999706 17.0388 -0.999986 17.396C -1.00027 17.7532 -0.809956 18.0835 -0.500733 18.2624L 1.33488e-05 17.3968ZM 30.574 35.6586L 60.7556 18.1524L 59.7521 16.4224L 29.5705 33.9286L 30.574 35.6586ZM 60.7522 16.4204L 30.68 -0.866952L 29.6832 0.866965L 59.7555 18.1543L 60.7522 16.4204ZM 29.6822 -0.866373L -0.499372 16.5304L 0.499398 18.2632L 30.681 0.866387L 29.6822 -0.866373ZM -0.500733 18.2624L 29.5715 35.6592L 30.573 33.928L 0.500759 16.5312L -0.500733 18.2624Z"/>
<path id="path14_fill" d="M 60.2539 -6.67809e-06L 60.2539 35.0124L 60.0351 35.0124L 30.0723 52.2998L 2.66977e-05 35.0124L 2.66977e-05 -6.67809e-06L 60.2539 -6.67809e-06Z"/>
<path id="path15_stroke" d="M 60.2539 -6.67809e-06L 61.2539 -6.67809e-06C 61.2539 -0.552291 60.8061 -1.00001 60.2539 -1.00001L 60.2539 -6.67809e-06ZM 60.2539 35.0124L 60.2539 36.0124C 60.8061 36.0124 61.2539 35.5647 61.2539 35.0124L 60.2539 35.0124ZM 60.0351 35.0124L 60.0351 34.0124C 59.8597 34.0124 59.6874 34.0586 59.5354 34.1463L 60.0351 35.0124ZM 30.0723 52.2998L 29.5739 53.1668C 29.883 53.3444 30.2632 53.3441 30.572 53.166L 30.0723 52.2998ZM 2.66977e-05 35.0124L -0.999973 35.0124C -0.999973 35.3704 -0.808667 35.701 -0.498354 35.8794L 2.66977e-05 35.0124ZM 2.66977e-05 -6.67809e-06L 2.66977e-05 -1.00001C -0.552258 -1.00001 -0.999973 -0.552291 -0.999973 -6.67809e-06L 2.66977e-05 -6.67809e-06ZM 59.2539 -6.67809e-06L 59.2539 35.0124L 61.2539 35.0124L 61.2539 -6.67809e-06L 59.2539 -6.67809e-06ZM 60.2539 34.0124L 60.0351 34.0124L 60.0351 36.0124L 60.2539 36.0124L 60.2539 34.0124ZM 59.5354 34.1463L 29.5725 51.4336L 30.572 53.166L 60.5349 35.8786L 59.5354 34.1463ZM 30.5707 51.4329L 0.498407 34.1455L -0.498354 35.8794L 29.5739 53.1668L 30.5707 51.4329ZM 1.00003 35.0124L 1.00003 -6.67809e-06L -0.999973 -6.67809e-06L -0.999973 35.0124L 1.00003 35.0124ZM 2.66977e-05 0.999993L 60.2539 0.999993L 60.2539 -1.00001L 2.66977e-05 -1.00001L 2.66977e-05 0.999993Z"/>
<path id="path16_fill" d="M 30.0723 34.7936L 60.2539 17.2874L 30.1816 6.67809e-06L 2.66977e-05 17.3968L 30.0723 34.7936Z"/>
<path id="path17_stroke" d="M 30.0723 34.7936L 29.5715 35.6592C 29.8817 35.8386 30.2641 35.8384 30.574 35.6586L 30.0723 34.7936ZM 60.2539 17.2874L 60.7556 18.1524C 61.0646 17.9732 61.2546 17.6427 61.2539 17.2854C 61.2532 16.9282 61.062 16.5985 60.7522 16.4204L 60.2539 17.2874ZM 30.1816 6.67809e-06L 30.68 -0.866952C 30.3711 -1.04455 29.991 -1.04433 29.6822 -0.866373L 30.1816 6.67809e-06ZM 2.66977e-05 17.3968L -0.499358 16.5304C -0.808863 16.7088 -0.999692 17.0388 -0.999973 17.396C -1.00025 17.7532 -0.809943 18.0835 -0.500719 18.2624L 2.66977e-05 17.3968ZM 30.574 35.6586L 60.7556 18.1524L 59.7521 16.4224L 29.5705 33.9286L 30.574 35.6586ZM 60.7522 16.4204L 30.68 -0.866952L 29.6832 0.866965L 59.7555 18.1543L 60.7522 16.4204ZM 29.6822 -0.866373L -0.499358 16.5304L 0.499412 18.2632L 30.681 0.866387L 29.6822 -0.866373ZM -0.500719 18.2624L 29.5715 35.6592L 30.573 33.928L 0.500773 16.5312L -0.500719 18.2624Z"/>
<path id="path18_fill" d="M 60.2539 1.33562e-05L 60.2539 34.903L 60.0351 34.903L 30.0723 52.2998L 2.66977e-05 34.903L 2.66977e-05 1.33562e-05L 60.2539 1.33562e-05Z"/>
<path id="path19_stroke" d="M 60.2539 1.33562e-05L 61.2539 1.33562e-05C 61.2539 -0.552271 60.8061 -0.999987 60.2539 -0.999987L 60.2539 1.33562e-05ZM 60.2539 34.903L 60.2539 35.903C 60.8061 35.903 61.2539 35.4553 61.2539 34.903L 60.2539 34.903ZM 60.0351 34.903L 60.0351 33.903C 59.8588 33.903 59.6855 33.9496 59.533 34.0382L 60.0351 34.903ZM 30.0723 52.2998L 29.5715 53.1654C 29.8818 53.3449 30.2644 53.3446 30.5744 53.1646L 30.0723 52.2998ZM 2.66977e-05 34.903L -0.999973 34.903C -0.999973 35.2599 -0.8097 35.5898 -0.50072 35.7686L 2.66977e-05 34.903ZM 2.66977e-05 1.33562e-05L 2.66977e-05 -0.999987C -0.552258 -0.999987 -0.999973 -0.552271 -0.999973 1.33562e-05L 2.66977e-05 1.33562e-05ZM 59.2539 1.33562e-05L 59.2539 34.903L 61.2539 34.903L 61.2539 1.33562e-05L 59.2539 1.33562e-05ZM 60.2539 33.903L 60.0351 33.903L 60.0351 35.903L 60.2539 35.903L 60.2539 33.903ZM 59.533 34.0382L 29.5702 51.435L 30.5744 53.1646L 60.5373 35.7678L 59.533 34.0382ZM 30.573 51.4342L 0.500773 34.0374L -0.50072 35.7686L 29.5715 53.1654L 30.573 51.4342ZM 1.00003 34.903L 1.00003 1.33562e-05L -0.999973 1.33562e-05L -0.999973 34.903L 1.00003 34.903ZM 2.66977e-05 1.00001L 60.2539 1.00001L 60.2539 -0.999987L 2.66977e-05 -0.999987L 2.66977e-05 1.00001Z"/>
<path id="path20_fill" d="M 30.0723 34.7936L 60.2539 17.3968L 30.1816 -1.33562e-05L 2.66977e-05 17.5062L 30.0723 34.7936Z"/>
<path id="path21_stroke" d="M 30.0723 34.7936L 29.5739 35.6605C 29.8828 35.8381 30.2629 35.8379 30.5717 35.6599L 30.0723 34.7936ZM 60.2539 17.3968L 60.7532 18.2632C 61.0628 18.0848 61.2536 17.7548 61.2539 17.3976C 61.2541 17.0404 61.0638 16.7101 60.7546 16.5312L 60.2539 17.3968ZM 30.1816 -1.33562e-05L 30.6824 -0.865607C 30.3722 -1.04502 29.9898 -1.0448 29.6799 -0.865033L 30.1816 -1.33562e-05ZM 2.66977e-05 17.5062L -0.50171 16.6412C -0.810731 16.8204 -1.00066 17.1509 -0.999971 17.5081C -0.999279 17.8654 -0.808067 18.1951 -0.498354 18.3732L 2.66977e-05 17.5062ZM 30.5717 35.6599L 60.7532 18.2632L 59.7545 16.5304L 29.5729 33.9272L 30.5717 35.6599ZM 60.7546 16.5312L 30.6824 -0.865607L 29.6809 0.865581L 59.7531 18.2624L 60.7546 16.5312ZM 29.6799 -0.865033L -0.50171 16.6412L 0.501764 18.3712L 30.6833 0.865007L 29.6799 -0.865033ZM -0.498354 18.3732L 29.5739 35.6605L 30.5707 33.9266L 0.498407 16.6392L -0.498354 18.3732Z"/>
<path id="path22_fill" d="M 60.2539 2.67124e-05L 60.2539 34.903L 60.1445 34.903L 30.0722 52.2998L -6.67442e-06 34.903L -6.67442e-06 2.67124e-05L 60.2539 2.67124e-05Z"/>
<path id="path23_stroke" d="M 60.2539 2.67124e-05L 61.2539 2.67124e-05C 61.2539 -0.552258 60.8061 -0.999973 60.2539 -0.999973L 60.2539 2.67124e-05ZM 60.2539 34.903L 60.2539 35.903C 60.8061 35.903 61.2539 35.4553 61.2539 34.903L 60.2539 34.903ZM 60.1445 34.903L 60.1445 33.903C 59.9687 33.903 59.796 33.9494 59.6438 34.0374L 60.1445 34.903ZM 30.0722 52.2998L 29.5715 53.1654C 29.8813 53.3446 30.2632 53.3446 30.573 53.1654L 30.0722 52.2998ZM -6.67442e-06 34.903L -1.00001 34.903C -1.00001 35.26 -0.809734 35.5898 -0.500753 35.7686L -6.67442e-06 34.903ZM -6.67442e-06 2.67124e-05L -6.67442e-06 -0.999973C -0.552291 -0.999973 -1.00001 -0.552258 -1.00001 2.67124e-05L -6.67442e-06 2.67124e-05ZM 59.2539 2.67124e-05L 59.2539 34.903L 61.2539 34.903L 61.2539 2.67124e-05L 59.2539 2.67124e-05ZM 60.2539 33.903L 60.1445 33.903L 60.1445 35.903L 60.2539 35.903L 60.2539 33.903ZM 59.6438 34.0374L 29.5715 51.4342L 30.573 53.1654L 60.6453 35.7686L 59.6438 34.0374ZM 30.573 51.4342L 0.50074 34.0374L -0.500753 35.7686L 29.5715 53.1654L 30.573 51.4342ZM 0.999993 34.903L 0.999993 2.67124e-05L -1.00001 2.67124e-05L -1.00001 34.903L 0.999993 34.903ZM -6.67442e-06 1.00003L 60.2539 1.00003L 60.2539 -0.999973L -6.67442e-06 -0.999973L -6.67442e-06 1.00003Z"/>
<path id="path24_fill" d="M 30.0722 34.7936L 60.2539 17.2874L 30.291 -2.67124e-05L -6.67442e-06 17.3968L 30.0722 34.7936Z"/>
<path id="path25_stroke" d="M 30.0722 34.7936L 29.5715 35.6592C 29.8816 35.8386 30.2641 35.8384 30.574 35.6586L 30.0722 34.7936ZM 60.2539 17.2874L 60.7556 18.1524C 61.0644 17.9733 61.2543 17.6432 61.2539 17.2863C 61.2535 16.9293 61.0628 16.5996 60.7536 16.4212L 60.2539 17.2874ZM 30.291 -2.67124e-05L 30.7907 -0.866198C 30.4821 -1.04428 30.102 -1.04466 29.7929 -0.867186L 30.291 -2.67124e-05ZM -6.67442e-06 17.3968L -0.498037 16.5296C -0.808062 16.7077 -0.999445 17.0377 -1.00001 17.3952C -1.00057 17.7527 -0.810218 18.0834 -0.500753 18.2624L -6.67442e-06 17.3968ZM 30.574 35.6586L 60.7556 18.1524L 59.7521 16.4224L 29.5705 33.9286L 30.574 35.6586ZM 60.7536 16.4212L 30.7907 -0.866198L 29.7912 0.866144L 59.7541 18.1536L 60.7536 16.4212ZM 29.7929 -0.867186L -0.498037 16.5296L 0.498024 18.264L 30.789 0.867133L 29.7929 -0.867186ZM -0.500753 18.2624L 29.5715 35.6592L 30.573 33.928L 0.50074 16.5312L -0.500753 18.2624Z"/>
<path id="path26_fill" d="M 60.2539 6.67809e-06L 60.2539 34.903L 60.0352 34.903L 30.0723 52.2998L 0 34.903L 0 6.67809e-06L 60.2539 6.67809e-06Z"/>
<path id="path27_stroke" d="M 60.2539 6.67809e-06L 61.2539 6.67809e-06C 61.2539 -0.552278 60.8061 -0.999993 60.2539 -0.999993L 60.2539 6.67809e-06ZM 60.2539 34.903L 60.2539 35.903C 60.8061 35.903 61.2539 35.4553 61.2539 34.903L 60.2539 34.903ZM 60.0352 34.903L 60.0352 33.903C 59.8588 33.903 59.6856 33.9496 59.533 34.0382L 60.0352 34.903ZM 30.0723 52.2998L 29.5715 53.1654C 29.8818 53.3449 30.2644 53.3446 30.5744 53.1646L 30.0723 52.2998ZM 0 34.903L -1 34.903C -1 35.26 -0.809727 35.5899 -0.500747 35.7686L 0 34.903ZM 0 6.67809e-06L 0 -0.999993C -0.552285 -0.999993 -1 -0.552278 -1 6.67809e-06L 0 6.67809e-06ZM 59.2539 6.67809e-06L 59.2539 34.903L 61.2539 34.903L 61.2539 6.67809e-06L 59.2539 6.67809e-06ZM 60.2539 33.903L 60.0352 33.903L 60.0352 35.903L 60.2539 35.903L 60.2539 33.903ZM 59.533 34.0382L 29.5701 51.435L 30.5744 53.1646L 60.5373 35.7678L 59.533 34.0382ZM 30.573 51.4342L 0.500747 34.0374L -0.500747 35.7686L 29.5715 53.1654L 30.573 51.4342ZM 1 34.903L 1 6.67809e-06L -1 6.67809e-06L -1 34.903L 1 34.903ZM 0 1.00001L 60.2539 1.00001L 60.2539 -0.999993L 0 -0.999993L 0 1.00001Z"/>
<path id="path28_fill" d="M 30.0723 34.903L 60.2539 17.3968L 30.1816 1.33562e-05L 0 17.5062L 30.0723 34.903Z"/>
<path id="path29_stroke" d="M 30.0723 34.903L 29.5715 35.7686C 29.8816 35.948 30.2641 35.9478 30.574 35.768L 30.0723 34.903ZM 60.2539 17.3968L 60.7556 18.2618C 61.0642 18.0828 61.2541 17.753 61.2539 17.3962C 61.2537 17.0395 61.0634 16.7099 60.7546 16.5312L 60.2539 17.3968ZM 30.1816 1.33562e-05L 30.6824 -0.865581C 30.3722 -1.04499 29.9898 -1.04477 29.6799 -0.865007L 30.1816 1.33562e-05ZM 0 17.5062L -0.501737 16.6412C -0.810336 16.8202 -1.0002 17.15 -1 17.5068C -0.999796 17.8635 -0.80955 18.1932 -0.500746 18.3718L 0 17.5062ZM 30.574 35.768L 60.7556 18.2618L 59.7521 16.5318L 29.5705 34.038L 30.574 35.768ZM 60.7546 16.5312L 30.6824 -0.865581L 29.6809 0.865608L 59.7531 18.2624L 60.7546 16.5312ZM 29.6799 -0.865007L -0.501737 16.6412L 0.501737 18.3712L 30.6833 0.865034L 29.6799 -0.865007ZM -0.500746 18.3718L 29.5715 35.7686L 30.573 34.0374L 0.500746 16.6406L -0.500746 18.3718Z"/>
<path id="path30_fill" d="M 60.2539 -3.33904e-06L 60.2539 35.0124L 60.0351 35.0124L 30.0722 52.2998L -6.67442e-06 35.0124L -6.67442e-06 -3.33904e-06L 60.2539 -3.33904e-06Z"/>
<path id="path31_stroke" d="M 60.2539 -3.33904e-06L 61.2539 -3.33904e-06C 61.2539 -0.552288 60.8061 -1 60.2539 -1L 60.2539 -3.33904e-06ZM 60.2539 35.0124L 60.2539 36.0124C 60.8061 36.0124 61.2539 35.5647 61.2539 35.0124L 60.2539 35.0124ZM 60.0351 35.0124L 60.0351 34.0124C 59.8597 34.0124 59.6874 34.0586 59.5354 34.1462L 60.0351 35.0124ZM 30.0722 52.2998L 29.5739 53.1668C 29.8829 53.3444 30.2632 53.3441 30.572 53.166L 30.0722 52.2998ZM -6.67442e-06 35.0124L -1.00001 35.0124C -1.00001 35.3703 -0.808701 35.701 -0.498388 35.8794L -6.67442e-06 35.0124ZM -6.67442e-06 -3.33904e-06L -6.67442e-06 -1C -0.552291 -1 -1.00001 -0.552288 -1.00001 -3.33904e-06L -6.67442e-06 -3.33904e-06ZM 59.2539 -3.33904e-06L 59.2539 35.0124L 61.2539 35.0124L 61.2539 -3.33904e-06L 59.2539 -3.33904e-06ZM 60.2539 34.0124L 60.0351 34.0124L 60.0351 36.0124L 60.2539 36.0124L 60.2539 34.0124ZM 59.5354 34.1462L 29.5725 51.4336L 30.572 53.166L 60.5349 35.8786L 59.5354 34.1462ZM 30.5706 51.4328L 0.498374 34.1455L -0.498388 35.8794L 29.5739 53.1668L 30.5706 51.4328ZM 0.999993 35.0124L 0.999993 -3.33904e-06L -1.00001 -3.33904e-06L -1.00001 35.0124L 0.999993 35.0124ZM -6.67442e-06 0.999997L 60.2539 0.999997L 60.2539 -1L -6.67442e-06 -1L -6.67442e-06 0.999997Z"/>
<path id="path32_fill" d="M 30.0722 34.7936L 60.2539 17.2874L 30.291 -6.67809e-06L -6.67442e-06 17.3968L 30.0722 34.7936Z"/>
<path id="path33_stroke" d="M 30.0722 34.7936L 29.5715 35.6592C 29.8816 35.8386 30.2641 35.8384 30.574 35.6586L 30.0722 34.7936ZM 60.2539 17.2874L 60.7556 18.1524C 61.0644 17.9733 61.2543 17.6432 61.2539 17.2862C 61.2535 16.9293 61.0628 16.5996 60.7536 16.4212L 60.2539 17.2874ZM 30.291 -6.67809e-06L 30.7907 -0.866178C 30.4821 -1.04426 30.102 -1.04464 29.7929 -0.867167L 30.291 -6.67809e-06ZM -6.67442e-06 17.3968L -0.498037 16.5296C -0.808062 16.7077 -0.999445 17.0377 -1.00001 17.3952C -1.00057 17.7527 -0.810218 18.0834 -0.500753 18.2624L -6.67442e-06 17.3968ZM 30.574 35.6586L 60.7556 18.1524L 59.7521 16.4224L 29.5705 33.9286L 30.574 35.6586ZM 60.7536 16.4212L 30.7907 -0.866178L 29.7912 0.866165L 59.7541 18.1536L 60.7536 16.4212ZM 29.7929 -0.867167L -0.498037 16.5296L 0.498023 18.264L 30.789 0.867153L 29.7929 -0.867167ZM -0.500753 18.2624L 29.5715 35.6592L 30.573 33.928L 0.500739 16.5312L -0.500753 18.2624Z"/>
<path id="path34_fill" d="M 60.2539 6.67809e-06L 60.2539 35.0124L 60.0351 35.0124L 30.0722 52.2998L -6.67442e-06 35.0124L -6.67442e-06 6.67809e-06L 60.2539 6.67809e-06Z"/>
<path id="path35_stroke" d="M 60.2539 6.67809e-06L 61.2539 6.67809e-06C 61.2539 -0.552278 60.8061 -0.999993 60.2539 -0.999993L 60.2539 6.67809e-06ZM 60.2539 35.0124L 60.2539 36.0124C 60.8061 36.0124 61.2539 35.5647 61.2539 35.0124L 60.2539 35.0124ZM 60.0351 35.0124L 60.0351 34.0124C 59.8597 34.0124 59.6874 34.0586 59.5354 34.1463L 60.0351 35.0124ZM 30.0722 52.2998L 29.5739 53.1668C 29.8829 53.3444 30.2632 53.3441 30.572 53.166L 30.0722 52.2998ZM -6.67442e-06 35.0124L -1.00001 35.0124C -1.00001 35.3704 -0.808701 35.701 -0.498387 35.8794L -6.67442e-06 35.0124ZM -6.67442e-06 6.67809e-06L -6.67442e-06 -0.999993C -0.552291 -0.999993 -1.00001 -0.552278 -1.00001 6.67809e-06L -6.67442e-06 6.67809e-06ZM 59.2539 6.67809e-06L 59.2539 35.0124L 61.2539 35.0124L 61.2539 6.67809e-06L 59.2539 6.67809e-06ZM 60.2539 34.0124L 60.0351 34.0124L 60.0351 36.0124L 60.2539 36.0124L 60.2539 34.0124ZM 59.5354 34.1463L 29.5725 51.4336L 30.572 53.166L 60.5349 35.8786L 59.5354 34.1463ZM 30.5706 51.4328L 0.498374 34.1455L -0.498387 35.8794L 29.5739 53.1668L 30.5706 51.4328ZM 0.999993 35.0124L 0.999993 6.67809e-06L -1.00001 6.67809e-06L -1.00001 35.0124L 0.999993 35.0124ZM -6.67442e-06 1.00001L 60.2539 1.00001L 60.2539 -0.999993L -6.67442e-06 -0.999993L -6.67442e-06 1.00001Z"/>
<path id="path36_fill" d="M 30.0722 34.7936L 60.2539 17.2874L 30.291 -1.33562e-05L -6.67442e-06 17.3968L 30.0722 34.7936Z"/>
<path id="path37_stroke" d="M 30.0722 34.7936L 29.5715 35.6592C 29.8816 35.8386 30.2641 35.8384 30.574 35.6586L 30.0722 34.7936ZM 60.2539 17.2874L 60.7556 18.1524C 61.0644 17.9733 61.2543 17.6432 61.2539 17.2862C 61.2535 16.9293 61.0628 16.5996 60.7536 16.4212L 60.2539 17.2874ZM 30.291 -1.33562e-05L 30.7907 -0.866185C 30.4821 -1.04427 30.102 -1.04465 29.7929 -0.867173L 30.291 -1.33562e-05ZM -6.67442e-06 17.3968L -0.498037 16.5296C -0.808062 16.7077 -0.999445 17.0377 -1.00001 17.3952C -1.00057 17.7528 -0.810218 18.0834 -0.500753 18.2624L -6.67442e-06 17.3968ZM 30.574 35.6586L 60.7556 18.1524L 59.7521 16.4224L 29.5705 33.9286L 30.574 35.6586ZM 60.7536 16.4212L 30.7907 -0.866185L 29.7912 0.866158L 59.7541 18.1536L 60.7536 16.4212ZM 29.7929 -0.867173L -0.498037 16.5296L 0.498024 18.264L 30.789 0.867146L 29.7929 -0.867173ZM -0.500753 18.2624L 29.5715 35.6592L 30.573 33.928L 0.500739 16.5312L -0.500753 18.2624Z"/>
<path id="path38_fill" d="M 60.2539 -6.67809e-06L 60.2539 34.903L 60.0352 34.903L 30.0723 52.1904L 0 34.903L 0 -6.67809e-06L 60.2539 -6.67809e-06Z"/>
<path id="path39_stroke" d="M 60.2539 -6.67809e-06L 61.2539 -6.67809e-06C 61.2539 -0.552291 60.8062 -1.00001 60.2539 -1.00001L 60.2539 -6.67809e-06ZM 60.2539 34.903L 60.2539 35.903C 60.8062 35.903 61.2539 35.4553 61.2539 34.903L 60.2539 34.903ZM 60.0352 34.903L 60.0352 33.903C 59.8597 33.903 59.6874 33.9491 59.5354 34.0368L 60.0352 34.903ZM 30.0723 52.1904L 29.5739 53.0573C 29.8829 53.235 30.2632 53.2347 30.572 53.0566L 30.0723 52.1904ZM 0 34.903L -1 34.903C -1 35.2609 -0.808694 35.5916 -0.498381 35.77L 0 34.903ZM 0 -6.67809e-06L 0 -1.00001C -0.552285 -1.00001 -1 -0.552291 -1 -6.67809e-06L 0 -6.67809e-06ZM 59.2539 -6.67809e-06L 59.2539 34.903L 61.2539 34.903L 61.2539 -6.67809e-06L 59.2539 -6.67809e-06ZM 60.2539 33.903L 60.0352 33.903L 60.0352 35.903L 60.2539 35.903L 60.2539 33.903ZM 59.5354 34.0368L 29.5725 51.3242L 30.572 53.0566L 60.5349 35.7692L 59.5354 34.0368ZM 30.5706 51.3234L 0.498381 34.036L -0.498381 35.77L 29.5739 53.0573L 30.5706 51.3234ZM 1 34.903L 1 -6.67809e-06L -1 -6.67809e-06L -1 34.903L 1 34.903ZM 0 0.999993L 60.2539 0.999993L 60.2539 -1.00001L 0 -1.00001L 0 0.999993Z"/>
<path id="path40_fill" d="M 30.0723 34.7936L 60.2539 17.3968L 30.1816 0L 0 17.5062L 30.0723 34.7936Z"/>
<path id="path41_stroke" d="M 30.0723 34.7936L 29.5739 35.6605C 29.8828 35.8381 30.2629 35.8379 30.5716 35.66L 30.0723 34.7936ZM 60.2539 17.3968L 60.7533 18.2632C 61.0628 18.0848 61.2536 17.7548 61.2539 17.3976C 61.2542 17.0403 61.0638 16.7101 60.7546 16.5312L 60.2539 17.3968ZM 30.1816 0L 30.6824 -0.865594C 30.3722 -1.04501 29.9898 -1.04479 29.6799 -0.86502L 30.1816 0ZM 0 17.5062L -0.501737 16.6412C -0.810758 16.8204 -1.00069 17.1509 -0.999998 17.5081C -0.999306 17.8654 -0.808094 18.1951 -0.498381 18.3732L 0 17.5062ZM 30.5716 35.66L 60.7533 18.2632L 59.7545 16.5304L 29.5729 33.9272L 30.5716 35.66ZM 60.7546 16.5312L 30.6824 -0.865594L 29.6809 0.865594L 59.7531 18.2624L 60.7546 16.5312ZM 29.6799 -0.86502L -0.501737 16.6412L 0.501737 18.3712L 30.6834 0.86502L 29.6799 -0.86502ZM -0.498381 18.3732L 29.5739 35.6605L 30.5706 33.9266L 0.498381 16.6393L -0.498381 18.3732Z"/>
<path id="path42_fill" d="M 60.2539 2.67124e-05L 60.2539 34.903L 60.0352 34.903L 29.9629 52.1904L -3.33721e-06 34.903L -3.33721e-06 2.67124e-05L 60.2539 2.67124e-05Z"/>
<path id="path43_stroke" d="M 60.2539 2.67124e-05L 61.2539 2.67124e-05C 61.2539 -0.552258 60.8062 -0.999973 60.2539 -0.999973L 60.2539 2.67124e-05ZM 60.2539 34.903L 60.2539 35.903C 60.8062 35.903 61.2539 35.4553 61.2539 34.903L 60.2539 34.903ZM 60.0352 34.903L 60.0352 33.903C 59.8603 33.903 59.6884 33.9489 59.5368 34.036L 60.0352 34.903ZM 29.9629 52.1904L 29.4632 53.0565C 29.7719 53.2347 30.1522 53.235 30.4613 53.0573L 29.9629 52.1904ZM -3.33721e-06 34.903L -1 34.903C -1 35.2604 -0.809293 35.5906 -0.499749 35.7692L -3.33721e-06 34.903ZM -3.33721e-06 2.67124e-05L -3.33721e-06 -0.999973C -0.552288 -0.999973 -1 -0.552258 -1 2.67124e-05L -3.33721e-06 2.67124e-05ZM 59.2539 2.67124e-05L 59.2539 34.903L 61.2539 34.903L 61.2539 2.67124e-05L 59.2539 2.67124e-05ZM 60.2539 33.903L 60.0352 33.903L 60.0352 35.903L 60.2539 35.903L 60.2539 33.903ZM 59.5368 34.036L 29.4645 51.3234L 30.4613 53.0573L 60.5335 35.77L 59.5368 34.036ZM 30.4627 51.3242L 0.499742 34.0368L -0.499749 35.7692L 29.4632 53.0565L 30.4627 51.3242ZM 0.999997 34.903L 0.999997 2.67124e-05L -1 2.67124e-05L -1 34.903L 0.999997 34.903ZM -3.33721e-06 1.00003L 60.2539 1.00003L 60.2539 -0.999973L -3.33721e-06 -0.999973L -3.33721e-06 1.00003Z"/>
<path id="path44_fill" d="M 29.9629 34.7936L 60.2539 17.3968L 30.1816 0L -3.33721e-06 17.5062L 29.9629 34.7936Z"/>
<path id="path45_stroke" d="M 29.9629 34.7936L 29.4632 35.6598C 29.7718 35.8378 30.1519 35.8382 30.4609 35.6607L 29.9629 34.7936ZM 60.2539 17.3968L 60.7519 18.264C 61.0619 18.0859 61.2533 17.7559 61.2539 17.3984C 61.2544 17.0409 61.0641 16.7103 60.7546 16.5312L 60.2539 17.3968ZM 30.1816 0L 30.6824 -0.865594C 30.3722 -1.04501 29.9898 -1.04479 29.6799 -0.86502L 30.1816 0ZM -3.33721e-06 17.5062L -0.50174 16.6412C -0.810517 16.8203 -1.00041 17.1504 -1 17.5074C -0.999592 17.8643 -0.808938 18.194 -0.499749 18.3724L -3.33721e-06 17.5062ZM 30.4609 35.6607L 60.7519 18.264L 59.7558 16.5297L 29.4649 33.9264L 30.4609 35.6607ZM 60.7546 16.5312L 30.6824 -0.865594L 29.6809 0.865594L 59.7531 18.2624L 60.7546 16.5312ZM 29.6799 -0.86502L -0.50174 16.6412L 0.501733 18.3712L 30.6833 0.86502L 29.6799 -0.86502ZM -0.499749 18.3724L 29.4632 35.6598L 30.4627 33.9274L 0.499742 16.64L -0.499749 18.3724Z"/>
<path id="path46_fill" d="M 60.2539 2.67124e-05L 60.2539 34.903L 60.0352 34.903L 29.9629 52.2998L 1.6686e-06 34.903L 1.6686e-06 2.67124e-05L 60.2539 2.67124e-05Z"/>
<path id="path47_stroke" d="M 60.2539 2.67124e-05L 61.2539 2.67124e-05C 61.2539 -0.552258 60.8061 -0.999973 60.2539 -0.999973L 60.2539 2.67124e-05ZM 60.2539 34.903L 60.2539 35.903C 60.8061 35.903 61.2539 35.4553 61.2539 34.903L 60.2539 34.903ZM 60.0352 34.903L 60.0352 33.903C 59.8593 33.903 59.6866 33.9494 59.5344 34.0374L 60.0352 34.903ZM 29.9629 52.2998L 29.4608 53.1646C 29.7708 53.3446 30.1534 53.3449 30.4637 53.1654L 29.9629 52.2998ZM 1.6686e-06 34.903L -0.999998 34.903C -0.999998 35.2594 -0.810322 35.5888 -0.502112 35.7678L 1.6686e-06 34.903ZM 1.6686e-06 2.67124e-05L 1.6686e-06 -0.999973C -0.552283 -0.999973 -0.999998 -0.552258 -0.999998 2.67124e-05L 1.6686e-06 2.67124e-05ZM 59.2539 2.67124e-05L 59.2539 34.903L 61.2539 34.903L 61.2539 2.67124e-05L 59.2539 2.67124e-05ZM 60.2539 33.903L 60.0352 33.903L 60.0352 35.903L 60.2539 35.903L 60.2539 33.903ZM 59.5344 34.0374L 29.4622 51.4342L 30.4637 53.1654L 60.5359 35.7686L 59.5344 34.0374ZM 30.465 51.435L 0.502116 34.0382L -0.502112 35.7678L 29.4608 53.1646L 30.465 51.435ZM 1 34.903L 1 2.67124e-05L -0.999998 2.67124e-05L -0.999998 34.903L 1 34.903ZM 1.6686e-06 1.00003L 60.2539 1.00003L 60.2539 -0.999973L 1.6686e-06 -0.999973L 1.6686e-06 1.00003Z"/>
<path id="path48_fill" d="M 29.9629 34.903L 60.2539 17.3968L 30.1816 0L 1.6686e-06 17.5062L 29.9629 34.903Z"/>
<path id="path49_stroke" d="M 29.9629 34.903L 29.4608 35.7678C 29.7706 35.9477 30.1531 35.9481 30.4633 35.7688L 29.9629 34.903ZM 60.2539 17.3968L 60.7542 18.2626C 61.0634 18.084 61.2538 17.7541 61.2539 17.397C 61.2539 17.04 61.0637 16.71 60.7546 16.5312L 60.2539 17.3968ZM 30.1816 0L 30.6824 -0.865594C 30.3722 -1.04501 29.9898 -1.04479 29.6799 -0.86502L 30.1816 0ZM 1.6686e-06 17.5062L -0.501735 16.6412C -0.81009 16.82 -0.999921 17.1495 -0.999998 17.506C -1.00008 17.8625 -0.810389 18.192 -0.502112 18.371L 1.6686e-06 17.5062ZM 30.4633 35.7688L 60.7542 18.2626L 59.7535 16.531L 29.4625 34.0372L 30.4633 35.7688ZM 60.7546 16.5312L 30.6824 -0.865594L 29.6809 0.865594L 59.7531 18.2624L 60.7546 16.5312ZM 29.6799 -0.86502L -0.501735 16.6412L 0.501739 18.3712L 30.6833 0.86502L 29.6799 -0.86502ZM -0.502112 18.371L 29.4608 35.7678L 30.465 34.0382L 0.502116 16.6414L -0.502112 18.371Z"/>
<path id="path50_fill" d="M 60.2539 1.66952e-06L 60.2539 34.903L 60.0351 34.903L 29.9629 52.1904L 1.33488e-05 34.903L 1.33488e-05 1.66952e-06L 60.2539 1.66952e-06Z"/>
<path id="path51_stroke" d="M 60.2539 1.66952e-06L 61.2539 1.66952e-06C 61.2539 -0.552283 60.8061 -0.999998 60.2539 -0.999998L 60.2539 1.66952e-06ZM 60.2539 34.903L 60.2539 35.903C 60.8061 35.903 61.2539 35.4553 61.2539 34.903L 60.2539 34.903ZM 60.0351 34.903L 60.0351 33.903C 59.8602 33.903 59.6884 33.9489 59.5368 34.0361L 60.0351 34.903ZM 29.9629 52.1904L 29.4631 53.0566C 29.7719 53.2347 30.1522 53.235 30.4613 53.0573L 29.9629 52.1904ZM 1.33488e-05 34.903L -0.999987 34.903C -0.999987 35.2604 -0.809277 35.5906 -0.499733 35.7692L 1.33488e-05 34.903ZM 1.33488e-05 1.66952e-06L 1.33488e-05 -0.999998C -0.552271 -0.999998 -0.999987 -0.552283 -0.999987 1.66952e-06L 1.33488e-05 1.66952e-06ZM 59.2539 1.66952e-06L 59.2539 34.903L 61.2539 34.903L 61.2539 1.66952e-06L 59.2539 1.66952e-06ZM 60.2539 33.903L 60.0351 33.903L 60.0351 35.903L 60.2539 35.903L 60.2539 33.903ZM 59.5368 34.0361L 29.4645 51.3234L 30.4613 53.0573L 60.5335 35.77L 59.5368 34.0361ZM 30.4626 51.3242L 0.49976 34.0368L -0.499733 35.7692L 29.4631 53.0566L 30.4626 51.3242ZM 1.00001 34.903L 1.00001 1.66952e-06L -0.999987 1.66952e-06L -0.999987 34.903L 1.00001 34.903ZM 1.33488e-05 1L 60.2539 1L 60.2539 -0.999998L 1.33488e-05 -0.999998L 1.33488e-05 1Z"/>
<path id="path52_fill" d="M 29.9629 34.7936L 60.2539 17.3968L 30.1816 0L 1.33488e-05 17.5062L 29.9629 34.7936Z"/>
<path id="path53_stroke" d="M 29.9629 34.7936L 29.4631 35.6598C 29.7718 35.8379 30.1519 35.8382 30.4609 35.6608L 29.9629 34.7936ZM 60.2539 17.3968L 60.7519 18.264C 61.0619 18.0859 61.2533 17.7559 61.2539 17.3984C 61.2544 17.0408 61.0641 16.7102 60.7546 16.5312L 60.2539 17.3968ZM 30.1816 0L 30.6823 -0.865594C 30.3722 -1.04501 29.9898 -1.04479 29.6799 -0.86502L 30.1816 0ZM 1.33488e-05 17.5062L -0.501724 16.6412C -0.810501 16.8203 -1.0004 17.1504 -0.999986 17.5074C -0.999576 17.8643 -0.808921 18.194 -0.499733 18.3724L 1.33488e-05 17.5062ZM 30.4609 35.6608L 60.7519 18.264L 59.7558 16.5296L 29.4648 33.9264L 30.4609 35.6608ZM 60.7546 16.5312L 30.6823 -0.865594L 29.6808 0.865594L 59.7531 18.2624L 60.7546 16.5312ZM 29.6799 -0.86502L -0.501724 16.6412L 0.501751 18.3712L 30.6833 0.86502L 29.6799 -0.86502ZM -0.499733 18.3724L 29.4631 35.6598L 30.4626 33.9274L 0.49976 16.64L -0.499733 18.3724Z"/>
<path id="path54_fill" d="M 60.2539 -4.17381e-07L 60.2539 34.903L 60.0351 34.903L 30.0723 52.1904L 1.33488e-05 34.903L 1.33488e-05 -4.17381e-07L 60.2539 -4.17381e-07Z"/>
<path id="path55_stroke" d="M 60.2539 -4.17381e-07L 61.2539 -4.17381e-07C 61.2539 -0.552285 60.8061 -1 60.2539 -1L 60.2539 -4.17381e-07ZM 60.2539 34.903L 60.2539 35.903C 60.8061 35.903 61.2539 35.4553 61.2539 34.903L 60.2539 34.903ZM 60.0351 34.903L 60.0351 33.903C 59.8597 33.903 59.6873 33.9492 59.5354 34.0368L 60.0351 34.903ZM 30.0723 52.1904L 29.5739 53.0573C 29.883 53.235 30.2632 53.2347 30.572 53.0566L 30.0723 52.1904ZM 1.33488e-05 34.903L -0.999987 34.903C -0.999987 35.2609 -0.808681 35.5916 -0.498367 35.77L 1.33488e-05 34.903ZM 1.33488e-05 -4.17381e-07L 1.33488e-05 -1C -0.552271 -1 -0.999987 -0.552285 -0.999987 -4.17381e-07L 1.33488e-05 -4.17381e-07ZM 59.2539 -4.17381e-07L 59.2539 34.903L 61.2539 34.903L 61.2539 -4.17381e-07L 59.2539 -4.17381e-07ZM 60.2539 33.903L 60.0351 33.903L 60.0351 35.903L 60.2539 35.903L 60.2539 33.903ZM 59.5354 34.0368L 29.5725 51.3242L 30.572 53.0566L 60.5349 35.7692L 59.5354 34.0368ZM 30.5706 51.3234L 0.498394 34.036L -0.498367 35.77L 29.5739 53.0573L 30.5706 51.3234ZM 1.00001 34.903L 1.00001 -4.17381e-07L -0.999987 -4.17381e-07L -0.999987 34.903L 1.00001 34.903ZM 1.33488e-05 1L 60.2539 1L 60.2539 -1L 1.33488e-05 -1L 1.33488e-05 1Z"/>
<path id="path56_fill" d="M 30.0723 34.7936L 60.2539 17.3968L 30.1816 0L 1.33488e-05 17.5062L 30.0723 34.7936Z"/>
<path id="path57_stroke" d="M 30.0723 34.7936L 29.5739 35.6605C 29.8828 35.8381 30.2629 35.8379 30.5717 35.66L 30.0723 34.7936ZM 60.2539 17.3968L 60.7532 18.2632C 61.0627 18.0848 61.2536 17.7548 61.2539 17.3976C 61.2541 17.0403 61.0638 16.7101 60.7546 16.5312L 60.2539 17.3968ZM 30.1816 0L 30.6823 -0.865594C 30.3722 -1.04501 29.9898 -1.04479 29.6799 -0.86502L 30.1816 0ZM 1.33488e-05 17.5062L -0.501724 16.6412C -0.810744 16.8204 -1.00068 17.1509 -0.999985 17.5081C -0.999292 17.8654 -0.80808 18.1951 -0.498368 18.3732L 1.33488e-05 17.5062ZM 30.5717 35.66L 60.7532 18.2632L 59.7545 16.5304L 29.5729 33.9272L 30.5717 35.66ZM 60.7546 16.5312L 30.6823 -0.865594L 29.6808 0.865594L 59.7531 18.2624L 60.7546 16.5312ZM 29.6799 -0.86502L -0.501724 16.6412L 0.501751 18.3712L 30.6833 0.86502L 29.6799 -0.86502ZM -0.498368 18.3732L 29.5739 35.6605L 30.5706 33.9266L 0.498394 16.6393L -0.498368 18.3732Z"/>
<path id="path58_fill" d="M 60.2539 1.33562e-05L 60.2539 34.903L 60.1445 34.903L 30.0722 52.2998L -1.33488e-05 34.903L -1.33488e-05 1.33562e-05L 60.2539 1.33562e-05Z"/>
<path id="path59_stroke" d="M 60.2539 1.33562e-05L 61.2539 1.33562e-05C 61.2539 -0.552271 60.8062 -0.999987 60.2539 -0.999987L 60.2539 1.33562e-05ZM 60.2539 34.903L 60.2539 35.903C 60.8062 35.903 61.2539 35.4553 61.2539 34.903L 60.2539 34.903ZM 60.1445 34.903L 60.1445 33.903C 59.9687 33.903 59.7959 33.9493 59.6438 34.0374L 60.1445 34.903ZM 30.0722 52.2998L 29.5715 53.1654C 29.8813 53.3446 30.2632 53.3446 30.573 53.1654L 30.0722 52.2998ZM -1.33488e-05 34.903L -1.00001 34.903C -1.00001 35.2599 -0.80974 35.5898 -0.50076 35.7686L -1.33488e-05 34.903ZM -1.33488e-05 1.33562e-05L -1.33488e-05 -0.999987C -0.552298 -0.999987 -1.00001 -0.552271 -1.00001 1.33562e-05L -1.33488e-05 1.33562e-05ZM 59.2539 1.33562e-05L 59.2539 34.903L 61.2539 34.903L 61.2539 1.33562e-05L 59.2539 1.33562e-05ZM 60.2539 33.903L 60.1445 33.903L 60.1445 35.903L 60.2539 35.903L 60.2539 33.903ZM 59.6438 34.0374L 29.5715 51.4342L 30.573 53.1654L 60.6452 35.7686L 59.6438 34.0374ZM 30.573 51.4342L 0.500733 34.0374L -0.50076 35.7686L 29.5715 53.1654L 30.573 51.4342ZM 0.999987 34.903L 0.999987 1.33562e-05L -1.00001 1.33562e-05L -1.00001 34.903L 0.999987 34.903ZM -1.33488e-05 1.00001L 60.2539 1.00001L 60.2539 -0.999987L -1.33488e-05 -0.999987L -1.33488e-05 1.00001Z"/>
<path id="path60_fill" d="M 30.0722 34.7936L 60.2539 17.3968L 30.291 -1.33562e-05L -1.33488e-05 17.5062L 30.0722 34.7936Z"/>
<path id="path61_stroke" d="M 30.0722 34.7936L 29.5739 35.6605C 29.8828 35.8381 30.2629 35.8379 30.5716 35.6599L 30.0722 34.7936ZM 60.2539 17.3968L 60.7533 18.2632C 61.0625 18.0849 61.2533 17.7553 61.2539 17.3984C 61.2545 17.0414 61.0647 16.7112 60.756 16.532L 60.2539 17.3968ZM 30.291 -1.33562e-05L 30.7931 -0.864815C 30.4832 -1.04472 30.1008 -1.0451 29.7906 -0.86582L 30.291 -1.33562e-05ZM -1.33488e-05 17.5062L -0.500393 16.6404C -0.809937 16.8193 -1.00043 17.1498 -1.00001 17.5073C -0.9996 17.8649 -0.80835 18.195 -0.498394 18.3732L -1.33488e-05 17.5062ZM 30.5716 35.6599L 60.7533 18.2632L 59.7545 16.5304L 29.5729 33.9272L 30.5716 35.6599ZM 60.756 16.532L 30.7931 -0.864815L 29.7889 0.864788L 59.7518 18.2616L 60.756 16.532ZM 29.7906 -0.86582L -0.500393 16.6404L 0.500366 18.372L 30.7913 0.865793L 29.7906 -0.86582ZM -0.498394 18.3732L 29.5739 35.6605L 30.5706 33.9266L 0.498367 16.6392L -0.498394 18.3732Z"/>
<path id="path62_fill" d="M 60.2539 -6.67809e-06L 60.2539 34.903L 60.1445 34.903L 30.0722 52.2998L -6.67442e-06 34.903L -6.67442e-06 -6.67809e-06L 60.2539 -6.67809e-06Z"/>
<path id="path63_stroke" d="M 60.2539 -6.67809e-06L 61.2539 -6.67809e-06C 61.2539 -0.552291 60.8061 -1.00001 60.2539 -1.00001L 60.2539 -6.67809e-06ZM 60.2539 34.903L 60.2539 35.903C 60.8061 35.903 61.2539 35.4553 61.2539 34.903L 60.2539 34.903ZM 60.1445 34.903L 60.1445 33.903C 59.9687 33.903 59.796 33.9494 59.6438 34.0374L 60.1445 34.903ZM 30.0722 52.2998L 29.5715 53.1654C 29.8813 53.3446 30.2632 53.3446 30.573 53.1654L 30.0722 52.2998ZM -6.67442e-06 34.903L -1.00001 34.903C -1.00001 35.26 -0.809734 35.5898 -0.500753 35.7686L -6.67442e-06 34.903ZM -6.67442e-06 -6.67809e-06L -6.67442e-06 -1.00001C -0.552291 -1.00001 -1.00001 -0.552291 -1.00001 -6.67809e-06L -6.67442e-06 -6.67809e-06ZM 59.2539 -6.67809e-06L 59.2539 34.903L 61.2539 34.903L 61.2539 -6.67809e-06L 59.2539 -6.67809e-06ZM 60.2539 33.903L 60.1445 33.903L 60.1445 35.903L 60.2539 35.903L 60.2539 33.903ZM 59.6438 34.0374L 29.5715 51.4342L 30.573 53.1654L 60.6453 35.7686L 59.6438 34.0374ZM 30.573 51.4342L 0.50074 34.0374L -0.500753 35.7686L 29.5715 53.1654L 30.573 51.4342ZM 0.999993 34.903L 0.999993 -6.67809e-06L -1.00001 -6.67809e-06L -1.00001 34.903L 0.999993 34.903ZM -6.67442e-06 0.999993L 60.2539 0.999993L 60.2539 -1.00001L -6.67442e-06 -1.00001L -6.67442e-06 0.999993Z"/>
<path id="path64_fill" d="M 30.0722 34.7936L 60.2539 17.2874L 30.291 6.67809e-06L -6.67442e-06 17.3968L 30.0722 34.7936Z"/>
<path id="path65_stroke" d="M 30.0722 34.7936L 29.5715 35.6592C 29.8816 35.8386 30.2641 35.8384 30.574 35.6586L 30.0722 34.7936ZM 60.2539 17.2874L 60.7556 18.1524C 61.0644 17.9733 61.2543 17.6432 61.2539 17.2862C 61.2535 16.9293 61.0628 16.5996 60.7536 16.4212L 60.2539 17.2874ZM 30.291 6.67809e-06L 30.7907 -0.866165C 30.4821 -1.04425 30.102 -1.04463 29.7929 -0.867153L 30.291 6.67809e-06ZM -6.67442e-06 17.3968L -0.498036 16.5296C -0.808061 16.7077 -0.999445 17.0377 -1.00001 17.3952C -1.00057 17.7527 -0.810218 18.0834 -0.500753 18.2624L -6.67442e-06 17.3968ZM 30.574 35.6586L 60.7556 18.1524L 59.7521 16.4224L 29.5705 33.9286L 30.574 35.6586ZM 60.7536 16.4212L 30.7907 -0.866165L 29.7912 0.866179L 59.7541 18.1535L 60.7536 16.4212ZM 29.7929 -0.867153L -0.498036 16.5296L 0.498023 18.264L 30.789 0.867167L 29.7929 -0.867153ZM -0.500753 18.2624L 29.5715 35.6592L 30.573 33.928L 0.500739 16.5312L -0.500753 18.2624Z"/>
<path id="path66_stroke" d="M 44.4372 0.871668C 44.9186 0.600989 45.0895 -0.00869581 44.8188 -0.490101C 44.5481 -0.971507 43.9384 -1.14233 43.457 -0.871655L 44.4372 0.871668ZM 6.00139 21.3357L 5.51128 20.464L 5.50758 20.4661L 6.00139 21.3357ZM 6.22012 42.1243L 5.74024 43.0017L 5.7424 43.0028L 6.22012 42.1243ZM 35.924 59.4149C 36.4092 59.6787 37.0164 59.4993 37.2802 59.0141C 37.5441 58.5289 37.3646 57.9217 36.8794 57.6579L 35.924 59.4149ZM 43.457 -0.871655L 5.51129 20.464L 6.4915 22.2074L 44.4372 0.871668L 43.457 -0.871655ZM 5.50758 20.4661C -3.27075 25.4512 -3.1434 38.1426 5.74024 43.0017L 6.69999 41.247C -0.819419 37.1341 -0.910799 26.411 6.49521 22.2053L 5.50758 20.4661ZM 5.7424 43.0028L 35.924 59.4149L 36.8794 57.6579L 6.69783 41.2458L 5.7424 43.0028Z"/>
<path id="path67_stroke" d="M 0.478667 -0.877993C -0.00623853 -1.14235 -0.613636 -0.96356 -0.877993 -0.478654C -1.14235 0.00625188 -0.96356 0.61365 -0.478654 0.878007L 0.478667 -0.877993ZM 34.1183 18.6004L 33.6397 19.4784L 33.6416 19.4794L 34.1183 18.6004ZM 79.1721 137.095L 79.6806 136.234L 79.6796 136.234L 79.1721 137.095ZM 151.274 180.847C 151.75 181.128 152.363 180.97 152.644 180.494C 152.925 180.019 152.767 179.406 152.292 179.125L 151.274 180.847ZM -0.478654 0.878007L 33.6397 19.4784L 34.597 17.7224L 0.478667 -0.877993L -0.478654 0.878007ZM 33.6416 19.4794C 47.642 27.0716 56.3013 41.7224 56.3013 57.6611L 58.3013 57.6611C 58.3013 40.9945 49.2453 25.6659 34.595 17.7213L 33.6416 19.4794ZM 56.3013 57.6611L 56.3013 98.8007L 58.3013 98.8007L 58.3013 57.6611L 56.3013 57.6611ZM 56.3013 98.8007C 56.3013 114.91 64.7991 129.79 78.6645 137.957L 79.6796 136.234C 66.4253 128.427 58.3013 114.203 58.3013 98.8007L 56.3013 98.8007ZM 78.6635 137.957L 151.274 180.847L 152.292 179.125L 79.6806 136.234L 78.6635 137.957Z"/>
<path id="path68_stroke" d="M 87.5318 0.873786C 88.0144 0.605204 88.1879 -0.00373169 87.9193 -0.48631C 87.6507 -0.968889 87.0418 -1.14237 86.5592 -0.873786L 87.5318 0.873786ZM 69.5489 9.73782L 70.0233 10.6183L 70.0352 10.6116L 69.5489 9.73782ZM 51.3962 70.4625L 51.9511 69.6306L 51.9458 69.627L 51.3962 70.4625ZM 0.549566 35.8182C 0.0881598 35.5147 -0.531933 35.6427 -0.83545 36.1041C -1.13897 36.5655 -1.01097 37.1856 -0.549566 37.4891L 0.549566 35.8182ZM 86.5592 -0.873786L 69.0626 8.86404L 70.0352 10.6116L 87.5318 0.873786L 86.5592 -0.873786ZM 69.0746 8.85746C 65.8874 10.5746 64.0654 13.8795 64.0654 17.3968L 66.0654 17.3968C 66.0654 14.568 67.5241 11.9646 70.0232 10.6182L 69.0746 8.85746ZM 64.0654 17.3968L 64.0654 63.1317L 66.0654 63.1317L 66.0654 17.3968L 64.0654 17.3968ZM 64.0654 63.1317C 64.0654 69.3488 57.1806 73.1188 51.9511 69.6306L 50.8413 71.2944C 57.422 75.684 66.0654 70.9197 66.0654 63.1317L 64.0654 63.1317ZM 51.9458 69.627L 0.549566 35.8182L -0.549566 37.4891L 50.8467 71.2979L 51.9458 69.627Z"/>
<path id="path69_fill" d="M 60.2539 0L 60.2539 34.903L 60.0352 34.903L 30.0723 52.2998L 1.33488e-05 34.903L 1.33488e-05 0L 60.2539 0Z"/>
<path id="path70_stroke" d="M 60.2539 0L 61.2539 0C 61.2539 -0.552285 60.8061 -1 60.2539 -1L 60.2539 0ZM 60.2539 34.903L 60.2539 35.903C 60.8061 35.903 61.2539 35.4553 61.2539 34.903L 60.2539 34.903ZM 60.0352 34.903L 60.0352 33.903C 59.8588 33.903 59.6856 33.9496 59.5331 34.0382L 60.0352 34.903ZM 30.0723 52.2998L 29.5715 53.1654C 29.8818 53.3449 30.2644 53.3446 30.5744 53.1646L 30.0723 52.2998ZM 1.33488e-05 34.903L -0.999987 34.903C -0.999987 35.26 -0.809713 35.5898 -0.500733 35.7686L 1.33488e-05 34.903ZM 1.33488e-05 0L 1.33488e-05 -1C -0.552271 -1 -0.999987 -0.552285 -0.999987 2.22045e-16L 1.33488e-05 0ZM 59.2539 0L 59.2539 34.903L 61.2539 34.903L 61.2539 0L 59.2539 0ZM 60.2539 33.903L 60.0352 33.903L 60.0352 35.903L 60.2539 35.903L 60.2539 33.903ZM 59.5331 34.0382L 29.5702 51.435L 30.5744 53.1646L 60.5373 35.7678L 59.5331 34.0382ZM 30.573 51.4342L 0.500759 34.0374L -0.500733 35.7686L 29.5715 53.1654L 30.573 51.4342ZM 1.00001 34.903L 1.00001 0L -0.999987 0L -0.999987 34.903L 1.00001 34.903ZM 1.33488e-05 1L 60.2539 1L 60.2539 -1L 1.33488e-05 -1L 1.33488e-05 1Z"/>
<path id="path71_fill" d="M 30.0723 34.903L 60.2539 17.3968L 30.1816 6.67809e-06L 1.33488e-05 17.5062L 30.0723 34.903Z"/>
<path id="path72_stroke" d="M 30.0723 34.903L 29.5715 35.7686C 29.8817 35.948 30.2641 35.9478 30.574 35.768L 30.0723 34.903ZM 60.2539 17.3968L 60.7556 18.2618C 61.0642 18.0828 61.2541 17.753 61.2539 17.3962C 61.2536 17.0395 61.0634 16.7098 60.7546 16.5312L 60.2539 17.3968ZM 30.1816 6.67809e-06L 30.6823 -0.865588C 30.3722 -1.045 29.9898 -1.04478 29.6799 -0.865013L 30.1816 6.67809e-06ZM 1.33488e-05 17.5062L -0.501724 16.6412C -0.810323 16.8202 -1.00019 17.15 -0.999986 17.5068C -0.999782 17.8635 -0.809536 18.1932 -0.500733 18.3718L 1.33488e-05 17.5062ZM 30.574 35.768L 60.7556 18.2618L 59.7521 16.5318L 29.5705 34.038L 30.574 35.768ZM 60.7546 16.5312L 30.6823 -0.865588L 29.6808 0.865601L 59.7531 18.2624L 60.7546 16.5312ZM 29.6799 -0.865013L -0.501724 16.6412L 0.501751 18.3712L 30.6833 0.865027L 29.6799 -0.865013ZM -0.500733 18.3718L 29.5715 35.7686L 30.573 34.0374L 0.500759 16.6406L -0.500733 18.3718Z"/>
<path id="path73_stroke" d="M 31.7856 197.258C 32.2605 196.976 32.417 196.362 32.1351 195.887C 31.8532 195.412 31.2397 195.256 30.7648 195.538L 31.7856 197.258ZM 5.46767 211.716L 5.97003 212.58L 5.97808 212.576L 5.46767 211.716ZM 17.1685 265.11L 16.6384 264.262L 16.6339 264.265L 17.1685 265.11ZM 109.572 207.339L 110.102 208.187L 110.108 208.184L 109.572 207.339ZM 120.18 31.4018L 119.657 30.5494C 119.653 30.552 119.649 30.5545 119.644 30.5571L 120.18 31.4018ZM 171.88 0.852342C 172.351 0.563506 172.498 -0.0522492 172.21 -0.522985C 171.921 -0.99372 171.305 -1.14118 170.834 -0.852342L 171.88 0.852342ZM 30.7648 195.538L 4.95726 210.856L 5.97808 212.576L 31.7856 197.258L 30.7648 195.538ZM 4.96533 210.851C 1.25703 213.005 -1.00001 217.061 -1.00001 221.344L 0.999987 221.344C 0.999987 217.749 2.89838 214.365 5.97001 212.58L 4.96533 210.851ZM -1.00001 221.344L -1.00001 255.591L 0.999987 255.591L 0.999987 221.344L -1.00001 221.344ZM -1.00001 255.591C -1.00001 265.236 9.59683 271.084 17.7032 265.955L 16.6339 264.265C 9.86812 268.545 0.999987 263.671 0.999987 255.591L -1.00001 255.591ZM 17.6986 265.958L 110.102 208.187L 109.042 206.491L 16.6384 264.262L 17.6986 265.958ZM 110.108 208.184C 113.678 205.921 115.821 201.992 115.821 197.82L 113.821 197.82C 113.821 201.308 112.028 204.599 109.037 206.494L 110.108 208.184ZM 115.821 197.82L 115.821 41.0302L 113.821 41.0302L 113.821 197.82L 115.821 197.82ZM 115.821 41.0302C 115.821 37.4471 117.712 34.1492 120.715 32.2465L 119.644 30.5571C 116.086 32.8121 113.821 36.7355 113.821 41.0302L 115.821 41.0302ZM 120.703 32.2541L 171.88 0.852342L 170.834 -0.852342L 119.657 30.5494L 120.703 32.2541Z"/>
<path id="path74_fill" d="M 60.2539 -6.67809e-06L 60.2539 34.903L 60.0351 34.903L 30.0723 52.2998L 2.66977e-05 34.903L 2.66977e-05 -6.67809e-06L 60.2539 -6.67809e-06Z"/>
<path id="path75_stroke" d="M 60.2539 -6.67809e-06L 61.2539 -6.67809e-06C 61.2539 -0.552291 60.8061 -1.00001 60.2539 -1.00001L 60.2539 -6.67809e-06ZM 60.2539 34.903L 60.2539 35.903C 60.8061 35.903 61.2539 35.4553 61.2539 34.903L 60.2539 34.903ZM 60.0351 34.903L 60.0351 33.903C 59.8588 33.903 59.6855 33.9496 59.533 34.0382L 60.0351 34.903ZM 30.0723 52.2998L 29.5715 53.1654C 29.8818 53.3449 30.2644 53.3446 30.5744 53.1646L 30.0723 52.2998ZM 2.66977e-05 34.903L -0.999973 34.903C -0.999973 35.26 -0.8097 35.5898 -0.50072 35.7686L 2.66977e-05 34.903ZM 2.66977e-05 -6.67809e-06L 2.66977e-05 -1.00001C -0.552258 -1.00001 -0.999973 -0.552291 -0.999973 -6.67809e-06L 2.66977e-05 -6.67809e-06ZM 59.2539 -6.67809e-06L 59.2539 34.903L 61.2539 34.903L 61.2539 -6.67809e-06L 59.2539 -6.67809e-06ZM 60.2539 33.903L 60.0351 33.903L 60.0351 35.903L 60.2539 35.903L 60.2539 33.903ZM 59.533 34.0382L 29.5702 51.435L 30.5744 53.1646L 60.5373 35.7678L 59.533 34.0382ZM 30.573 51.4342L 0.500773 34.0374L -0.50072 35.7686L 29.5715 53.1654L 30.573 51.4342ZM 1.00003 34.903L 1.00003 -6.67809e-06L -0.999973 -6.67809e-06L -0.999973 34.903L 1.00003 34.903ZM 2.66977e-05 0.999993L 60.2539 0.999993L 60.2539 -1.00001L 2.66977e-05 -1.00001L 2.66977e-05 0.999993Z"/>
<path id="path76_stroke" d="M 150.978 0.86188C 151.454 0.58181 151.613 -0.0311087 151.333 -0.507112C 151.052 -0.983115 150.44 -1.14195 149.964 -0.86188L 150.978 0.86188ZM 7.65478 84.0298L 8.15762 84.8942L 8.16189 84.8917L 7.65478 84.0298ZM 7.54539 249.463L 8.0609 248.607C 8.05669 248.604 8.05246 248.602 8.04822 248.599L 7.54539 249.463ZM 109.572 310.845L 110.09 309.989L 110.088 309.988L 109.572 310.845ZM 124.663 389.513L 124.146 390.369L 124.15 390.371L 124.663 389.513ZM 146.971 402.862L 147.49 402.007L 147.485 402.004L 146.971 402.862ZM 171.482 338.308C 171.482 337.755 171.035 337.308 170.482 337.308C 169.93 337.308 169.482 337.755 169.482 338.308L 171.482 338.308ZM 149.964 -0.86188L 7.14767 83.1679L 8.16189 84.8917L 150.978 0.86188L 149.964 -0.86188ZM 7.15196 83.1654C 2.14042 86.0807 -0.999973 91.5533 -0.999973 97.3783L 1.00003 97.3783C 1.00003 92.2619 3.76473 87.4496 8.15761 84.8942L 7.15196 83.1654ZM -0.999973 97.3783L -0.999973 236.224L 1.00003 236.224L 1.00003 97.3783L -0.999973 97.3783ZM -0.999973 236.224C -0.999973 242.043 2.02593 247.41 7.04256 250.328L 8.04822 248.599C 3.66043 246.047 1.00003 241.347 1.00003 236.224L -0.999973 236.224ZM 7.02987 250.32L 109.057 311.702L 110.088 309.988L 8.0609 248.607L 7.02987 250.32ZM 109.055 311.7C 113.462 314.367 116.118 319.078 116.118 324.084L 118.118 324.084C 118.118 318.367 115.087 313.012 110.09 309.989L 109.055 311.7ZM 116.118 324.084L 116.118 376.165L 118.118 376.165L 118.118 324.084L 116.118 324.084ZM 116.118 376.165C 116.118 381.987 119.145 387.344 124.146 390.369L 125.181 388.658C 120.777 385.993 118.118 381.284 118.118 376.165L 116.118 376.165ZM 124.15 390.371L 146.458 403.72L 147.485 402.004L 125.177 388.655L 124.15 390.371ZM 146.453 403.717C 157.403 410.361 171.482 402.432 171.482 389.513L 169.482 389.513C 169.482 400.884 157.098 407.836 147.49 402.007L 146.453 403.717ZM 171.482 389.513L 171.482 338.308L 169.482 338.308L 169.482 389.513L 171.482 389.513Z"/>
<path id="path77_fill" d="M 60.2539 -1.33562e-05L 60.2539 34.903L 60.0352 34.903L 29.9629 52.2998L 1.33488e-05 34.903L 1.33488e-05 -1.33562e-05L 60.2539 -1.33562e-05Z"/>
<path id="path78_stroke" d="M 60.2539 -1.33562e-05L 61.2539 -1.33562e-05C 61.2539 -0.552298 60.8061 -1.00001 60.2539 -1.00001L 60.2539 -1.33562e-05ZM 60.2539 34.903L 60.2539 35.903C 60.8061 35.903 61.2539 35.4553 61.2539 34.903L 60.2539 34.903ZM 60.0352 34.903L 60.0352 33.903C 59.8593 33.903 59.6866 33.9494 59.5344 34.0374L 60.0352 34.903ZM 29.9629 52.2998L 29.4608 53.1646C 29.7708 53.3446 30.1534 53.3449 30.4637 53.1654L 29.9629 52.2998ZM 1.33488e-05 34.903L -0.999987 34.903C -0.999987 35.2594 -0.81031 35.5889 -0.5021 35.7678L 1.33488e-05 34.903ZM 1.33488e-05 -1.33562e-05L 1.33488e-05 -1.00001C -0.552271 -1.00001 -0.999987 -0.552298 -0.999987 -1.33562e-05L 1.33488e-05 -1.33562e-05ZM 59.2539 -1.33562e-05L 59.2539 34.903L 61.2539 34.903L 61.2539 -1.33562e-05L 59.2539 -1.33562e-05ZM 60.2539 33.903L 60.0352 33.903L 60.0352 35.903L 60.2539 35.903L 60.2539 33.903ZM 59.5344 34.0374L 29.4622 51.4342L 30.4637 53.1654L 60.5359 35.7686L 59.5344 34.0374ZM 30.465 51.435L 0.502127 34.0382L -0.5021 35.7678L 29.4608 53.1646L 30.465 51.435ZM 1.00001 34.903L 1.00001 -1.33562e-05L -0.999987 -1.33562e-05L -0.999987 34.903L 1.00001 34.903ZM 1.33488e-05 0.999987L 60.2539 0.999987L 60.2539 -1.00001L 1.33488e-05 -1.00001L 1.33488e-05 0.999987Z"/>
<path id="path79_fill" d="M 29.9629 34.903L 60.2539 17.3968L 30.1816 -6.67809e-06L 1.33488e-05 17.5062L 29.9629 34.903Z"/>
<path id="path80_stroke" d="M 29.9629 34.903L 29.4608 35.7678C 29.7706 35.9477 30.1531 35.9481 30.4633 35.7688L 29.9629 34.903ZM 60.2539 17.3968L 60.7542 18.2626C 61.0634 18.0839 61.2538 17.754 61.2539 17.397C 61.2539 17.04 61.0636 16.71 60.7546 16.5312L 60.2539 17.3968ZM 30.1816 -6.67809e-06L 30.6823 -0.865601C 30.3722 -1.04501 29.9898 -1.04479 29.6799 -0.865027L 30.1816 -6.67809e-06ZM 1.33488e-05 17.5062L -0.501724 16.6412C -0.810078 16.82 -0.999909 17.1495 -0.999987 17.506C -1.00006 17.8625 -0.810377 18.192 -0.5021 18.371L 1.33488e-05 17.5062ZM 30.4633 35.7688L 60.7542 18.2626L 59.7535 16.531L 29.4625 34.0372L 30.4633 35.7688ZM 60.7546 16.5312L 30.6823 -0.865601L 29.6808 0.865588L 59.7531 18.2624L 60.7546 16.5312ZM 29.6799 -0.865027L -0.501724 16.6412L 0.501751 18.3712L 30.6833 0.865013L 29.6799 -0.865027ZM -0.5021 18.371L 29.4608 35.7678L 30.465 34.0382L 0.502127 16.6414L -0.5021 18.371Z"/>
<path id="path81_stroke" d="M 177.418 216.302C 177.897 216.578 178.508 216.414 178.784 215.936C 179.061 215.458 178.897 214.846 178.419 214.57L 177.418 216.302ZM 29.1974 129.546L 28.6925 130.409L 28.6973 130.412L 29.1974 129.546ZM 7.32668 4.92364L 6.7689 5.75365L 6.77504 5.75771L 7.32668 4.92364ZM 0.557775 -0.829983C 0.0993808 -1.13803 -0.521943 -1.01615 -0.82999 -0.557755C -1.13804 -0.0993607 -1.01616 0.521963 -0.557762 0.83001L 0.557775 -0.829983ZM 178.419 214.57L 29.6975 128.68L 28.6973 130.412L 177.418 216.302L 178.419 214.57ZM 29.7023 128.683C 22.8915 124.699 18.606 117.473 18.606 109.523L 16.606 109.523C 16.606 118.205 21.2873 126.078 28.6925 130.409L 29.7023 128.683ZM 18.606 109.523L 18.606 24.1804L 16.606 24.1804L 16.606 109.523L 18.606 109.523ZM 18.606 24.1804C 18.606 16.082 14.6148 8.54495 7.87833 4.08956L 6.77504 5.75771C 12.9423 9.8366 16.606 16.7421 16.606 24.1804L 18.606 24.1804ZM 7.88445 4.09364L 0.557775 -0.829983L -0.557762 0.83001L 6.76891 5.75363L 7.88445 4.09364Z"/>
<path id="path82_stroke" d="M 300.311 283.579C 300.782 283.867 301.398 283.718 301.685 283.246C 301.973 282.775 301.824 282.16 301.353 281.872L 300.311 283.579ZM 252.279 253.074L 252.8 252.221L 252.798 252.22L 252.279 253.074ZM 198.914 290.822L 199.428 289.964L 199.425 289.962L 198.914 290.822ZM 8.63894 177.688L 9.15001 176.828L 9.14847 176.828L 8.63894 177.688ZM 0.999999 -1.33562e-05C 0.999999 -0.552298 0.552284 -1.00001 -8.34302e-07 -1.00001C -0.552286 -1.00001 -1 -0.552298 -1 -1.33562e-05L 0.999999 -1.33562e-05ZM 301.353 281.872L 252.8 252.221L 251.758 253.928L 300.311 283.579L 301.353 281.872ZM 252.798 252.22C 240.437 244.706 224.487 253.6 224.487 268.064L 226.487 268.064C 226.487 255.174 240.719 247.218 251.76 253.929L 252.798 252.22ZM 224.487 268.064L 224.487 275.723L 226.487 275.723L 226.487 268.064L 224.487 268.064ZM 224.487 275.723C 224.487 288.624 210.461 296.567 199.428 289.964L 198.401 291.68C 210.769 299.082 226.487 290.175 226.487 275.723L 224.487 275.723ZM 199.425 289.962L 9.15001 176.828L 8.12787 178.548L 198.403 291.681L 199.425 289.962ZM 9.14847 176.828C 4.09381 173.834 0.999999 168.362 0.999999 162.589L -1 162.589C -1 169.07 2.46741 175.196 8.12941 178.548L 9.14847 176.828ZM 0.999999 162.589L 0.999999 -1.33562e-05L -1 -1.33562e-05L -1 162.589L 0.999999 162.589Z"/>
<path id="path83_stroke" d="M -0.474616 154.706C -0.960733 154.968 -1.14232 155.575 -0.880193 156.061C -0.618069 156.547 -0.0115008 156.729 0.474616 156.467L -0.474616 154.706ZM 73.0483 116.197L 73.5229 117.078L 73.5308 117.073L 73.0483 116.197ZM 89.9045 1.33562e-05C 89.9045 -0.552271 89.4568 -0.999987 88.9045 -0.999987C 88.3522 -0.999987 87.9045 -0.552271 87.9045 1.33562e-05L 89.9045 1.33562e-05ZM 0.474616 156.467L 73.5229 117.078L 72.5736 115.317L -0.474616 154.706L 0.474616 156.467ZM 73.5308 117.073C 83.5807 111.537 89.9045 100.918 89.9045 89.3911L 87.9045 89.3911C 87.9045 100.185 81.9808 110.135 72.5658 115.322L 73.5308 117.073ZM 89.9045 89.3911L 89.9045 1.33562e-05L 87.9045 1.33562e-05L 87.9045 89.3911L 89.9045 89.3911Z"/>
<path id="path84_stroke" d="M -0.538026 109.009C -1.00356 109.306 -1.14007 109.924 -0.842928 110.39C -0.545785 110.855 0.0724894 110.992 0.538026 110.694L -0.538026 109.009ZM 31.7126 89.6099L 32.2506 90.4529L 32.2584 90.4478L 31.7126 89.6099ZM 46.1473 3.17303L 45.5696 2.35674L 45.5638 2.36086L 46.1473 3.17303ZM 51.2084 0.816262C 51.6592 0.497217 51.766 -0.126873 51.447 -0.577682C 51.128 -1.02849 50.5039 -1.13531 50.0531 -0.816262L 51.2084 0.816262ZM 0.538026 110.694L 32.2506 90.4529L 31.1745 88.767L -0.538026 109.009L 0.538026 110.694ZM 32.2584 90.4478C 37.2372 87.204 40.258 81.7499 40.258 75.8238L 38.258 75.8238C 38.258 81.0578 35.5923 85.8887 31.1667 88.7721L 32.2584 90.4478ZM 40.258 75.8238L 40.258 16.5215L 38.258 16.5215L 38.258 75.8238L 40.258 75.8238ZM 40.258 16.5215C 40.258 11.4913 42.7199 6.8663 46.7307 3.9852L 45.5638 2.36086C 41.045 5.60693 38.258 10.8291 38.258 16.5215L 40.258 16.5215ZM 46.7249 3.98929L 51.2084 0.816262L 50.0531 -0.816262L 45.5696 2.35677L 46.7249 3.98929Z"/>
<path id="path85_stroke" d="M -0.505191 603.429C -0.981816 603.708 -1.14201 604.321 -0.863002 604.798C -0.583991 605.274 0.0285725 605.434 0.505197 605.155L -0.505191 603.429ZM 268.026 447.393L 268.531 448.256L 268.536 448.253L 268.026 447.393ZM 277.758 324.303L 278.255 325.171L 278.257 325.17L 277.758 324.303ZM 387.221 261.39L 386.725 260.521L 386.723 260.523L 387.221 261.39ZM 387.112 65.32L 386.633 66.1977L 386.64 66.2014L 387.112 65.32ZM 326.202 32.0583L 326.681 31.1806L 326.678 31.1788L 326.202 32.0583ZM 325.983 15.0991L 326.487 15.9628L 326.488 15.9622L 325.983 15.0991ZM 352.296 0.863126C 352.772 0.584229 352.933 -0.0282962 352.654 -0.504988C 352.375 -0.981679 351.762 -1.14202 351.286 -0.863126L 352.296 0.863126ZM 0.505197 605.155L 268.531 448.256L 267.521 446.53L -0.505191 603.429L 0.505197 605.155ZM 268.536 448.253C 271.787 446.326 273.837 442.829 273.837 438.968L 271.837 438.968C 271.837 442.11 270.17 444.959 267.516 446.533L 268.536 448.253ZM 273.837 438.968L 273.837 332.727L 271.837 332.727L 271.837 438.968L 273.837 438.968ZM 273.837 332.727C 273.837 329.59 275.5 326.746 278.255 325.171L 277.262 323.434C 273.893 325.361 271.837 328.862 271.837 332.727L 273.837 332.727ZM 278.257 325.17L 387.72 262.257L 386.723 260.523L 277.26 323.436L 278.257 325.17ZM 387.718 262.258C 391.087 260.332 393.142 256.83 393.142 252.965L 391.142 252.965C 391.142 256.102 389.48 258.946 386.725 260.521L 387.718 262.258ZM 393.142 252.965L 393.142 73.8543L 391.142 73.8543L 391.142 252.965L 393.142 252.965ZM 393.142 73.8543C 393.142 69.8824 390.978 66.2574 387.584 64.4387L 386.64 66.2014C 389.37 67.6651 391.142 70.605 391.142 73.8543L 393.142 73.8543ZM 387.591 64.4424L 326.681 31.1806L 325.723 32.9359L 386.633 66.1977L 387.591 64.4424ZM 326.678 31.1788C 320.702 27.9442 320.591 19.4042 326.487 15.9628L 325.479 14.2355C 318.253 18.453 318.361 28.951 325.726 32.9377L 326.678 31.1788ZM 326.488 15.9622L 352.296 0.863126L 351.286 -0.863126L 325.478 14.236L 326.488 15.9622Z"/>
<path id="path86_stroke" d="M 87.5318 0.873799C 88.0144 0.605218 88.1879 -0.00371843 87.9193 -0.486297C 87.6507 -0.968876 87.0418 -1.14235 86.5592 -0.873773L 87.5318 0.873799ZM 69.5489 9.73784L 70.0233 10.6183L 70.0352 10.6116L 69.5489 9.73784ZM 51.3962 70.4625L 51.9511 69.6306L 51.9458 69.6271L 51.3962 70.4625ZM 0.549566 35.8182C 0.0881597 35.5147 -0.531933 35.6427 -0.83545 36.1041C -1.13897 36.5655 -1.01097 37.1856 -0.549566 37.4891L 0.549566 35.8182ZM 86.5592 -0.873773L 69.0626 8.86405L 70.0352 10.6116L 87.5318 0.873799L 86.5592 -0.873773ZM 69.0746 8.85747C 65.8874 10.5746 64.0654 13.8795 64.0654 17.3968L 66.0654 17.3968C 66.0654 14.5681 67.5241 11.9647 70.0232 10.6182L 69.0746 8.85747ZM 64.0654 17.3968L 64.0654 63.1318L 66.0654 63.1318L 66.0654 17.3968L 64.0654 17.3968ZM 64.0654 63.1318C 64.0654 69.3488 57.1806 73.1188 51.9511 69.6306L 50.8413 71.2944C 57.422 75.684 66.0654 70.9197 66.0654 63.1318L 64.0654 63.1318ZM 51.9458 69.6271L 0.549566 35.8182L -0.549566 37.4891L 50.8467 71.298L 51.9458 69.6271Z"/>
</defs>
</svg>
