<svg width="78" height="16" viewBox="0 0 78 16" version="1.1" xmlns="http://www.w3.org/2000/svg" xmlns:xlink="http://www.w3.org/1999/xlink">
<title>linkedin</title>
<desc>Created using Figma</desc>
<g id="Canvas" transform="translate(-6724 -6307)">
<clipPath id="clip-0" clip-rule="evenodd">
<path d="M 6724 6307L 6802 6307L 6802 6323L 6724 6323L 6724 6307Z" fill="#FFFFFF"/>
</clipPath>
<g id="linkedin" clip-path="url(#clip-0)">
<g id="linkedin">
<g id="LinkedIn">
<use xlink:href="#path0_fill" transform="translate(6748 6307)" fill="#9797A7"/>
</g>
<g id="Group 15.1">
<g id="linkedin">
<g id="Group">
<g id="Vector" filter="url(#filter0_d)">
<use xlink:href="#path1_fill" transform="translate(6726 6307)" fill="#9797A7"/>
</g>
</g>
<g id="Group">
<g id="Vector">
<use xlink:href="#path2_fill" transform="translate(6728.42 6309.43)" fill="#FFFFFF"/>
</g>
<g id="Vector">
<use xlink:href="#path3_fill" transform="translate(6728.6 6313.13)" fill="#FFFFFF"/>
</g>
<g id="Vector">
<use xlink:href="#path4_fill" transform="translate(6732.37 6312.94)" fill="#FFFFFF"/>
</g>
</g>
</g>
</g>
</g>
</g>
</g>
<defs>
<filter id="filter0_d" filterUnits="userSpaceOnUse" x="6626" y="6257" width="216" height="216" color-interpolation-filters="sRGB">
<feFlood flood-opacity="0" result="BackgroundImageFix"/>
<feColorMatrix in="SourceAlpha" type="matrix" values="0 0 0 0 0 0 0 0 0 0 0 0 0 0 0 0 0 0 255 0"/>
<feOffset dx="0" dy="50"/>
<feGaussianBlur stdDeviation="50"/>
<feColorMatrix type="matrix" values="0 0 0 0 0.184314 0 0 0 0 0.501961 0 0 0 0 0.929412 0 0 0 0.35 0"/>
<feBlend mode="normal" in2="BackgroundImageFix" result="effect1_dropShadow"/>
<feBlend mode="normal" in="SourceGraphic" in2="effect1_dropShadow" result="shape"/>
</filter>
<path id="path0_fill" d="M 3.15 14C 2.49667 14 1.988 13.846 1.624 13.538C 1.26 13.2207 1.078 12.684 1.078 11.928L 1.078 3.696L 2.198 3.696L 2.198 11.774C 2.198 12.2313 2.30533 12.5487 2.52 12.726C 2.73467 12.894 3.024 12.978 3.388 12.978L 7.084 12.978L 7.084 14L 3.15 14ZM 8.68317 5.194C 8.61784 5.194 8.56184 5.17533 8.51517 5.138C 8.47784 5.09133 8.45917 5.03533 8.45917 4.97L 8.45917 3.878C 8.45917 3.72867 8.53384 3.654 8.68317 3.654L 9.46717 3.654C 9.60717 3.654 9.67717 3.72867 9.67717 3.878L 9.67717 4.97C 9.67717 5.11933 9.60717 5.194 9.46717 5.194L 8.68317 5.194ZM 8.51517 6.524L 9.62117 6.524L 9.62117 14L 8.51517 14L 8.51517 6.524ZM 11.7554 6.524L 12.6234 6.524L 12.8614 7.35C 13.2534 7.07933 13.6874 6.85533 14.1634 6.678C 14.6394 6.49133 15.1154 6.398 15.5914 6.398C 16.3661 6.398 16.9447 6.636 17.3274 7.112C 17.7101 7.588 17.9014 8.19 17.9014 8.918L 17.9014 14L 16.7954 14L 16.7954 9.044C 16.7954 8.55867 16.6554 8.16667 16.3754 7.868C 16.1047 7.56 15.7267 7.406 15.2414 7.406C 14.7934 7.406 14.3921 7.46667 14.0374 7.588C 13.6921 7.7 13.3001 7.882 12.8614 8.134L 12.8614 14L 11.7554 14L 11.7554 6.524ZM 19.9859 3.318L 21.0919 3.318L 21.0919 9.506L 22.1559 9.506L 24.4379 6.524L 25.6139 6.524L 22.9819 10.01L 25.7819 14L 24.6059 14L 22.1139 10.5L 21.0919 10.5L 21.0919 14L 19.9859 14L 19.9859 3.318ZM 29.9239 14.084C 29.1212 14.084 28.4959 13.9673 28.0479 13.734C 27.6092 13.5007 27.2919 13.1087 27.0959 12.558C 26.8999 12.0073 26.8019 11.2373 26.8019 10.248C 26.8019 9.24933 26.8999 8.47467 27.0959 7.924C 27.3012 7.37333 27.6279 6.986 28.0759 6.762C 28.5239 6.538 29.1446 6.426 29.9379 6.426C 30.6192 6.426 31.1652 6.50067 31.5759 6.65C 31.9866 6.79933 32.2899 7.056 32.4859 7.42C 32.6819 7.77467 32.7799 8.26933 32.7799 8.904C 32.7799 9.53867 32.5932 10.0007 32.2199 10.29C 31.8559 10.57 31.3332 10.71 30.6519 10.71L 27.9079 10.71C 27.9172 11.354 27.9826 11.8533 28.1039 12.208C 28.2252 12.5533 28.4492 12.81 28.7759 12.978C 29.1026 13.1367 29.5739 13.216 30.1899 13.216L 32.5979 13.216L 32.5979 13.888C 32.0939 13.9533 31.6459 14 31.2539 14.028C 30.8619 14.0653 30.4186 14.084 29.9239 14.084ZM 30.5539 9.982C 30.9832 9.982 31.2959 9.90267 31.4919 9.744C 31.6879 9.58533 31.7859 9.31 31.7859 8.918C 31.7859 8.29267 31.6459 7.86333 31.3659 7.63C 31.0952 7.38733 30.6192 7.266 29.9379 7.266C 29.3966 7.266 28.9812 7.34533 28.6919 7.504C 28.4026 7.66267 28.1972 7.93333 28.0759 8.316C 27.9546 8.69867 27.8939 9.254 27.8939 9.982L 30.5539 9.982ZM 37.0641 14.084C 36.1401 14.084 35.4588 13.7807 35.0201 13.174C 34.5908 12.5673 34.3761 11.6153 34.3761 10.318C 34.3761 9.38467 34.4695 8.63333 34.6561 8.064C 34.8428 7.49467 35.1415 7.07933 35.5521 6.818C 35.9628 6.55667 36.5135 6.426 37.2041 6.426C 37.9135 6.426 38.6788 6.57533 39.5001 6.874L 39.5001 3.318L 40.6061 3.318L 40.6061 14L 39.7101 14L 39.5001 13.244C 39.2761 13.44 38.9168 13.6313 38.4221 13.818C 37.9275 13.9953 37.4748 14.084 37.0641 14.084ZM 37.3861 13.174C 37.7781 13.174 38.1375 13.118 38.4641 13.006C 38.8001 12.8847 39.1455 12.7307 39.5001 12.544L 39.5001 7.658C 39.0615 7.52733 38.7021 7.434 38.4221 7.378C 38.1515 7.322 37.8435 7.294 37.4981 7.294C 37.0035 7.294 36.6115 7.38733 36.3221 7.574C 36.0328 7.75133 35.8181 8.05467 35.6781 8.484C 35.5475 8.91333 35.4821 9.51067 35.4821 10.276C 35.4821 11.3213 35.6268 12.068 35.9161 12.516C 36.2055 12.9547 36.6955 13.174 37.3861 13.174ZM 42.7089 3.696L 43.8289 3.696L 43.8289 14L 42.7089 14L 42.7089 3.696ZM 45.9761 6.524L 46.8441 6.524L 47.0821 7.35C 47.4741 7.07933 47.9081 6.85533 48.3841 6.678C 48.8601 6.49133 49.3361 6.398 49.8121 6.398C 50.5868 6.398 51.1654 6.636 51.5481 7.112C 51.9308 7.588 52.1221 8.19 52.1221 8.918L 52.1221 14L 51.0161 14L 51.0161 9.044C 51.0161 8.55867 50.8761 8.16667 50.5961 7.868C 50.3254 7.56 49.9474 7.406 49.4621 7.406C 49.0141 7.406 48.6128 7.46667 48.2581 7.588C 47.9128 7.7 47.5208 7.882 47.0821 8.134L 47.0821 14L 45.9761 14L 45.9761 6.524Z"/>
<path id="path1_fill" d="M 13 0L 3 0C 1.34315 0 0 1.34315 0 3L 0 13C 0 14.6569 1.34315 16 3 16L 13 16C 14.6569 16 16 14.6569 16 13L 16 3C 16 1.34315 14.6569 0 13 0Z"/>
<path id="path2_fill" d="M 1.34844 2.64848e-07C 2.08126 0.000597108 2.68565 0.605866 2.68407 1.34234C 2.68232 2.11349 2.04236 2.69471 1.33942 2.67797C 0.62644 2.6924 -0.000140406 2.09689 2.78874e-08 1.33725C 2.78874e-08 0.600495 0.606744 -0.00056147 1.34844 2.64848e-07Z"/>
<path id="path3_fill" d="M 1.93904 7.43597L 0.368954 7.43597C 0.165185 7.43597 -1.26428e-07 7.27078 -1.26428e-07 7.06701L -1.26428e-07 0.368954C -1.26428e-07 0.165185 0.165185 1.84285e-07 0.368954 1.84285e-07L 1.93904 1.84285e-07C 2.14281 1.84285e-07 2.30799 0.165185 2.30799 0.368954L 2.30799 7.06705C 2.30796 7.27078 2.14281 7.43597 1.93904 7.43597Z"/>
<path id="path4_fill" d="M 7.21029 2.54255C 7.21029 1.13836 6.07197 -2.31428e-07 4.66774 -2.31428e-07L 4.26504 -2.31428e-07C 3.4968 -2.31428e-07 2.81808 0.383314 2.40984 0.969203C 2.36532 1.03307 2.32411 1.09939 2.28626 1.16785C 2.27317 1.16588 2.26541 1.16486 2.26523 1.16521L 2.26523 0.343045C 2.26523 0.258468 2.19666 0.189866 2.11205 0.189866L 0.153178 0.189866C 0.0686019 0.189866 -2.31428e-07 0.258433 -2.31428e-07 0.343045L -2.31428e-07 7.47276C -2.31428e-07 7.55734 0.0685317 7.6259 0.153108 7.62594L 2.15467 7.62643C 2.23929 7.62646 2.30789 7.55786 2.30789 7.47325L 2.30789 3.35422C 2.30789 2.64223 2.87577 2.05103 3.58773 2.04299C 3.95117 2.03889 4.28067 2.18452 4.51814 2.42213C 4.75249 2.65634 4.89738 2.98018 4.89738 3.33772L 4.89738 7.47378C 4.89738 7.55835 4.96595 7.62692 5.05049 7.62696L 7.05701 7.62745C 7.14162 7.62748 7.21022 7.55888 7.21022 7.47427L 7.21022 2.54255L 7.21029 2.54255Z"/>
</defs>
</svg>
