<svg width="144" height="15" viewBox="0 0 144 15" version="1.1" xmlns="http://www.w3.org/2000/svg" xmlns:xlink="http://www.w3.org/1999/xlink">
<title>Vector</title>
<desc>Created using Figma</desc>
<g id="Canvas" transform="translate(-4381 533)">
<g id="Vector">
<use xlink:href="#path0_fill" transform="translate(4381.81 -532.446)" fill="#3193F5"/>
<use xlink:href="#path1_fill" transform="translate(4381.81 -532.446)" fill="#3193F5"/>
<use xlink:href="#path2_fill" transform="translate(4381.81 -532.446)" fill="#3193F5"/>
<use xlink:href="#path3_fill" transform="translate(4381.81 -532.446)" fill="#3193F5"/>
<use xlink:href="#path4_fill" transform="translate(4381.81 -532.446)" fill="#3193F5"/>
<use xlink:href="#path5_fill" transform="translate(4381.81 -532.446)" fill="#3193F5"/>
<use xlink:href="#path6_fill" transform="translate(4381.81 -532.446)" fill="#3193F5"/>
<use xlink:href="#path7_fill" transform="translate(4381.81 -532.446)" fill="#3193F5"/>
<use xlink:href="#path8_fill" transform="translate(4381.81 -532.446)" fill="#3193F5"/>
<use xlink:href="#path9_fill" transform="translate(4381.81 -532.446)" fill="#3193F5"/>
<use xlink:href="#path10_fill" transform="translate(4381.81 -532.446)" fill="#3193F5"/>
<use xlink:href="#path11_fill" transform="translate(4381.81 -532.446)" fill="#3193F5"/>
</g>
</g>
<defs>
<path id="path0_fill" d="M 5.49 13.554C 4.182 13.554 3.138 13.38 2.358 13.032C 1.578 12.684 0.989998 12.024 0.593998 11.052C 0.197998 10.08 0 8.664 0 6.804C 0 4.944 0.197998 3.528 0.593998 2.556C 1.002 1.572 1.596 0.9 2.376 0.54C 3.156 0.18 4.194 0 5.49 0C 6.798 0 7.836 0.18 8.604 0.54C 9.384 0.9 9.972 1.572 10.368 2.556C 10.764 3.528 10.962 4.944 10.962 6.804C 10.962 8.664 10.764 10.08 10.368 11.052C 9.972 12.024 9.384 12.684 8.604 13.032C 7.836 13.38 6.798 13.554 5.49 13.554ZM 5.49 11.16C 6.246 11.16 6.816 11.052 7.2 10.836C 7.596 10.608 7.878 10.188 8.046 9.576C 8.214 8.952 8.298 8.028 8.298 6.804C 8.298 5.532 8.214 4.59 8.046 3.978C 7.878 3.354 7.596 2.934 7.2 2.718C 6.816 2.502 6.246 2.394 5.49 2.394C 4.746 2.394 4.176 2.502 3.78 2.718C 3.396 2.934 3.114 3.354 2.934 3.978C 2.754 4.602 2.664 5.544 2.664 6.804C 2.664 8.04 2.748 8.964 2.916 9.576C 3.084 10.188 3.36 10.608 3.744 10.836C 4.14 11.052 4.722 11.16 5.49 11.16Z"/>
<path id="path1_fill" d="M 12.9279 0.126L 18.5439 0.126C 19.6599 0.126 20.5779 0.438 21.2979 1.062C 22.0179 1.686 22.3779 2.898 22.3779 4.698C 22.3779 7.818 21.1359 9.378 18.6519 9.378C 18.2679 9.378 17.7699 9.348 17.1579 9.288C 16.5459 9.216 16.0239 9.15 15.5919 9.09L 15.5919 13.446L 12.9279 13.446L 12.9279 0.126ZM 18.2379 6.984C 18.7179 6.984 19.0779 6.804 19.3179 6.444C 19.5699 6.084 19.6959 5.508 19.6959 4.716C 19.6959 3.252 19.2279 2.52 18.2919 2.52L 15.5919 2.52L 15.5919 6.984L 18.2379 6.984Z"/>
<path id="path2_fill" d="M 27.3476 13.536C 26.4836 13.536 25.7276 13.344 25.0796 12.96C 24.4316 12.576 24.1076 11.79 24.1076 10.602L 24.1076 3.168C 24.1076 2.088 24.4016 1.314 24.9896 0.846C 25.5896 0.366 26.3096 0.126 27.1496 0.126C 28.9856 0.126 30.9056 0.204 32.9096 0.36L 32.9096 2.592L 27.9416 2.592C 27.1616 2.592 26.7716 2.958 26.7716 3.69L 26.7716 5.616L 32.0456 5.76L 32.0456 7.866L 26.7716 8.01L 26.7716 9.846C 26.7716 10.638 27.1436 11.034 27.8876 11.034L 32.9096 11.034L 32.9096 13.266C 31.3136 13.446 29.4596 13.536 27.3476 13.536Z"/>
<path id="path3_fill" d="M 34.9379 0.126L 37.0799 0.126L 42.6599 8.91L 42.6599 0.126L 45.3239 0.126L 45.3239 13.446L 43.1819 13.446L 37.6199 4.662L 37.6199 13.446L 34.9379 13.446L 34.9379 0.126Z"/>
<path id="path4_fill" d="M 52.1623 0.126L 57.7783 0.126C 58.8943 0.126 59.8123 0.438 60.5323 1.062C 61.2523 1.686 61.6123 2.898 61.6123 4.698C 61.6123 7.818 60.3703 9.378 57.8863 9.378C 57.5023 9.378 57.0043 9.348 56.3923 9.288C 55.7803 9.216 55.2583 9.15 54.8263 9.09L 54.8263 13.446L 52.1623 13.446L 52.1623 0.126ZM 57.4723 6.984C 57.9523 6.984 58.3123 6.804 58.5523 6.444C 58.8043 6.084 58.9303 5.508 58.9303 4.716C 58.9303 3.252 58.4623 2.52 57.5263 2.52L 54.8263 2.52L 54.8263 6.984L 57.4723 6.984Z"/>
<path id="path5_fill" d="M 66.492 13.446C 65.424 13.446 64.632 13.2 64.116 12.708C 63.6 12.216 63.342 11.412 63.342 10.296L 63.342 0.126L 66.006 0.126L 66.006 9.864C 66.006 10.644 66.402 11.034 67.194 11.034L 71.406 11.034L 71.406 13.446L 66.492 13.446Z"/>
<path id="path6_fill" d="M 76.3048 0.126L 79.6708 0.126L 83.8468 13.446L 81.0748 13.446L 80.2288 10.656L 75.6928 10.656L 74.8648 13.446L 72.1288 13.446L 76.3048 0.126ZM 79.5988 8.262L 77.9608 2.412L 76.3228 8.262L 79.5988 8.262Z"/>
<path id="path7_fill" d="M 87.1906 2.52L 83.5366 2.52L 83.5366 0.126L 93.5266 0.126L 93.5266 2.52L 89.8546 2.52L 89.8546 13.446L 87.1906 13.446L 87.1906 2.52Z"/>
<path id="path8_fill" d="M 94.7893 3.168C 94.7893 2.088 95.0833 1.314 95.6713 0.846C 96.2713 0.366 96.9913 0.126 97.8313 0.126C 100.219 0.126 102.139 0.204 103.591 0.36L 103.591 2.592L 98.5693 2.592C 98.2093 2.592 97.9333 2.694 97.7413 2.898C 97.5493 3.09 97.4533 3.342 97.4533 3.654L 97.4533 5.94L 102.727 6.084L 102.727 8.19L 97.4533 8.334L 97.4533 13.446L 94.7893 13.446L 94.7893 3.168Z"/>
<path id="path9_fill" d="M 110.431 13.554C 109.123 13.554 108.079 13.38 107.299 13.032C 106.519 12.684 105.931 12.024 105.535 11.052C 105.139 10.08 104.941 8.664 104.941 6.804C 104.941 4.944 105.139 3.528 105.535 2.556C 105.943 1.572 106.537 0.9 107.317 0.54C 108.097 0.18 109.135 0 110.431 0C 111.739 0 112.777 0.18 113.545 0.54C 114.325 0.9 114.913 1.572 115.309 2.556C 115.705 3.528 115.903 4.944 115.903 6.804C 115.903 8.664 115.705 10.08 115.309 11.052C 114.913 12.024 114.325 12.684 113.545 13.032C 112.777 13.38 111.739 13.554 110.431 13.554ZM 110.431 11.16C 111.187 11.16 111.757 11.052 112.141 10.836C 112.537 10.608 112.819 10.188 112.987 9.576C 113.155 8.952 113.239 8.028 113.239 6.804C 113.239 5.532 113.155 4.59 112.987 3.978C 112.819 3.354 112.537 2.934 112.141 2.718C 111.757 2.502 111.187 2.394 110.431 2.394C 109.687 2.394 109.117 2.502 108.721 2.718C 108.337 2.934 108.055 3.354 107.875 3.978C 107.695 4.602 107.605 5.544 107.605 6.804C 107.605 8.04 107.689 8.964 107.857 9.576C 108.025 10.188 108.301 10.608 108.685 10.836C 109.081 11.052 109.663 11.16 110.431 11.16Z"/>
<path id="path10_fill" d="M 117.869 0.126L 123.377 0.126C 124.553 0.126 125.477 0.444 126.149 1.08C 126.833 1.704 127.175 2.808 127.175 4.392C 127.175 5.508 126.983 6.336 126.599 6.876C 126.227 7.416 125.717 7.824 125.069 8.1L 127.553 13.446L 124.835 13.446L 122.693 8.514C 122.117 8.514 121.397 8.502 120.533 8.478L 120.533 13.446L 117.869 13.446L 117.869 0.126ZM 122.909 6.372C 123.425 6.372 123.821 6.228 124.097 5.94C 124.373 5.64 124.511 5.124 124.511 4.392C 124.511 3.684 124.373 3.198 124.097 2.934C 123.821 2.658 123.425 2.52 122.909 2.52L 120.533 2.52L 120.533 6.372L 122.909 6.372Z"/>
<path id="path11_fill" d="M 140.531 13.446L 139.505 4.734L 137.182 13.446L 134.68 13.446L 132.359 4.842L 131.368 13.446L 128.795 13.446L 130.342 0.126L 132.898 0.126L 135.958 10.332L 139.001 0.126L 141.538 0.126L 143.105 13.446L 140.531 13.446Z"/>
</defs>
</svg>
