<svg width="1334" height="687" viewBox="0 0 1334 687" version="1.1" xmlns="http://www.w3.org/2000/svg" xmlns:xlink="http://www.w3.org/1999/xlink">
<title>video-mask</title>
<desc>Created using Figma</desc>
<g id="Canvas" transform="translate(-8692 -918)">
<clipPath id="clip-0" clip-rule="evenodd">
<path d="M 10026 918L 8692 918L 8692 1605L 10026 1605L 10026 918Z" fill="#FFFFFF"/>
</clipPath>
<g id="video-mask" clip-path="url(#clip-0)">
<g id="Vector">
<use xlink:href="#path0_fill" transform="matrix(-1 0 0 1 9264 980.103)" fill="#FCFCFE"/>
<use xlink:href="#path1_stroke" transform="matrix(-1 0 0 1 9264 980.103)" fill="#E6E6F0"/>
</g>
<g id="Vector">
<use xlink:href="#path2_fill" transform="matrix(-1 0 0 1 9263.67 919.233)" fill="#FCFCFE"/>
<use xlink:href="#path3_stroke" transform="matrix(-1 0 0 1 9263.67 919.233)" fill="#E6E6F0"/>
</g>
<g id="Vector">
<use xlink:href="#path4_fill" transform="matrix(-0.338184 -0.94108 -0.940918 0.338635 8903.62 1272.62)" fill="#FCFCFE"/>
<use xlink:href="#path5_stroke" transform="matrix(-0.338184 -0.94108 -0.940918 0.338635 8903.62 1272.62)" fill="#E6E6F0"/>
</g>
<g id="Vector">
<use xlink:href="#path6_fill" transform="matrix(-0.338184 -0.94108 -0.940918 0.338635 8900.01 1269.56)" fill="#FCFCFE"/>
<use xlink:href="#path7_stroke" transform="matrix(-0.338184 -0.94108 -0.940918 0.338635 8900.01 1269.56)" fill="#E6E6F0"/>
</g>
<g id="Vector">
<use xlink:href="#path8_fill" transform="matrix(-0.338184 -0.94108 -0.940918 0.338635 8879.27 1258.61)" fill="#FCFCFE"/>
<use xlink:href="#path9_stroke" transform="matrix(-0.338184 -0.94108 -0.940918 0.338635 8879.27 1258.61)" fill="#E6E6F0"/>
</g>
<g id="Vector">
<use xlink:href="#path10_fill" transform="matrix(-0.338184 -0.94108 -0.940918 0.338635 8875.67 1255.55)" fill="#FCFCFE"/>
<use xlink:href="#path11_stroke" transform="matrix(-0.338184 -0.94108 -0.940918 0.338635 8875.67 1255.55)" fill="#E6E6F0"/>
</g>
<g id="Vector">
<use xlink:href="#path12_fill" transform="matrix(-0.338184 -0.94108 -0.940918 0.338635 8855.02 1243.88)" fill="#FCFCFE"/>
<use xlink:href="#path13_stroke" transform="matrix(-0.338184 -0.94108 -0.940918 0.338635 8855.02 1243.88)" fill="#E6E6F0"/>
</g>
<g id="Vector">
<use xlink:href="#path14_fill" transform="matrix(-0.338184 -0.94108 -0.940918 0.338635 8851.41 1240.83)" fill="#FCFCFE"/>
<use xlink:href="#path15_stroke" transform="matrix(-0.338184 -0.94108 -0.940918 0.338635 8851.41 1240.83)" fill="#E6E6F0"/>
</g>
<g id="Vector">
<use xlink:href="#path16_fill" transform="matrix(-1 0 0 1 8825.25 1154.55)" fill="#FCFCFE"/>
<use xlink:href="#path17_stroke" transform="matrix(-1 0 0 1 8825.25 1154.55)" fill="#E6E6F0"/>
</g>
<g id="Vector">
<use xlink:href="#path16_fill" transform="matrix(-1 0 0 1 8825.25 1167.57)" fill="#FCFCFE"/>
<use xlink:href="#path17_stroke" transform="matrix(-1 0 0 1 8825.25 1167.57)" fill="#E6E6F0"/>
</g>
<g id="Vector">
<use xlink:href="#path18_fill" transform="matrix(-1 0 0 1 10024 978.628)" fill="#FCFCFE"/>
<use xlink:href="#path19_stroke" transform="matrix(-1 0 0 1 10024 978.628)" fill="#E6E6F0"/>
</g>
<g id="Vector">
<use xlink:href="#path20_fill" transform="matrix(-1 0 0 1 10023.7 919)" fill="#FCFCFE"/>
<use xlink:href="#path21_stroke" transform="matrix(-1 0 0 1 10023.7 919)" fill="#E6E6F0"/>
</g>
<g id="Vector">
<use xlink:href="#path22_fill" transform="matrix(-0.338567 -0.940942 -0.941055 0.338252 9670.59 1265.14)" fill="#FCFCFE"/>
<use xlink:href="#path23_stroke" transform="matrix(-0.338567 -0.940942 -0.941055 0.338252 9670.59 1265.14)" fill="#E6E6F0"/>
</g>
<g id="Vector">
<use xlink:href="#path24_fill" transform="matrix(-0.338567 -0.940942 -0.941055 0.338252 9667.05 1262.15)" fill="#FCFCFE"/>
<use xlink:href="#path25_stroke" transform="matrix(-0.338567 -0.940942 -0.941055 0.338252 9667.05 1262.15)" fill="#E6E6F0"/>
</g>
<g id="Vector">
<use xlink:href="#path26_fill" transform="matrix(-0.338567 -0.940942 -0.941055 0.338252 9646.71 1251.41)" fill="#FCFCFE"/>
<use xlink:href="#path27_stroke" transform="matrix(-0.338567 -0.940942 -0.941055 0.338252 9646.71 1251.41)" fill="#E6E6F0"/>
</g>
<g id="Vector">
<use xlink:href="#path28_fill" transform="matrix(-0.338567 -0.940942 -0.941055 0.338252 9643.17 1248.42)" fill="#FCFCFE"/>
<use xlink:href="#path29_stroke" transform="matrix(-0.338567 -0.940942 -0.941055 0.338252 9643.17 1248.42)" fill="#E6E6F0"/>
</g>
<g id="Vector">
<use xlink:href="#path30_fill" transform="matrix(-0.338567 -0.940942 -0.941055 0.338252 9622.92 1236.99)" fill="#FCFCFE"/>
<use xlink:href="#path31_stroke" transform="matrix(-0.338567 -0.940942 -0.941055 0.338252 9622.92 1236.99)" fill="#E6E6F0"/>
</g>
<g id="Vector">
<use xlink:href="#path32_fill" transform="matrix(-0.340158 -0.939943 -0.940057 0.339842 9619.04 1234.88)" fill="#FCFCFE"/>
<use xlink:href="#path33_stroke" transform="matrix(-0.340158 -0.939943 -0.940057 0.339842 9619.04 1234.88)" fill="#E6E6F0"/>
</g>
<g id="Vector">
<use xlink:href="#path34_fill" transform="matrix(-1 0 0 1 9593.72 1149.5)" fill="#FCFCFE"/>
<use xlink:href="#path35_stroke" transform="matrix(-1 0 0 1 9593.72 1149.5)" fill="#E6E6F0"/>
</g>
<g id="Vector">
<use xlink:href="#path36_fill" transform="matrix(-1 0 0 1 9593.72 1162.25)" fill="#FCFCFE"/>
<use xlink:href="#path37_stroke" transform="matrix(-1 0 0 1 9593.72 1162.25)" fill="#E6E6F0"/>
</g>
<g id="Vector">
<use xlink:href="#path38_fill" transform="matrix(-1 0 0 1 10024 1335.64)" fill="#FCFCFE"/>
<use xlink:href="#path39_stroke" transform="matrix(-1 0 0 1 10024 1335.64)" fill="#E6E6F0"/>
</g>
<g id="Vector">
<use xlink:href="#path40_fill" transform="matrix(-1 0 0 1 10023.7 1286)" fill="#FCFCFE"/>
<use xlink:href="#path41_stroke" transform="matrix(-1 0 0 1 10023.7 1286)" fill="#E6E6F0"/>
</g>
<g id="Vector">
<use xlink:href="#path42_fill" transform="matrix(-0.338136 -0.941097 -0.940901 0.338683 9730.22 1574.15)" fill="#FCFCFE"/>
<use xlink:href="#path43_stroke" transform="matrix(-0.338136 -0.941097 -0.940901 0.338683 9730.22 1574.15)" fill="#E6E6F0"/>
</g>
<g id="Vector">
<use xlink:href="#path44_fill" transform="matrix(-0.338136 -0.941097 -0.940901 0.338683 9727.28 1571.66)" fill="#FCFCFE"/>
<use xlink:href="#path45_stroke" transform="matrix(-0.338136 -0.941097 -0.940901 0.338683 9727.28 1571.66)" fill="#E6E6F0"/>
</g>
<g id="Vector">
<use xlink:href="#path46_fill" transform="matrix(-0.338136 -0.941097 -0.940901 0.338683 9710.37 1562.72)" fill="#FCFCFE"/>
<use xlink:href="#path47_stroke" transform="matrix(-0.338136 -0.941097 -0.940901 0.338683 9710.37 1562.72)" fill="#E6E6F0"/>
</g>
<g id="Vector">
<use xlink:href="#path48_fill" transform="matrix(-0.338136 -0.941097 -0.940901 0.338683 9707.43 1560.23)" fill="#FCFCFE"/>
<use xlink:href="#path49_stroke" transform="matrix(-0.338136 -0.941097 -0.940901 0.338683 9707.43 1560.23)" fill="#E6E6F0"/>
</g>
<g id="Vector">
<use xlink:href="#path50_fill" transform="matrix(-0.338136 -0.941097 -0.940901 0.338683 9690.6 1550.71)" fill="#FCFCFE"/>
<use xlink:href="#path51_stroke" transform="matrix(-0.338136 -0.941097 -0.940901 0.338683 9690.6 1550.71)" fill="#E6E6F0"/>
</g>
<g id="Vector">
<use xlink:href="#path52_fill" transform="matrix(-0.339726 -0.940099 -0.939901 0.340274 9687.38 1548.96)" fill="#FCFCFE"/>
<use xlink:href="#path53_stroke" transform="matrix(-0.339726 -0.940099 -0.939901 0.340274 9687.38 1548.96)" fill="#E6E6F0"/>
</g>
<g id="Vector">
<use xlink:href="#path54_fill" transform="matrix(-1 0 0 1 9666.33 1477.89)" fill="#FCFCFE"/>
<use xlink:href="#path55_stroke" transform="matrix(-1 0 0 1 9666.33 1477.89)" fill="#E6E6F0"/>
</g>
<g id="Vector">
<use xlink:href="#path56_fill" transform="matrix(-1 0 0 1 9666.33 1488.49)" fill="#FCFCFE"/>
<use xlink:href="#path57_stroke" transform="matrix(-1 0 0 1 9666.33 1488.49)" fill="#E6E6F0"/>
</g>
<g id="Vector">
<use xlink:href="#path58_fill" transform="matrix(-1 0 0 1 9287.76 1399.74)" fill="#FCFCFE"/>
<use xlink:href="#path59_stroke" transform="matrix(-1 0 0 1 9287.76 1399.74)" fill="#E6E6F0"/>
</g>
<g id="Vector">
<use xlink:href="#path60_fill" transform="matrix(-1 0 0 1 9287.76 1389.58)" fill="#FCFCFE"/>
<use xlink:href="#path61_stroke" transform="matrix(-1 0 0 1 9287.76 1389.58)" fill="#E6E6F0"/>
</g>
<g id="Vector">
<use xlink:href="#path62_fill" transform="matrix(-1 0 0 1 9633.7 1194.69)" fill="#FCFCFE"/>
<use xlink:href="#path63_stroke" transform="matrix(-1 0 0 1 9633.7 1194.69)" fill="#E6E6F0"/>
</g>
<g id="Vector">
<use xlink:href="#path64_fill" transform="matrix(-1 0 0 1 9346.96 1201.7)" fill="#FCFCFE"/>
<use xlink:href="#path65_stroke" transform="matrix(-1 0 0 1 9346.96 1201.7)" fill="#E6E6F0"/>
</g>
<g id="Vector">
<use xlink:href="#path66_fill" transform="matrix(-1 0 0 1 9361.19 1209.91)" fill="#FCFCFE"/>
<use xlink:href="#path67_stroke" transform="matrix(-1 0 0 1 9361.19 1209.91)" fill="#E6E6F0"/>
</g>
<g id="Vector">
<use xlink:href="#path68_fill" transform="matrix(-1 0 0 1 9375.46 1218.15)" fill="#FCFCFE"/>
<use xlink:href="#path69_stroke" transform="matrix(-1 0 0 1 9375.46 1218.15)" fill="#E6E6F0"/>
</g>
<g id="Vector">
<use xlink:href="#path70_fill" transform="matrix(-1 0 0 1 9633.7 1176.72)" fill="#FCFCFE"/>
<use xlink:href="#path71_stroke" transform="matrix(-1 0 0 1 9633.7 1176.72)" fill="#E6E6F0"/>
</g>
<g id="Vector">
<use xlink:href="#path72_fill" transform="matrix(-1 0 0 1 9633.7 1161.27)" fill="#FCFCFE"/>
<use xlink:href="#path73_stroke" transform="matrix(-1 0 0 1 9633.7 1161.27)" fill="#E6E6F0"/>
</g>
<g id="Vector">
<use xlink:href="#path74_fill" transform="matrix(-1 0 0 1 9613.65 1318.37)" fill="#FCFCFE"/>
<use xlink:href="#path75_stroke" transform="matrix(-1 0 0 1 9613.65 1318.37)" fill="#E6E6F0"/>
</g>
<g id="Vector">
<use xlink:href="#path76_stroke" transform="matrix(-1 0 0 1 9605.96 1175.73)" fill="#E6E6F0"/>
</g>
<g id="Vector">
<use xlink:href="#path77_fill" transform="matrix(-1 0 0 1 9361.45 1172.76)" fill="#FCFCFE"/>
<use xlink:href="#path78_stroke" transform="matrix(-1 0 0 1 9361.45 1172.76)" fill="#E6E6F0"/>
</g>
<g id="Vector">
<use xlink:href="#path79_fill" transform="matrix(-1 0 0 1 9273.35 1353.95)" fill="#FCFCFE"/>
<use xlink:href="#path80_stroke" transform="matrix(-1 0 0 1 9273.35 1353.95)" fill="#E6E6F0"/>
</g>
<g id="Vector">
<use xlink:href="#path81_fill" transform="matrix(-1 0 0 1 9271.16 1345.74)" fill="#FCFCFE"/>
<use xlink:href="#path82_stroke" transform="matrix(-1 0 0 1 9271.16 1345.74)" fill="#E6E6F0"/>
</g>
<g id="Vector">
<use xlink:href="#path83_fill" transform="matrix(-0.00541049 -0.999985 -0.999985 0.00541049 9257.8 1386.4)" fill="#FCFCFE"/>
<use xlink:href="#path84_stroke" transform="matrix(-0.00541049 -0.999985 -0.999985 0.00541049 9257.8 1386.4)" fill="#E6E6F0"/>
</g>
<g id="Vector">
<use xlink:href="#path85_fill" transform="matrix(-0.00541049 -0.999985 -0.999985 0.00541049 9247.99 1372.7)" fill="#FCFCFE"/>
<use xlink:href="#path86_stroke" transform="matrix(-0.00541049 -0.999985 -0.999985 0.00541049 9247.99 1372.7)" fill="#E6E6F0"/>
</g>
<g id="Vector">
<use xlink:href="#path87_fill" transform="matrix(-1 0 0 1 9190.11 1391.92)" fill="#FCFCFE"/>
<use xlink:href="#path88_stroke" transform="matrix(-1 0 0 1 9190.11 1391.92)" fill="#E6E6F0"/>
</g>
<g id="Vector">
<use xlink:href="#path89_fill" transform="matrix(-0.00541049 -0.999985 -0.999985 0.00541049 9438.53 1370.97)" fill="#FCFCFE"/>
<use xlink:href="#path90_stroke" transform="matrix(-0.00541049 -0.999985 -0.999985 0.00541049 9438.53 1370.97)" fill="#E6E6F0"/>
</g>
<g id="path0 fill">
<use xlink:href="#path91_fill" transform="matrix(-1 0 0 1 9432.05 1268)" fill="#FCFCFE"/>
<use xlink:href="#path92_stroke" transform="matrix(-1 0 0 1 9432.05 1268)" fill="#E6E6F0"/>
</g>
<g id="Rectangle">
<use xlink:href="#path93_fill" transform="matrix(-1 0 0 1 9447.79 1228.89)" fill="#FCFCFE"/>
<use xlink:href="#path94_stroke" transform="matrix(-1 0 0 1 9447.79 1228.89)" fill="#E6E6F0"/>
</g>
<g id="path0 fill">
<use xlink:href="#path95_fill" transform="matrix(-1 0 0 1 9432.05 1244.75)" fill="#FCFCFE"/>
<use xlink:href="#path96_stroke" transform="matrix(-1 0 0 1 9432.05 1244.75)" fill="#E6E6F0"/>
</g>
<g id="Vector">
<use xlink:href="#path97_fill" transform="matrix(-1 0 0 1 9309.45 1275.78)" fill="#FCFCFE"/>
<use xlink:href="#path98_stroke" transform="matrix(-1 0 0 1 9309.45 1275.78)" fill="#E6E6F0"/>
</g>
<g id="Vector">
<use xlink:href="#path99_fill" transform="matrix(-1 0 0 1 9109.41 1165.68)" fill="#FCFCFE"/>
<use xlink:href="#path100_stroke" transform="matrix(-1 0 0 1 9109.41 1165.68)" fill="#E6E6F0"/>
</g>
<g id="Vector">
<use xlink:href="#path101_fill" transform="matrix(-1 0 0 1 9207.76 1197.13)" fill="#FCFCFE"/>
<use xlink:href="#path102_stroke" transform="matrix(-1 0 0 1 9207.76 1197.13)" fill="#E6E6F0"/>
</g>
<g id="Vector">
<use xlink:href="#path103_fill" transform="matrix(-1 0 0 1 9139.48 1182.96)" fill="#FCFCFE"/>
<use xlink:href="#path104_stroke" transform="matrix(-1 0 0 1 9139.48 1182.96)" fill="#E6E6F0"/>
</g>
<g id="Vector">
<use xlink:href="#path105_fill" transform="matrix(-1 0 0 1 9139.48 1173.26)" fill="#FCFCFE"/>
<use xlink:href="#path106_stroke" transform="matrix(-1 0 0 1 9139.48 1173.26)" fill="#E6E6F0"/>
</g>
<g id="Vector">
<use xlink:href="#path107_fill" transform="matrix(-1 0 0 1 9115.28 1178.62)" fill="#FCFCFE"/>
<use xlink:href="#path108_stroke" transform="matrix(-1 0 0 1 9115.28 1178.62)" fill="#E6E6F0"/>
</g>
<g id="Vector">
<use xlink:href="#path109_fill" transform="matrix(-1 0 0 1 9104.73 1184.96)" fill="#FCFCFE"/>
<use xlink:href="#path110_stroke" transform="matrix(-1 0 0 1 9104.73 1184.96)" fill="#E6E6F0"/>
</g>
</g>
</g>
<defs>
<path id="path0_fill" d="M 319.96 326.426L 4.94853 144.458C -1.87606 140.522 0.345399 100.215 0.345399 76.2405L 223.755 3.74734C 231.631 -0.799134 243.549 -1.25979 250.373 2.64577L 569.708 128.625C 569.988 155.894 571.349 195.48 563.473 200.027L 346.568 325.365C 338.693 329.911 326.825 330.432 319.96 326.426Z"/>
<path id="path1_stroke" d="M 319.96 326.426L 320.464 325.563L 320.46 325.561L 319.96 326.426ZM 4.94853 144.458L 5.44873 143.592L 5.44809 143.591L 4.94853 144.458ZM 0.345399 76.2405L 0.0367566 75.2893L -0.654601 75.5136L -0.654601 76.2405L 0.345399 76.2405ZM 223.755 3.74734L 224.064 4.69851L 224.164 4.66602L 224.255 4.61338L 223.755 3.74734ZM 250.373 2.64577L 249.877 3.51369L 249.939 3.54953L 250.006 3.576L 250.373 2.64577ZM 569.708 128.625L 570.708 128.615L 570.701 127.942L 570.075 127.695L 569.708 128.625ZM 563.473 200.027L 562.974 199.161L 562.973 199.161L 563.473 200.027ZM 346.568 325.365L 347.068 326.231L 347.068 326.231L 346.568 325.365ZM 320.46 325.561L 5.44873 143.592L 4.44833 145.323L 319.46 327.292L 320.46 325.561ZM 5.44809 143.591C 4.89983 143.275 4.2936 142.486 3.72353 141.018C 3.16763 139.586 2.70826 137.673 2.33766 135.352C 1.59727 130.714 1.23611 124.613 1.0875 117.842C 0.789851 104.279 1.3454 88.2918 1.3454 76.2405L -0.654601 76.2405C -0.654601 88.1633 -1.20978 104.317 -0.912015 117.885C -0.762911 124.68 -0.399828 130.891 0.362673 135.667C 0.743518 138.053 1.23025 140.122 1.85914 141.742C 2.47385 143.325 3.29108 144.656 4.44896 145.324L 5.44809 143.591ZM 0.654042 77.1917L 224.064 4.69851L 223.447 2.79616L 0.0367566 75.2893L 0.654042 77.1917ZM 224.255 4.61338C 228.028 2.43517 232.813 1.21619 237.499 1.02622C 242.194 0.83587 246.677 1.68254 249.877 3.51369L 250.87 1.77784C 247.245 -0.296559 242.356 -1.17234 237.418 -0.972137C 232.47 -0.771554 227.358 0.513034 223.255 2.88129L 224.255 4.61338ZM 250.006 3.576L 569.341 129.555L 570.075 127.695L 250.74 1.71554L 250.006 3.576ZM 568.708 128.635C 568.848 142.294 569.257 158.965 568.65 172.803C 568.346 179.724 567.789 185.888 566.83 190.587C 566.35 192.937 565.776 194.882 565.104 196.357C 564.423 197.851 563.694 198.745 562.974 199.161L 563.973 200.893C 565.222 200.172 566.173 198.834 566.924 197.186C 567.683 195.52 568.294 193.413 568.789 190.987C 569.781 186.132 570.343 179.843 570.648 172.891C 571.259 158.981 570.847 142.225 570.708 128.615L 568.708 128.635ZM 562.973 199.161L 346.068 324.499L 347.068 326.231L 563.974 200.892L 562.973 199.161ZM 346.068 324.499C 342.293 326.678 337.52 327.911 332.844 328.104C 328.158 328.296 323.682 327.44 320.464 325.563L 319.456 327.29C 323.103 329.418 327.992 330.305 332.926 330.102C 337.869 329.899 342.968 328.598 347.068 326.231L 346.068 324.499Z"/>
<path id="path2_fill" d="M 319.631 326.44L 4.61926 144.431C -2.20532 140.485 -1.3848 133.605 6.53051 129.049L 223.426 3.75072C 231.301 -0.805766 243.219 -1.25641 250.044 2.64915L 565.055 184.658C 571.87 188.594 571.059 195.474 563.144 200.03L 346.239 325.328C 338.363 329.885 326.495 330.375 319.631 326.44Z"/>
<path id="path3_stroke" d="M 319.631 326.44L 319.13 327.306L 319.133 327.307L 319.631 326.44ZM 4.61926 144.431L 4.11874 145.297L 4.11898 145.297L 4.61926 144.431ZM 6.53051 129.049L 7.02941 129.916L 7.03073 129.915L 6.53051 129.049ZM 223.426 3.75072L 223.926 4.61662L 223.927 4.61628L 223.426 3.75072ZM 250.044 2.64915L 250.544 1.78328L 250.541 1.78122L 250.044 2.64915ZM 565.055 184.658L 564.555 185.524L 564.555 185.524L 565.055 184.658ZM 563.144 200.03L 562.645 199.163L 562.644 199.164L 563.144 200.03ZM 346.239 325.328L 345.738 324.462L 345.738 324.463L 346.239 325.328ZM 320.131 325.574L 5.11954 143.565L 4.11898 145.297L 319.13 327.306L 320.131 325.574ZM 5.11978 143.565C 1.94335 141.729 0.761311 139.362 1.03998 137.091C 1.32803 134.743 3.21477 132.112 7.02941 129.916L 6.03162 128.182C 1.93094 130.543 -0.550231 133.629 -0.94513 136.847C -1.34941 140.142 0.470584 143.187 4.11874 145.297L 5.11978 143.565ZM 7.03073 129.915L 223.926 4.61662L 222.926 2.88482L 6.03029 128.183L 7.03073 129.915ZM 223.927 4.61628C 227.7 2.43353 232.483 1.21461 237.169 1.02586C 241.865 0.836737 246.347 1.68575 249.547 3.51708L 250.541 1.78122C 246.916 -0.293009 242.028 -1.17145 237.089 -0.972521C 232.141 -0.773217 227.028 0.51142 222.925 2.88515L 223.927 4.61628ZM 249.544 3.51501L 564.555 185.524L 565.556 183.792L 250.544 1.78329L 249.544 3.51501ZM 564.555 185.524C 567.726 187.355 568.909 189.72 568.631 191.99C 568.344 194.336 566.46 196.968 562.645 199.163L 563.643 200.897C 567.744 198.536 570.223 195.45 570.616 192.233C 571.019 188.94 569.199 185.896 565.556 183.792L 564.555 185.524ZM 562.644 199.164L 345.738 324.462L 346.739 326.194L 563.644 200.896L 562.644 199.164ZM 345.738 324.463C 341.964 326.646 337.191 327.875 332.514 328.069C 327.828 328.265 323.348 327.418 320.128 325.572L 319.133 327.307C 322.778 329.397 327.665 330.273 332.597 330.068C 337.539 329.862 342.638 328.567 346.739 326.194L 345.738 324.463Z"/>
<path id="path4_fill" d="M 13.7584 15.872C 21.357 15.872 27.5168 12.319 27.5168 7.93602C 27.5168 3.55308 21.357 1.22163e-05 13.7584 1.22163e-05C 6.15985 1.22163e-05 1.4668e-05 3.55308 1.4668e-05 7.93602C 1.4668e-05 12.319 6.15985 15.872 13.7584 15.872Z"/>
<path id="path5_stroke" d="M 26.5168 7.93602C 26.5168 9.6185 25.3262 11.3323 22.9874 12.6814C 20.6751 14.0152 17.4143 14.872 13.7584 14.872L 13.7584 16.872C 17.701 16.872 21.3194 15.9524 23.9867 14.4138C 26.6274 12.8907 28.5168 10.6365 28.5168 7.93602L 26.5168 7.93602ZM 13.7584 14.872C 10.1025 14.872 6.84169 14.0152 4.5294 12.6814C 2.19056 11.3323 1.00001 9.6185 1.00001 7.93602L -0.999985 7.93602C -0.999985 10.6365 0.889387 12.8907 3.5301 14.4138C 6.19736 15.9524 9.81579 16.872 13.7584 16.872L 13.7584 14.872ZM 1.00001 7.93602C 1.00001 6.25353 2.19056 4.53971 4.5294 3.19064C 6.84169 1.85688 10.1025 1.00001 13.7584 1.00001L 13.7584 -0.999988C 9.81579 -0.999988 6.19736 -0.0803256 3.5301 1.45819C 0.889387 2.98138 -0.999985 5.23556 -0.999985 7.93602L 1.00001 7.93602ZM 13.7584 1.00001C 17.4143 1.00001 20.6751 1.85688 22.9874 3.19064C 25.3262 4.53971 26.5168 6.25353 26.5168 7.93602L 28.5168 7.93602C 28.5168 5.23556 26.6274 2.98138 23.9867 1.45819C 21.3194 -0.0803256 17.701 -0.999988 13.7584 -0.999988L 13.7584 1.00001Z"/>
<path id="path6_fill" d="M 9.66292 11.1485C 14.9996 11.1485 19.3259 8.65279 19.3259 5.57423C 19.3259 2.49567 14.9996 -2.44326e-06 9.66292 -2.44326e-06C 4.32624 -2.44326e-06 -1.95574e-05 2.49567 -1.95574e-05 5.57423C -1.95574e-05 8.65279 4.32624 11.1485 9.66292 11.1485Z"/>
<path id="path7_stroke" d="M 18.3259 5.57423C 18.3259 6.60457 17.5937 7.72794 15.996 8.64959C 14.4248 9.55594 12.1879 10.1485 9.66292 10.1485L 9.66292 12.1485C 12.4746 12.1485 15.0692 11.4931 16.9953 10.382C 18.8949 9.28619 20.3259 7.62245 20.3259 5.57423L 18.3259 5.57423ZM 9.66292 10.1485C 7.13794 10.1485 4.90104 9.55594 3.32988 8.64959C 1.73219 7.72794 0.99998 6.60457 0.99998 5.57423L -1.00002 5.57423C -1.00002 7.62245 0.430903 9.28619 2.33051 10.382C 4.25666 11.4931 6.85123 12.1485 9.66292 12.1485L 9.66292 10.1485ZM 0.99998 5.57423C 0.99998 4.54389 1.73219 3.42052 3.32988 2.49886C 4.90104 1.59251 7.13794 0.999998 9.66292 0.999998L 9.66292 -1C 6.85123 -1 4.25666 -0.344682 2.33051 0.766446C 0.430903 1.86227 -1.00002 3.52601 -1.00002 5.57423L 0.99998 5.57423ZM 9.66292 0.999998C 12.1879 0.999998 14.4248 1.59251 15.996 2.49886C 17.5937 3.42052 18.3259 4.54389 18.3259 5.57423L 20.3259 5.57423C 20.3259 3.52601 18.8949 1.86227 16.9953 0.766446C 15.0692 -0.344682 12.4746 -1 9.66292 -1L 9.66292 0.999998Z"/>
<path id="path8_fill" d="M 13.7584 15.872C 21.3569 15.872 27.5167 12.319 27.5167 7.93602C 27.5167 3.55308 21.3569 1.22163e-05 13.7584 1.22163e-05C 6.1598 1.22163e-05 -2.93361e-05 3.55308 -2.93361e-05 7.93602C -2.93361e-05 12.319 6.1598 15.872 13.7584 15.872Z"/>
<path id="path9_stroke" d="M 26.5167 7.93602C 26.5167 9.6185 25.3262 11.3323 22.9874 12.6814C 20.6751 14.0152 17.4143 14.872 13.7584 14.872L 13.7584 16.872C 17.701 16.872 21.3194 15.9524 23.9867 14.4138C 26.6274 12.8907 28.5167 10.6365 28.5167 7.93602L 26.5167 7.93602ZM 13.7584 14.872C 10.1024 14.872 6.84165 14.0152 4.52936 12.6814C 2.19052 11.3323 0.999971 9.6185 0.999971 7.93602L -1.00003 7.93602C -1.00003 10.6365 0.889343 12.8907 3.53006 14.4138C 6.19732 15.9524 9.81574 16.872 13.7584 16.872L 13.7584 14.872ZM 0.999971 7.93602C 0.999971 6.25353 2.19052 4.53971 4.52936 3.19064C 6.84165 1.85688 10.1024 1.00001 13.7584 1.00001L 13.7584 -0.999988C 9.81574 -0.999988 6.19732 -0.0803256 3.53006 1.45819C 0.889343 2.98138 -1.00003 5.23556 -1.00003 7.93602L 0.999971 7.93602ZM 13.7584 1.00001C 17.4143 1.00001 20.6751 1.85688 22.9874 3.19064C 25.3262 4.53971 26.5167 6.25353 26.5167 7.93602L 28.5167 7.93602C 28.5167 5.23556 26.6274 2.98138 23.9867 1.45819C 21.3194 -0.0803256 17.701 -0.999988 13.7584 -0.999988L 13.7584 1.00001Z"/>
<path id="path10_fill" d="M 9.66288 11.1485C 14.9996 11.1485 19.3258 8.65279 19.3258 5.57423C 19.3258 2.49567 14.9996 -2.44326e-06 9.66288 -2.44326e-06C 4.3262 -2.44326e-06 5.86722e-05 2.49567 5.86722e-05 5.57423C 5.86722e-05 8.65279 4.3262 11.1485 9.66288 11.1485Z"/>
<path id="path11_stroke" d="M 18.3258 5.57423C 18.3258 6.60457 17.5936 7.72794 15.9959 8.64959C 14.4248 9.55594 12.1879 10.1485 9.66288 10.1485L 9.66288 12.1485C 12.4746 12.1485 15.0691 11.4931 16.9953 10.382C 18.8949 9.28619 20.3258 7.62245 20.3258 5.57423L 18.3258 5.57423ZM 9.66288 10.1485C 7.13789 10.1485 4.90103 9.55594 3.3299 8.6496C 1.73225 7.72795 1.00006 6.60458 1.00006 5.57423L -0.999941 5.57423C -0.999941 7.62243 0.430935 9.28618 2.33052 10.382C 4.25664 11.4931 6.85118 12.1485 9.66288 12.1485L 9.66288 10.1485ZM 1.00006 5.57423C 1.00006 4.54388 1.73225 3.42051 3.3299 2.49886C 4.90103 1.59251 7.13789 0.999998 9.66288 0.999998L 9.66288 -1C 6.85118 -1 4.25664 -0.344681 2.33052 0.76645C 0.430935 1.86228 -0.999941 3.52602 -0.999941 5.57423L 1.00006 5.57423ZM 9.66288 0.999998C 12.1879 0.999998 14.4248 1.59251 15.9959 2.49886C 17.5936 3.42052 18.3258 4.54389 18.3258 5.57423L 20.3258 5.57423C 20.3258 3.52601 18.8949 1.86227 16.9953 0.766446C 15.0691 -0.344682 12.4746 -1 9.66288 -1L 9.66288 0.999998Z"/>
<path id="path12_fill" d="M 13.7583 15.872C 21.3569 15.872 27.5167 12.3189 27.5167 7.936C 27.5167 3.55307 21.3569 0 13.7583 0C 6.15979 0 -3.91148e-05 3.55307 -3.91148e-05 7.936C -3.91148e-05 12.3189 6.15979 15.872 13.7583 15.872Z"/>
<path id="path13_stroke" d="M 26.5167 7.936C 26.5167 9.61849 25.3262 11.3323 22.9873 12.6814C 20.6751 14.0151 17.4143 14.872 13.7583 14.872L 13.7583 16.872C 17.701 16.872 21.3194 15.9523 23.9866 14.4138C 26.6274 12.8906 28.5167 10.6365 28.5167 7.936L 26.5167 7.936ZM 13.7583 14.872C 10.1024 14.872 6.84164 14.0151 4.52935 12.6814C 2.19051 11.3323 0.999961 9.61849 0.999961 7.936L -1.00004 7.936C -1.00004 10.6365 0.889333 12.8906 3.53005 14.4138C 6.19731 15.9523 9.81573 16.872 13.7583 16.872L 13.7583 14.872ZM 0.999961 7.936C 0.999961 6.25352 2.19051 4.5397 4.52935 3.19063C 6.84164 1.85687 10.1024 1 13.7583 1L 13.7583 -1C 9.81573 -1 6.19731 -0.0803379 3.53005 1.45817C 0.889333 2.98137 -1.00004 5.23555 -1.00004 7.936L 0.999961 7.936ZM 13.7583 1C 17.4143 1 20.6751 1.85687 22.9873 3.19063C 25.3262 4.5397 26.5167 6.25352 26.5167 7.936L 28.5167 7.936C 28.5167 5.23555 26.6274 2.98137 23.9866 1.45817C 21.3194 -0.0803379 17.701 -1 13.7583 -1L 13.7583 1Z"/>
<path id="path14_fill" d="M 9.66287 11.1484C 14.9996 11.1484 19.3258 8.65277 19.3258 5.57421C 19.3258 2.49566 14.9996 -1.46595e-05 9.66287 -1.46595e-05C 4.32619 -1.46595e-05 4.88935e-05 2.49566 4.88935e-05 5.57421C 4.88935e-05 8.65277 4.32619 11.1484 9.66287 11.1484Z"/>
<path id="path15_stroke" d="M 18.3258 5.57421C 18.3258 6.60455 17.5936 7.72793 15.9959 8.64958C 14.4248 9.55593 12.1879 10.1484 9.66287 10.1484L 9.66287 12.1484C 12.4746 12.1484 15.0691 11.4931 16.9953 10.382C 18.8949 9.28618 20.3258 7.62243 20.3258 5.57421L 18.3258 5.57421ZM 9.66287 10.1484C 7.13788 10.1484 4.90102 9.55593 3.3299 8.64959C 1.73224 7.72794 1.00005 6.60457 1.00005 5.57421L -0.999951 5.57421C -0.999951 7.62242 0.430925 9.28617 2.33051 10.382C 4.25663 11.4931 6.85117 12.1484 9.66287 12.1484L 9.66287 10.1484ZM 1.00005 5.57421C 1.00005 4.54386 1.73224 3.42049 3.3299 2.49884C 4.90102 1.5925 7.13788 0.999985 9.66287 0.999985L 9.66287 -1.00001C 6.85117 -1.00001 4.25663 -0.344694 2.33051 0.766438C 0.430925 1.86226 -0.999951 3.52601 -0.999951 5.57421L 1.00005 5.57421ZM 9.66287 0.999985C 12.1879 0.999985 14.4248 1.5925 15.9959 2.49885C 17.5936 3.4205 18.3258 4.54388 18.3258 5.57421L 20.3258 5.57421C 20.3258 3.526 18.8949 1.86225 16.9953 0.766434C 15.0691 -0.344694 12.4746 -1.00001 9.66287 -1.00001L 9.66287 0.999985Z"/>
<path id="path16_fill" d="M 112.325 4.41628L 7.64512 64.9023L -2.44305e-05 60.4761L 104.68 -9.77954e-06L 112.325 4.41628Z"/>
<path id="path17_stroke" d="M 112.325 4.41628L 112.826 5.28213L 114.324 4.41616L 112.826 3.55037L 112.325 4.41628ZM 7.64512 64.9023L 7.14407 65.7678L 7.64463 66.0576L 8.14543 65.7682L 7.64512 64.9023ZM -2.44305e-05 60.4761L -0.500266 59.6102L -1.99745 60.4751L -0.501073 61.3415L -2.44305e-05 60.4761ZM 104.68 -9.77954e-06L 105.18 -0.865919L 104.68 -1.15488L 104.18 -0.865896L 104.68 -9.77954e-06ZM 111.825 3.55043L 7.14482 64.0365L 8.14543 65.7682L 112.826 5.28213L 111.825 3.55043ZM 8.14617 64.0369L 0.501024 59.6106L -0.501073 61.3415L 7.14407 65.7678L 8.14617 64.0369ZM 0.500217 61.3419L 105.18 0.865876L 104.18 -0.865896L -0.500266 59.6102L 0.500217 61.3419ZM 104.18 0.8659L 111.825 5.28219L 112.826 3.55037L 105.18 -0.865919L 104.18 0.8659Z"/>
<path id="path18_fill" d="M 313.785 319.767L 4.86064 141.504C -1.84826 137.637 0.341644 98.1649 0.341644 74.6914L 219.462 3.68675C 227.192 -0.764956 238.874 -1.2565 245.555 2.60165L 558.73 125.951C 558.999 152.661 560.335 191.437 552.615 195.889L 339.879 318.682C 332.205 323.143 320.476 323.625 313.785 319.767Z"/>
<path id="path19_stroke" d="M 313.785 319.767L 313.286 320.633L 313.286 320.633L 313.785 319.767ZM 4.86064 141.504L 5.36044 140.638L 5.36006 140.638L 4.86064 141.504ZM 0.341644 74.6914L 0.0333798 73.7401L -0.658356 73.9643L -0.658356 74.6914L 0.341644 74.6914ZM 219.462 3.68675L 219.77 4.63805L 219.87 4.60569L 219.961 4.55331L 219.462 3.68675ZM 245.555 2.60165L 245.055 3.46763L 245.119 3.50482L 245.189 3.53208L 245.555 2.60165ZM 558.73 125.951L 559.73 125.941L 559.723 125.267L 559.096 125.021L 558.73 125.951ZM 552.615 195.889L 552.115 195.023L 552.115 195.023L 552.615 195.889ZM 339.879 318.682L 339.379 317.816L 339.376 317.817L 339.879 318.682ZM 314.285 318.901L 5.36044 140.638L 4.36084 142.37L 313.286 320.633L 314.285 318.901ZM 5.36006 140.638C 4.82558 140.33 4.2317 139.56 3.67214 138.123C 3.12661 136.722 2.67557 134.849 2.31166 132.576C 1.58464 128.034 1.23038 122.059 1.08506 115.428C 0.793978 102.145 1.34164 86.493 1.34164 74.6914L -0.658356 74.6914C -0.658356 86.3633 -1.20564 102.184 -0.914456 115.472C -0.768637 122.126 -0.412455 128.211 0.336801 132.892C 0.711026 135.23 1.18958 137.259 1.80842 138.848C 2.41322 140.402 3.21848 141.712 4.36122 142.37L 5.36006 140.638ZM 0.649907 75.6427L 219.77 4.63805L 219.154 2.73545L 0.0333798 73.7401L 0.649907 75.6427ZM 219.961 4.55331C 223.663 2.4214 228.353 1.21873 232.943 1.02713C 237.544 0.835129 241.929 1.66252 245.055 3.46763L 246.055 1.73567C 242.5 -0.317374 237.704 -1.17328 232.86 -0.971126C 228.007 -0.768563 222.991 0.500391 218.963 2.82019L 219.961 4.55331ZM 245.189 3.53208L 558.363 126.881L 559.096 125.021L 245.922 1.67122L 245.189 3.53208ZM 557.73 125.961C 557.865 139.341 558.265 155.669 557.669 169.223C 557.371 176.002 556.826 182.038 555.886 186.639C 555.415 188.941 554.854 190.844 554.195 192.286C 553.529 193.748 552.816 194.619 552.115 195.023L 553.114 196.755C 554.344 196.046 555.278 194.731 556.015 193.116C 556.761 191.482 557.359 189.416 557.845 187.04C 558.817 182.283 559.368 176.122 559.667 169.311C 560.266 155.686 559.864 139.271 559.73 125.941L 557.73 125.961ZM 552.115 195.023L 339.379 317.816L 340.379 319.548L 553.115 196.755L 552.115 195.023ZM 339.376 317.817C 335.705 319.952 331.019 321.154 326.422 321.345C 321.815 321.536 317.416 320.706 314.285 318.901L 313.286 320.633C 316.846 322.686 321.656 323.544 326.505 323.343C 331.363 323.142 336.379 321.873 340.381 319.546L 339.376 317.817Z"/>
<path id="path20_fill" d="M 313.441 319.742L 4.51655 141.479C -2.1738 137.621 -1.32938 130.879 6.3724 126.427L 219.118 3.68987C 226.847 -0.771109 238.53 -1.25338 245.211 2.60477L 554.136 180.831C 560.826 184.689 559.991 191.431 552.28 195.892L 339.535 318.666C 331.861 323.118 320.132 323.6 313.441 319.742Z"/>
<path id="path21_stroke" d="M 313.441 319.742L 312.942 320.608L 312.942 320.609L 313.441 319.742ZM 4.51655 141.479L 5.01635 140.613L 5.01611 140.613L 4.51655 141.479ZM 6.3724 126.427L 5.87268 125.561L 5.87197 125.561L 6.3724 126.427ZM 219.118 3.68987L 219.618 4.55606L 219.618 4.55598L 219.118 3.68987ZM 245.211 2.60477L 244.711 3.47075L 244.711 3.47095L 245.211 2.60477ZM 554.136 180.831L 553.636 181.697L 553.636 181.697L 554.136 180.831ZM 552.28 195.892L 552.78 196.758L 552.781 196.758L 552.28 195.892ZM 339.535 318.666L 339.035 317.8L 339.033 317.801L 339.535 318.666ZM 313.941 318.876L 5.01635 140.613L 4.01675 142.346L 312.942 320.608L 313.941 318.876ZM 5.01611 140.613C 1.90917 138.821 0.765643 136.512 1.03984 134.299C 1.3237 132.008 3.16519 129.436 6.87283 127.293L 5.87197 125.561C 1.87783 127.87 -0.553783 130.895 -0.944986 134.053C -1.34586 137.288 0.433585 140.279 4.01699 142.346L 5.01611 140.613ZM 6.87212 127.293L 219.618 4.55606L 218.618 2.82368L 5.87268 125.561L 6.87212 127.293ZM 219.618 4.55598C 223.319 2.41987 228.009 1.21725 232.599 1.02679C 237.199 0.83592 241.585 1.66548 244.711 3.47075L 245.711 1.73879C 242.156 -0.314093 237.36 -1.17247 232.516 -0.971493C 227.663 -0.770115 222.646 0.498887 218.618 2.82376L 219.618 4.55598ZM 244.711 3.47095L 553.636 181.697L 554.636 179.964L 245.711 1.73858L 244.711 3.47095ZM 553.636 181.697C 556.744 183.489 557.889 185.799 557.616 188.013C 557.333 190.305 555.492 192.879 551.779 195.027L 552.781 196.758C 556.779 194.445 559.211 191.417 559.601 188.258C 560.001 185.021 558.219 182.031 554.636 179.964L 553.636 181.697ZM 551.78 195.026L 339.035 317.8L 340.035 319.533L 552.78 196.758L 551.78 195.026ZM 339.033 317.801C 335.361 319.931 330.675 321.132 326.078 321.321C 321.471 321.511 317.072 320.681 313.941 318.876L 312.942 320.609C 316.501 322.661 321.311 323.519 326.16 323.32C 331.019 323.12 336.034 321.853 340.036 319.531L 339.033 317.801Z"/>
<path id="path22_fill" d="M 13.4765 15.5697C 20.9194 15.5697 26.953 12.0843 26.953 7.78482C 26.953 3.48538 20.9194 9.06123e-06 13.4765 9.06123e-06C 6.03363 9.06123e-06 4.52878e-06 3.48538 4.52878e-06 7.78482C 4.52878e-06 12.0843 6.03363 15.5697 13.4765 15.5697Z"/>
<path id="path23_stroke" d="M 25.953 7.78482C 25.953 9.4263 24.7931 11.1022 22.5056 12.4236C 20.2444 13.7298 17.0543 14.5697 13.4765 14.5697L 13.4765 16.5697C 17.3415 16.5697 20.8897 15.6668 23.506 14.1554C 26.0961 12.6593 27.953 10.4428 27.953 7.78482L 25.953 7.78482ZM 13.4765 14.5697C 9.89865 14.5697 6.70855 13.7298 4.44738 12.4236C 2.15992 11.1022 1 9.4263 1 7.78482L -0.999995 7.78482C -0.999995 10.4428 0.856906 12.6593 3.44698 14.1554C 6.06333 15.6668 9.61148 16.5697 13.4765 16.5697L 13.4765 14.5697ZM 1 7.78482C 1 6.14334 2.15992 4.4674 4.44738 3.14603C 6.70855 1.83985 9.89865 1.00001 13.4765 1.00001L 13.4765 -0.999991C 9.61148 -0.999991 6.06333 -0.0971449 3.44698 1.41421C 0.856907 2.91039 -0.999995 5.12685 -0.999995 7.78482L 1 7.78482ZM 13.4765 1.00001C 17.0543 1.00001 20.2444 1.83985 22.5056 3.14603C 24.7931 4.4674 25.953 6.14335 25.953 7.78482L 27.953 7.78482C 27.953 5.12685 26.0961 2.91039 23.506 1.41421C 20.8897 -0.0971449 17.3415 -0.999991 13.4765 -0.999991L 13.4765 1.00001Z"/>
<path id="path24_fill" d="M 9.46972 10.9303C 14.6997 10.9303 18.9394 8.48347 18.9394 5.46515C 18.9394 2.44683 14.6997 9.06123e-06 9.46972 9.06123e-06C 4.23974 9.06123e-06 1.1322e-05 2.44683 1.1322e-05 5.46515C 1.1322e-05 8.48347 4.23974 10.9303 9.46972 10.9303Z"/>
<path id="path25_stroke" d="M 17.9394 5.46515C 17.9394 6.46559 17.2286 7.56167 15.666 8.46349C 14.1298 9.35003 11.9413 9.93031 9.46972 9.93031L 9.46972 11.9303C 12.2281 11.9303 14.7745 11.2872 16.6657 10.1957C 18.5304 9.11952 19.9394 7.48302 19.9394 5.46515L 17.9394 5.46515ZM 9.46972 9.93031C 6.99816 9.93031 4.80963 9.35003 3.27347 8.46349C 1.71086 7.56167 1.00001 6.46559 1.00001 5.46515L -0.999989 5.46515C -0.999989 7.48302 0.409023 9.11952 2.27377 10.1957C 4.16498 11.2872 6.7113 11.9303 9.46972 11.9303L 9.46972 9.93031ZM 1.00001 5.46515C 1.00001 4.4647 1.71086 3.36863 3.27347 2.46682C 4.80963 1.58028 6.99815 1.00001 9.46972 1.00001L 9.46972 -0.999991C 6.7113 -0.999991 4.16498 -0.356852 2.27377 0.734595C 0.409025 1.81077 -0.999989 3.44727 -0.999989 5.46515L 1.00001 5.46515ZM 9.46972 1.00001C 11.9413 1.00001 14.1298 1.58028 15.666 2.46682C 17.2286 3.36863 17.9394 4.4647 17.9394 5.46515L 19.9394 5.46515C 19.9394 3.44727 18.5304 1.81077 16.6657 0.734595C 14.7745 -0.356852 12.2281 -0.999991 9.46972 -0.999991L 9.46972 1.00001Z"/>
<path id="path26_fill" d="M 13.4765 15.5697C 20.9194 15.5697 26.953 12.0843 26.953 7.78482C 26.953 3.48538 20.9194 1.13265e-05 13.4765 1.13265e-05C 6.03364 1.13265e-05 -1.35863e-05 3.48538 -1.35863e-05 7.78482C -1.35863e-05 12.0843 6.03364 15.5697 13.4765 15.5697Z"/>
<path id="path27_stroke" d="M 25.953 7.78482C 25.953 9.4263 24.7931 11.1022 22.5056 12.4236C 20.2444 13.7298 17.0544 14.5697 13.4765 14.5697L 13.4765 16.5697C 17.3415 16.5697 20.8897 15.6668 23.506 14.1554C 26.0961 12.6593 27.953 10.4428 27.953 7.78482L 25.953 7.78482ZM 13.4765 14.5697C 9.89866 14.5697 6.70856 13.7298 4.44737 12.4236C 2.1599 11.1022 0.999986 9.4263 0.999986 7.78482L -1.00001 7.78482C -1.00001 10.4428 0.856898 12.6593 3.44697 14.1554C 6.06333 15.6668 9.61149 16.5697 13.4765 16.5697L 13.4765 14.5697ZM 0.999986 7.78482C 0.999986 6.14335 2.1599 4.46741 4.44737 3.14604C 6.70855 1.83985 9.89866 1.00001 13.4765 1.00001L 13.4765 -0.999989C 9.61149 -0.999989 6.06334 -0.0971426 3.44697 1.41422C 0.856899 2.91039 -1.00001 5.12685 -1.00001 7.78482L 0.999986 7.78482ZM 13.4765 1.00001C 17.0544 1.00001 20.2444 1.83985 22.5056 3.14604C 24.7931 4.46741 25.953 6.14335 25.953 7.78482L 27.953 7.78482C 27.953 5.12686 26.0961 2.91039 23.506 1.41422C 20.8897 -0.0971426 17.3415 -0.999989 13.4765 -0.999989L 13.4765 1.00001Z"/>
<path id="path28_fill" d="M 9.46973 10.9303C 14.6997 10.9303 18.9394 8.48347 18.9394 5.46515C 18.9394 2.44683 14.6997 1.13265e-05 9.46973 1.13265e-05C 4.23975 1.13265e-05 -6.79317e-06 2.44683 -6.79317e-06 5.46515C -6.79317e-06 8.48347 4.23975 10.9303 9.46973 10.9303Z"/>
<path id="path29_stroke" d="M 17.9394 5.46515C 17.9394 6.46559 17.2286 7.56167 15.666 8.46349C 14.1298 9.35004 11.9413 9.93031 9.46973 9.93031L 9.46973 11.9303C 12.2281 11.9303 14.7745 11.2872 16.6657 10.1957C 18.5304 9.11953 19.9394 7.48302 19.9394 5.46515L 17.9394 5.46515ZM 9.46973 9.93031C 6.99817 9.93031 4.80963 9.35004 3.27347 8.46349C 1.71085 7.56167 0.999993 6.46559 0.999993 5.46515L -1.00001 5.46515C -1.00001 7.48303 0.409015 9.11953 2.27377 10.1957C 4.16498 11.2872 6.71131 11.9303 9.46973 11.9303L 9.46973 9.93031ZM 0.999993 5.46515C 0.999993 4.46471 1.71085 3.36863 3.27347 2.46682C 4.80963 1.58028 6.99816 1.00001 9.46973 1.00001L 9.46973 -0.999989C 6.71131 -0.999989 4.16498 -0.35685 2.27377 0.734596C 0.409017 1.81077 -1.00001 3.44727 -1.00001 5.46515L 0.999993 5.46515ZM 9.46973 1.00001C 11.9413 1.00001 14.1298 1.58028 15.666 2.46682C 17.2286 3.36863 17.9394 4.46471 17.9394 5.46515L 19.9394 5.46515C 19.9394 3.44727 18.5304 1.81078 16.6657 0.734597C 14.7745 -0.35685 12.2281 -0.999989 9.46973 -0.999989L 9.46973 1.00001Z"/>
<path id="path30_fill" d="M 13.4765 15.5696C 20.9193 15.5696 26.953 12.0843 26.953 7.78483C 26.953 3.48539 20.9193 -5.66327e-06 13.4765 -5.66327e-06C 6.03363 -5.66327e-06 0 3.48539 0 7.78483C 0 12.0843 6.03363 15.5696 13.4765 15.5696Z"/>
<path id="path31_stroke" d="M 25.953 7.78483C 25.953 9.42631 24.7931 11.1022 22.5056 12.4236C 20.2444 13.7298 17.0543 14.5696 13.4765 14.5696L 13.4765 16.5696C 17.3415 16.5696 20.8897 15.6668 23.506 14.1554C 26.0961 12.6593 27.953 10.4428 27.953 7.78483L 25.953 7.78483ZM 13.4765 14.5696C 9.89864 14.5696 6.70855 13.7298 4.44737 12.4236C 2.15991 11.1022 1 9.42631 1 7.78483L -1 7.78483C -1 10.4428 0.856903 12.6593 3.44697 14.1554C 6.06333 15.6668 9.61148 16.5696 13.4765 16.5696L 13.4765 14.5696ZM 1 7.78483C 1 6.14336 2.15991 4.46741 4.44737 3.14603C 6.70855 1.83984 9.89864 0.999994 13.4765 0.999994L 13.4765 -1.00001C 9.61148 -1.00001 6.06333 -0.0971518 3.44697 1.41422C 0.856901 2.9104 -1 5.12687 -1 7.78483L 1 7.78483ZM 13.4765 0.999994C 17.0543 0.999994 20.2444 1.83984 22.5056 3.14603C 24.7931 4.46741 25.953 6.14336 25.953 7.78483L 27.953 7.78483C 27.953 5.12687 26.0961 2.9104 23.506 1.41422C 20.8897 -0.0971518 17.3415 -1.00001 13.4765 -1.00001L 13.4765 0.999994Z"/>
<path id="path32_fill" d="M 9.46972 10.9303C 14.6997 10.9303 18.9394 8.48347 18.9394 5.46516C 18.9394 2.44684 14.6997 -5.66326e-06 9.46972 -5.66326e-06C 4.23974 -5.66326e-06 6.79317e-06 2.44684 6.79317e-06 5.46516C 6.79317e-06 8.48347 4.23974 10.9303 9.46972 10.9303Z"/>
<path id="path33_stroke" d="M 17.9394 5.46516C 17.9394 6.4656 17.2286 7.56167 15.666 8.46348C 14.1298 9.35002 11.9413 9.93029 9.46972 9.93029L 9.46972 11.9303C 12.2281 11.9303 14.7745 11.2872 16.6657 10.1957C 18.5304 9.11953 19.9394 7.48303 19.9394 5.46516L 17.9394 5.46516ZM 9.46972 9.93029C 6.99815 9.93029 4.80962 9.35002 3.27347 8.46348C 1.71086 7.56167 1.00001 6.4656 1.00001 5.46516L -0.999993 5.46516C -0.999993 7.48303 0.409022 9.11953 2.27377 10.1957C 4.16498 11.2872 6.7113 11.9303 9.46972 11.9303L 9.46972 9.93029ZM 1.00001 5.46516C 1.00001 4.46471 1.71086 3.36863 3.27347 2.46682C 4.80963 1.58027 6.99816 0.999994 9.46972 0.999994L 9.46972 -1.00001C 6.7113 -1.00001 4.16497 -0.35686 2.27377 0.734595C 0.40902 1.81078 -0.999993 3.44728 -0.999993 5.46516L 1.00001 5.46516ZM 9.46972 0.999994C 11.9413 0.999994 14.1298 1.58027 15.666 2.46682C 17.2286 3.36863 17.9394 4.46471 17.9394 5.46516L 19.9394 5.46516C 19.9394 3.44728 18.5304 1.81078 16.6657 0.734595C 14.7745 -0.35686 12.2281 -1.00001 9.46972 -1.00001L 9.46972 0.999994Z"/>
<path id="path34_fill" d="M 110.154 4.32186L 7.49763 63.5574L 2.26544e-06 59.2355L 102.656 -2.26425e-06L 110.154 4.32186Z"/>
<path id="path35_stroke" d="M 110.154 4.32186L 110.654 5.18801L 112.156 4.32142L 110.653 3.45549L 110.154 4.32186ZM 7.49763 63.5574L 6.99822 64.4237L 7.49788 64.7117L 7.99742 64.4235L 7.49763 63.5574ZM 2.26544e-06 59.2355L -0.499788 58.3693L -2.00161 59.2359L -0.499401 60.1019L 2.26544e-06 59.2355ZM 102.656 -2.26425e-06L 103.156 -0.866373L 102.656 -1.15439L 102.157 -0.866149L 102.656 -2.26425e-06ZM 109.654 3.45572L 6.99784 62.6912L 7.99742 64.4235L 110.654 5.18801L 109.654 3.45572ZM 7.99703 62.691L 0.499405 58.3691L -0.499401 60.1019L 6.99822 64.4237L 7.99703 62.691ZM 0.499792 60.1016L 103.156 0.866144L 102.157 -0.866149L -0.499788 58.3693L 0.499792 60.1016ZM 102.157 0.866368L 109.655 5.18823L 110.653 3.45549L 103.156 -0.866373L 102.157 0.866368Z"/>
<path id="path36_fill" d="M 110.154 4.33114L 7.49763 63.5666L 2.26544e-06 59.2448L 102.656 -1.13213e-05L 110.154 4.33114Z"/>
<path id="path37_stroke" d="M 110.154 4.33114L 110.654 5.19728L 112.154 4.33162L 110.654 3.46523L 110.154 4.33114ZM 7.49763 63.5666L 6.99822 64.433L 7.49788 64.721L 7.99742 64.4328L 7.49763 63.5666ZM 2.26544e-06 59.2448L -0.499846 58.3786L -2.0015 59.2453L -0.4994 60.1111L 2.26544e-06 59.2448ZM 102.656 -1.13213e-05L 103.157 -0.865918L 102.657 -1.15473L 102.157 -0.866124L 102.656 -1.13213e-05ZM 109.654 3.46499L 6.99784 62.7005L 7.99742 64.4328L 110.654 5.19728L 109.654 3.46499ZM 7.99703 62.7003L 0.499405 58.3784L -0.4994 60.1111L 6.99822 64.433L 7.99703 62.7003ZM 0.499851 60.1109L 103.156 0.866101L 102.157 -0.866124L -0.499846 58.3786L 0.499851 60.1109ZM 102.156 0.865895L 109.654 5.19704L 110.654 3.46523L 103.157 -0.865918L 102.156 0.865895Z"/>
<path id="path38_fill" d="M 260.839 266.193L 4.04048 117.797C -1.53639 114.577 0.283996 81.7184 0.283996 62.1777L 182.431 3.06907C 188.856 -0.636796 198.568 -1.04598 204.121 2.16577L 464.453 104.849C 464.676 127.084 465.787 159.364 459.37 163.07L 282.529 265.29C 276.15 269.004 266.4 269.405 260.839 266.193Z"/>
<path id="path39_stroke" d="M 260.839 266.193L 260.339 267.059L 260.339 267.059L 260.839 266.193ZM 4.04048 117.797L 4.54082 116.931L 4.54044 116.931L 4.04048 117.797ZM 0.283996 62.1777L -0.0246685 61.2265L -0.716004 61.4509L -0.716004 62.1777L 0.283996 62.1777ZM 182.431 3.06907L 182.74 4.02024L 182.84 3.98781L 182.931 3.93532L 182.431 3.06907ZM 204.121 2.16577L 203.621 3.03144L 203.685 3.0687L 203.755 3.09602L 204.121 2.16577ZM 464.453 104.849L 465.453 104.839L 465.446 104.166L 464.82 103.919L 464.453 104.849ZM 459.37 163.07L 458.869 162.204L 458.869 162.204L 459.37 163.07ZM 282.529 265.29L 282.029 264.424L 282.026 264.426L 282.529 265.29ZM 261.339 265.328L 4.54082 116.931L 3.54014 118.662L 260.339 267.059L 261.339 265.328ZM 4.54044 116.931C 4.1474 116.704 3.67138 116.108 3.20993 114.921C 2.76255 113.771 2.3899 112.225 2.08825 110.338C 1.48575 106.569 1.19143 101.604 1.07067 96.0857C 0.828709 85.0283 1.284 72.0128 1.284 62.1777L -0.716004 62.1777C -0.716004 71.8833 -1.17091 85.0675 -0.92885 96.1295C -0.807595 101.671 -0.511353 106.746 0.113322 110.654C 0.425257 112.605 0.825344 114.307 1.34586 115.646C 1.85231 116.949 2.53934 118.085 3.54052 118.663L 4.54044 116.931ZM 0.592661 63.1289L 182.74 4.02024L 182.122 2.1179L -0.0246685 61.2265L 0.592661 63.1289ZM 182.931 3.93532C 185.98 2.17652 189.851 1.181 193.645 1.02244C 197.448 0.86347 201.059 1.54979 203.621 3.03144L 204.622 1.3001C 201.63 -0.430005 197.608 -1.14497 193.561 -0.975815C 189.505 -0.806254 185.307 0.255758 181.931 2.20282L 182.931 3.93532ZM 203.755 3.09602L 464.086 105.779L 464.82 103.919L 204.488 1.23552L 203.755 3.09602ZM 463.453 104.859C 463.565 116.002 463.898 129.587 463.403 140.864C 463.155 146.505 462.702 151.519 461.923 155.336C 461.533 157.246 461.069 158.817 460.53 160.002C 459.981 161.206 459.407 161.893 458.869 162.204L 459.87 163.936C 460.936 163.32 461.732 162.188 462.35 160.831C 462.977 159.454 463.477 157.721 463.882 155.736C 464.693 151.764 465.152 146.624 465.401 140.952C 465.899 129.604 465.564 115.932 465.453 104.839L 463.453 104.859ZM 458.869 162.204L 282.029 264.424L 283.03 266.156L 459.87 163.936L 458.869 162.204ZM 282.026 264.426C 279.002 266.186 275.135 267.182 271.336 267.34C 267.528 267.498 263.905 266.809 261.339 265.328L 260.339 267.059C 263.334 268.789 267.367 269.506 271.419 269.338C 275.48 269.169 279.677 268.108 283.032 266.154L 282.026 264.426Z"/>
<path id="path40_fill" d="M 260.553 266.173L 3.75445 117.776C -1.807 114.564 -1.10507 108.951 5.29715 105.246L 182.145 3.07167C 188.57 -0.641918 198.282 -1.04339 203.835 2.16837L 460.634 150.534C 466.195 153.746 465.501 159.359 459.091 163.073L 282.243 265.277C 275.864 268.983 266.114 269.385 260.553 266.173Z"/>
<path id="path41_stroke" d="M 260.553 266.173L 260.053 267.039L 260.053 267.039L 260.553 266.173ZM 3.75445 117.776L 4.25479 116.91L 4.25455 116.91L 3.75445 117.776ZM 5.29715 105.246L 4.79689 104.38L 4.79618 104.38L 5.29715 105.246ZM 182.145 3.07167L 182.645 3.93755L 182.645 3.93747L 182.145 3.07167ZM 203.835 2.16837L 203.335 3.03403L 203.335 3.03424L 203.835 2.16837ZM 460.634 150.534L 460.134 151.4L 460.134 151.4L 460.634 150.534ZM 459.091 163.073L 459.592 163.938L 459.592 163.938L 459.091 163.073ZM 282.243 265.277L 281.743 264.412L 281.741 264.413L 282.243 265.277ZM 261.053 265.307L 4.25479 116.91L 3.25411 118.642L 260.053 267.039L 261.053 265.307ZM 4.25455 116.91C 1.71237 115.442 0.814415 113.576 1.03186 111.819C 1.25891 109.984 2.74054 107.881 5.79812 106.111L 4.79618 104.38C 1.45154 106.316 -0.618904 108.873 -0.95301 111.573C -1.29673 114.352 0.235078 116.898 3.25435 118.642L 4.25455 116.91ZM 5.79741 106.111L 182.645 3.93755L 181.645 2.2058L 4.79689 104.38L 5.79741 106.111ZM 182.645 3.93747C 185.694 2.17525 189.565 1.17978 193.359 1.02215C 197.162 0.864127 200.772 1.55222 203.335 3.03403L 204.336 1.3027C 201.345 -0.427247 197.323 -1.14429 193.276 -0.976123C 189.219 -0.807553 185.021 0.254508 181.645 2.20587L 182.645 3.93747ZM 203.335 3.03424L 460.134 151.4L 461.134 149.668L 204.336 1.30249L 203.335 3.03424ZM 460.134 151.4C 462.676 152.869 463.576 154.734 463.359 156.493C 463.133 158.329 461.652 160.434 458.59 162.207L 459.592 163.938C 462.941 161.998 465.011 159.439 465.344 156.738C 465.687 153.958 464.153 151.412 461.134 149.668L 460.134 151.4ZM 458.591 162.207L 281.743 264.412L 282.744 266.143L 459.592 163.938L 458.591 162.207ZM 281.741 264.413C 278.717 266.169 274.849 267.163 271.05 267.32C 267.242 267.477 263.619 266.789 261.053 265.307L 260.053 267.039C 263.048 268.769 267.081 269.486 271.133 269.318C 275.194 269.151 279.391 268.091 282.746 266.142L 281.741 264.413Z"/>
<path id="path42_fill" d="M 11.2168 12.9446C 17.4117 12.9446 22.4336 10.0469 22.4336 6.47231C 22.4336 2.89775 17.4117 7.53352e-06 11.2168 7.53352e-06C 5.02194 7.53352e-06 3.76941e-06 2.89775 3.76941e-06 6.47231C 3.76941e-06 10.0469 5.02194 12.9446 11.2168 12.9446Z"/>
<path id="path43_stroke" d="M 21.4336 6.47231C 21.4336 7.75079 20.5273 9.09867 18.6485 10.1828C 16.7962 11.2516 14.1708 11.9446 11.2168 11.9446L 11.2168 13.9446C 14.4576 13.9446 17.4407 13.1888 19.6481 11.9151C 21.8289 10.6567 23.4336 8.7684 23.4336 6.47231L 21.4336 6.47231ZM 11.2168 11.9446C 8.26277 11.9446 5.63744 11.2516 3.78512 10.1828C 1.9063 9.09867 1 7.75079 1 6.47231L -0.999996 6.47231C -0.999996 8.7684 0.604675 10.6567 2.78554 11.9151C 4.9929 13.1888 7.97597 13.9446 11.2168 13.9446L 11.2168 11.9446ZM 1 6.47231C 1 5.19384 1.9063 3.84596 3.78511 2.76185C 5.63744 1.69302 8.26277 1.00001 11.2168 1.00001L 11.2168 -0.999992C 7.97597 -0.999992 4.9929 -0.244135 2.78554 1.02955C 0.604676 2.28795 -0.999996 4.17623 -0.999996 6.47231L 1 6.47231ZM 11.2168 1.00001C 14.1708 1.00001 16.7962 1.69302 18.6485 2.76185C 20.5273 3.84596 21.4336 5.19384 21.4336 6.47231L 23.4336 6.47231C 23.4336 4.17623 21.8289 2.28795 19.6481 1.02955C 17.4407 -0.244135 14.4576 -0.999992 11.2168 -0.999992L 11.2168 1.00001Z"/>
<path id="path44_fill" d="M 7.88187 9.08748C 12.2349 9.08748 15.7637 7.05317 15.7637 4.54373C 15.7637 2.0343 12.2349 7.53352e-06 7.88187 7.53352e-06C 3.52884 7.53352e-06 9.42353e-06 2.0343 9.42353e-06 4.54373C 9.42353e-06 7.05317 3.52884 9.08748 7.88187 9.08748Z"/>
<path id="path45_stroke" d="M 14.7637 4.54373C 14.7637 5.28918 14.2313 6.15497 12.9558 6.8903C 11.7069 7.61026 9.91515 8.08748 7.88187 8.08748L 7.88187 10.0875C 10.2016 10.0875 12.3508 9.54755 13.9546 8.623C 15.5318 7.71381 16.7637 6.30773 16.7637 4.54373L 14.7637 4.54373ZM 7.88187 8.08748C 5.8486 8.08748 4.05688 7.61026 2.80799 6.8903C 1.53244 6.15497 1.00001 5.28918 1.00001 4.54373L -0.999991 4.54373C -0.999991 6.30773 0.23199 7.71381 1.80912 8.623C 3.4129 9.54755 5.56211 10.0875 7.88187 10.0875L 7.88187 8.08748ZM 1.00001 4.54373C 1.00001 3.79829 1.53244 2.93251 2.80799 2.19718C 4.05687 1.47723 5.8486 1.00001 7.88187 1.00001L 7.88187 -0.999992C 5.56211 -0.999992 3.4129 -0.460067 1.80912 0.464479C 0.231992 1.37366 -0.999991 2.77974 -0.999991 4.54373L 1.00001 4.54373ZM 7.88187 1.00001C 9.91515 1.00001 11.7069 1.47723 12.9558 2.19718C 14.2313 2.93251 14.7637 3.79829 14.7637 4.54373L 16.7637 4.54373C 16.7637 2.77974 15.5318 1.37366 13.9546 0.464479C 12.3508 -0.460067 10.2016 -0.999992 7.88187 -0.999992L 7.88187 1.00001Z"/>
<path id="path46_fill" d="M 11.2168 12.9446C 17.4117 12.9446 22.4336 10.0469 22.4336 6.47232C 22.4336 2.89775 17.4117 9.4169e-06 11.2168 9.4169e-06C 5.02195 9.4169e-06 -1.13082e-05 2.89775 -1.13082e-05 6.47232C -1.13082e-05 10.0469 5.02195 12.9446 11.2168 12.9446Z"/>
<path id="path47_stroke" d="M 21.4336 6.47232C 21.4336 7.75079 20.5273 9.09868 18.6485 10.1828C 16.7962 11.2516 14.1709 11.9446 11.2168 11.9446L 11.2168 13.9446C 14.4576 13.9446 17.4407 13.1888 19.6481 11.9151C 21.8289 10.6567 23.4336 8.7684 23.4336 6.47232L 21.4336 6.47232ZM 11.2168 11.9446C 8.26278 11.9446 5.63745 11.2516 3.78511 10.1828C 1.90629 9.09867 0.999989 7.75079 0.999989 6.47232L -1.00001 6.47232C -1.00001 8.7684 0.604669 10.6567 2.78554 11.9151C 4.9929 13.1888 7.97598 13.9446 11.2168 13.9446L 11.2168 11.9446ZM 0.999989 6.47232C 0.999989 5.19384 1.90629 3.84596 3.78511 2.76185C 5.63744 1.69302 8.26278 1.00001 11.2168 1.00001L 11.2168 -0.999991C 7.97598 -0.999991 4.9929 -0.244133 2.78554 1.02955C 0.60467 2.28795 -1.00001 4.17623 -1.00001 6.47232L 0.999989 6.47232ZM 11.2168 1.00001C 14.1709 1.00001 16.7962 1.69302 18.6485 2.76185C 20.5273 3.84596 21.4336 5.19384 21.4336 6.47232L 23.4336 6.47232C 23.4336 4.17623 21.8289 2.28795 19.6481 1.02955C 17.4407 -0.244133 14.4576 -0.999991 11.2168 -0.999991L 11.2168 1.00001Z"/>
<path id="path48_fill" d="M 7.88188 9.08748C 12.2349 9.08748 15.7637 7.05317 15.7637 4.54374C 15.7637 2.0343 12.2349 9.4169e-06 7.88188 9.4169e-06C 3.52884 9.4169e-06 -5.65412e-06 2.0343 -5.65412e-06 4.54374C -5.65412e-06 7.05317 3.52884 9.08748 7.88188 9.08748Z"/>
<path id="path49_stroke" d="M 14.7637 4.54374C 14.7637 5.28918 14.2313 6.15497 12.9558 6.8903C 11.7069 7.61026 9.91516 8.08748 7.88188 8.08748L 7.88188 10.0875C 10.2016 10.0875 12.3509 9.54755 13.9546 8.623C 15.5318 7.71381 16.7637 6.30773 16.7637 4.54374L 14.7637 4.54374ZM 7.88188 8.08748C 5.84861 8.08748 4.05688 7.61026 2.80798 6.8903C 1.53243 6.15497 0.999994 5.28918 0.999994 4.54374L -1.00001 4.54374C -1.00001 6.30773 0.231985 7.71382 1.80911 8.623C 3.4129 9.54755 5.56212 10.0875 7.88188 10.0875L 7.88188 8.08748ZM 0.999994 4.54374C 0.999994 3.7983 1.53243 2.93251 2.80798 2.19719C 4.05688 1.47723 5.8486 1.00001 7.88188 1.00001L 7.88188 -0.999991C 5.56212 -0.999991 3.41291 -0.460065 1.80912 0.46448C 0.231987 1.37366 -1.00001 2.77974 -1.00001 4.54374L 0.999994 4.54374ZM 7.88188 1.00001C 9.91516 1.00001 11.7069 1.47723 12.9558 2.19719C 14.2313 2.93251 14.7637 3.79829 14.7637 4.54374L 16.7637 4.54374C 16.7637 2.77974 15.5318 1.37366 13.9546 0.464481C 12.3508 -0.460065 10.2016 -0.999991 7.88188 -0.999991L 7.88188 1.00001Z"/>
<path id="path50_fill" d="M 11.2168 12.9446C 17.4117 12.9446 22.4336 10.0469 22.4336 6.47233C 22.4336 2.89776 17.4117 -4.70845e-06 11.2168 -4.70845e-06C 5.02193 -4.70845e-06 0 2.89776 0 6.47233C 0 10.0469 5.02193 12.9446 11.2168 12.9446Z"/>
<path id="path51_stroke" d="M 21.4336 6.47233C 21.4336 7.7508 20.5273 9.09868 18.6485 10.1828C 16.7962 11.2516 14.1708 11.9446 11.2168 11.9446L 11.2168 13.9446C 14.4576 13.9446 17.4407 13.1888 19.6481 11.9151C 21.8289 10.6567 23.4336 8.76841 23.4336 6.47233L 21.4336 6.47233ZM 11.2168 11.9446C 8.26276 11.9446 5.63744 11.2516 3.78511 10.1828C 1.90629 9.09868 1 7.7508 1 6.47233L -1 6.47233C -1 8.76841 0.604673 10.6567 2.78554 11.9151C 4.9929 13.1888 7.97597 13.9446 11.2168 13.9446L 11.2168 11.9446ZM 1 6.47233C 1 5.19385 1.9063 3.84597 3.78511 2.76185C 5.63744 1.69301 8.26277 0.999995 11.2168 0.999995L 11.2168 -1C 7.97597 -1 4.99289 -0.24414 2.78554 1.02955C 0.604671 2.28796 -1 4.17624 -1 6.47233L 1 6.47233ZM 11.2168 0.999995C 14.1708 0.999995 16.7962 1.69301 18.6485 2.76185C 20.5273 3.84597 21.4336 5.19385 21.4336 6.47233L 23.4336 6.47233C 23.4336 4.17624 21.8289 2.28796 19.6481 1.02955C 17.4407 -0.24414 14.4576 -1 11.2168 -1L 11.2168 0.999995Z"/>
<path id="path52_fill" d="M 7.88186 9.08748C 12.2349 9.08748 15.7637 7.05319 15.7637 4.54375C 15.7637 2.03431 12.2349 -4.70846e-06 7.88186 -4.70846e-06C 3.52883 -4.70846e-06 5.65411e-06 2.03431 5.65411e-06 4.54375C 5.65411e-06 7.05319 3.52883 9.08748 7.88186 9.08748Z"/>
<path id="path53_stroke" d="M 14.7637 4.54375C 14.7637 5.28919 14.2313 6.15498 12.9557 6.8903C 11.7069 7.61026 9.91513 8.08748 7.88186 8.08748L 7.88186 10.0875C 10.2016 10.0875 12.3508 9.54755 13.9546 8.62301C 15.5317 7.71383 16.7637 6.30774 16.7637 4.54375L 14.7637 4.54375ZM 7.88186 8.08748C 5.84859 8.08748 4.05687 7.61026 2.80798 6.8903C 1.53244 6.15498 1.00001 5.28919 1.00001 4.54375L -0.999994 4.54375C -0.999994 6.30774 0.231986 7.71383 1.80911 8.62301C 3.41289 9.54755 5.5621 10.0875 7.88186 10.0875L 7.88186 8.08748ZM 1.00001 4.54375C 1.00001 3.7983 1.53244 2.93251 2.80798 2.19718C 4.05687 1.47722 5.84859 0.999995 7.88186 0.999995L 7.88186 -1C 5.5621 -1 3.41289 -0.460072 1.80911 0.464482C 0.231984 1.37367 -0.999994 2.77976 -0.999994 4.54375L 1.00001 4.54375ZM 7.88186 0.999995C 9.91513 0.999995 11.7069 1.47722 12.9557 2.19718C 14.2313 2.93251 14.7637 3.7983 14.7637 4.54375L 16.7637 4.54375C 16.7637 2.77976 15.5317 1.37367 13.9546 0.464482C 12.3508 -0.460072 10.2016 -1 7.88186 -1L 7.88186 0.999995Z"/>
<path id="path54_fill" d="M 91.5672 3.59778L 6.23252 52.909L 1.88318e-06 49.3112L 85.3347 -1.8849e-06L 91.5672 3.59778Z"/>
<path id="path55_stroke" d="M 91.5672 3.59778L 92.0675 4.46362L 93.5667 3.59733L 92.0671 2.73172L 91.5672 3.59778ZM 6.23252 52.909L 5.73257 53.7751L 6.23277 54.0638L 6.73284 53.7748L 6.23252 52.909ZM 1.88318e-06 49.3112L -0.500327 48.4454L -1.99946 49.3117L -0.49994 50.1773L 1.88318e-06 49.3112ZM 85.3347 -1.8849e-06L 85.8346 -0.866062L 85.3344 -1.15481L 84.8343 -0.865837L 85.3347 -1.8849e-06ZM 91.0669 2.73195L 5.73219 52.0432L 6.73284 53.7748L 92.0675 4.46362L 91.0669 2.73195ZM 6.73246 52.0429L 0.499944 48.4452L -0.49994 50.1773L 5.73257 53.7751L 6.73246 52.0429ZM 0.500331 50.177L 85.835 0.865834L 84.8343 -0.865837L -0.500327 48.4454L 0.500331 50.177ZM 84.8347 0.866058L 91.0673 4.46384L 92.0671 2.73172L 85.8346 -0.866062L 84.8347 0.866058Z"/>
<path id="path56_fill" d="M 91.5672 3.6055L 6.23252 52.9167L 1.88318e-06 49.3189L 85.3347 -9.42451e-06L 91.5672 3.6055Z"/>
<path id="path57_stroke" d="M 91.5672 3.6055L 92.0675 4.47134L 93.5651 3.60598L 92.0679 2.73991L 91.5672 3.6055ZM 6.23252 52.9167L 5.73257 53.7828L 6.23277 54.0715L 6.73284 53.7825L 6.23252 52.9167ZM 1.88318e-06 49.3189L -0.500386 48.4531L -1.99934 49.3194L -0.499939 50.185L 1.88318e-06 49.3189ZM 85.3347 -9.42451e-06L 85.8354 -0.865604L 85.3349 -1.15515L 84.8343 -0.865811L 85.3347 -9.42451e-06ZM 91.0669 2.73967L 5.73219 52.0509L 6.73284 53.7825L 92.0675 4.47134L 91.0669 2.73967ZM 6.73246 52.0507L 0.499943 48.4529L -0.499939 50.185L 5.73257 53.7828L 6.73246 52.0507ZM 0.50039 50.1847L 85.8351 0.865792L 84.8343 -0.865811L -0.500386 48.4531L 0.50039 50.1847ZM 84.8339 0.865585L 91.0665 4.4711L 92.0679 2.73991L 85.8354 -0.865604L 84.8339 0.865585Z"/>
<path id="path58_fill" d="M 97.6571 97.9414L 11.5971 48.2414C -5.60287 38.3114 -3.40287 20.9614 16.4171 9.4914C 36.2871 -1.9786 66.3371 -3.22858 83.5471 6.70142L 169.597 56.3914L 97.6571 97.9414Z"/>
<path id="path59_stroke" d="M 97.6571 97.9414L 97.157 98.8074L 97.6572 99.0962L 98.1573 98.8074L 97.6571 97.9414ZM 11.5971 48.2414L 12.0972 47.3754L 12.0971 47.3754L 11.5971 48.2414ZM 16.4171 9.4914L 15.9172 8.62534L 15.9163 8.62589L 16.4171 9.4914ZM 83.5471 6.70142L 84.0472 5.83544L 84.0469 5.83526L 83.5471 6.70142ZM 169.597 56.3914L 170.097 57.2574L 171.597 56.3913L 170.097 55.5254L 169.597 56.3914ZM 98.1572 97.0754L 12.0972 47.3754L 11.097 49.1074L 97.157 98.8074L 98.1572 97.0754ZM 12.0971 47.3754C 3.73598 42.5483 0.303331 36.0696 1.11689 29.5681C 1.9403 22.9879 7.1509 16.0092 16.918 10.3569L 15.9163 8.62589C 5.86337 14.4436 0.0639658 21.8749 -0.867632 29.3197C -1.80907 36.8432 2.25827 44.0045 11.0971 49.1074L 12.0971 47.3754ZM 16.9171 10.3575C 26.6885 4.71687 39.0052 1.57008 51.0212 1.07055C 63.0468 0.570623 74.6566 2.7262 83.0474 7.56758L 84.0469 5.83526C 75.2277 0.746649 63.2075 -1.43779 50.9381 -0.927725C 38.6591 -0.417263 26.0157 2.79593 15.9172 8.62534L 16.9171 10.3575ZM 83.0471 7.56741L 169.097 57.2574L 170.097 55.5254L 84.0472 5.83544L 83.0471 7.56741ZM 169.097 55.5255L 97.157 97.0755L 98.1573 98.8074L 170.097 57.2574L 169.097 55.5255Z"/>
<path id="path60_fill" d="M 97.6571 97.9257L 11.5971 48.2457C -5.60287 38.3157 -3.40287 20.9557 16.4171 9.4857C 36.2871 -1.9843 66.3371 -3.2243 83.5471 6.7057L 169.597 56.3957L 97.6571 97.9257Z"/>
<path id="path61_stroke" d="M 97.6571 97.9257L 97.1572 98.7918L 97.6571 99.0804L 98.1571 98.7918L 97.6571 97.9257ZM 11.5971 48.2457L 11.0971 49.1117L 11.0972 49.1117L 11.5971 48.2457ZM 16.4171 9.4857L 15.9172 8.61963L 15.9163 8.62018L 16.4171 9.4857ZM 83.5471 6.7057L 84.0472 5.83971L 84.0469 5.83954L 83.5471 6.7057ZM 169.597 56.3957L 170.097 57.2617L 171.597 56.3958L 170.097 55.5297L 169.597 56.3957ZM 98.1571 97.0597L 12.0971 47.3796L 11.0972 49.1117L 97.1572 98.7918L 98.1571 97.0597ZM 12.0971 47.3796C 3.7362 42.5527 0.303286 36.0715 1.1169 29.5673C 1.94034 22.9845 7.15108 16.0034 16.918 10.3512L 15.9163 8.62018C 5.86319 14.438 0.0639266 21.8719 -0.867637 29.3191C -1.80903 36.8448 2.25806 44.0087 11.0971 49.1117L 12.0971 47.3796ZM 16.9171 10.3518C 26.6884 4.71123 39.005 1.5669 51.021 1.06984C 63.0465 0.572386 74.6565 2.7304 83.0474 7.57186L 84.0469 5.83954C 75.2278 0.750994 63.2077 -1.43599 50.9383 -0.92845C 38.6593 -0.42051 26.0159 2.79016 15.9172 8.61963L 16.9171 10.3518ZM 83.0471 7.57168L 169.097 57.2617L 170.097 55.5297L 84.0472 5.83971L 83.0471 7.57168ZM 169.097 55.5296L 97.1572 97.0597L 98.1571 98.7918L 170.097 57.2617L 169.097 55.5296Z"/>
<path id="path62_fill" d="M 300.16 328.71L 8.54492e-06 157.9L 273.5 -8.54492e-06L 573.71 170.8C 585.85 177.8 584.33 190.06 570.3 198.16L 347.55 326.74C 333.53 334.84 312.31 335.72 300.16 328.71Z"/>
<path id="path63_stroke" d="M 300.16 328.71L 300.66 327.844L 300.655 327.841L 300.16 328.71ZM 8.54492e-06 157.9L -0.499979 157.034L -2.01088 157.906L -0.49458 158.769L 8.54492e-06 157.9ZM 273.5 -8.54492e-06L 273.994 -0.869184L 273.496 -1.1526L 273 -0.866041L 273.5 -8.54492e-06ZM 573.71 170.8L 574.21 169.934L 574.205 169.931L 573.71 170.8ZM 570.3 198.16L 570.8 199.026L 570.8 199.026L 570.3 198.16ZM 347.55 326.74L 347.05 325.874L 347.05 325.874L 347.55 326.74ZM 300.655 327.841L 0.494597 157.031L -0.49458 158.769L 299.665 329.579L 300.655 327.841ZM 0.499996 158.766L 274 0.866024L 273 -0.866041L -0.499979 157.034L 0.499996 158.766ZM 273.005 0.869167L 573.216 171.669L 574.205 169.931L 273.994 -0.869184L 273.005 0.869167ZM 573.211 171.666C 579.042 175.029 581.379 179.503 580.826 183.944C 580.264 188.463 576.672 193.327 569.8 197.294L 570.8 199.026C 577.958 194.893 582.141 189.577 582.811 184.191C 583.491 178.727 580.518 173.571 574.21 169.934L 573.211 171.666ZM 569.8 197.294L 347.05 325.874L 348.05 327.606L 570.8 199.026L 569.8 197.294ZM 347.05 325.874C 340.204 329.83 331.557 332.041 323.112 332.392C 314.658 332.743 306.521 331.225 300.66 327.844L 299.66 329.576C 305.949 333.205 314.497 334.752 323.195 334.39C 331.903 334.029 340.877 331.751 348.05 327.606L 347.05 325.874Z"/>
<path id="path64_fill" d="M 97.2031 61.0594L 1.36309 5.72937C -0.636909 4.54937 -0.426901 2.48937 1.9331 1.12937C 4.2931 -0.240631 7.8731 -0.380648 9.9331 0.799352L 105.763 56.1294C 107.813 57.3094 107.553 59.3694 105.193 60.7294C 102.813 62.0894 99.2431 62.2794 97.2031 61.0594Z"/>
<path id="path65_stroke" d="M 97.2031 61.0594L 97.7163 60.2011L 97.7097 60.1972L 97.703 60.1933L 97.2031 61.0594ZM 1.36309 5.72937L 0.85492 6.59068L 0.863113 6.59541L 1.36309 5.72937ZM 1.9331 1.12937L 2.4324 1.9958L 2.43515 1.99421L 1.9331 1.12937ZM 9.9331 0.799352L 10.4331 -0.0666689L 10.4301 -0.0683727L 9.9331 0.799352ZM 105.763 56.1294L 105.263 56.9954L 105.264 56.996L 105.763 56.1294ZM 105.193 60.7294L 105.689 61.5976L 105.692 61.5958L 105.193 60.7294ZM 97.703 60.1933L 1.86307 4.86334L 0.863113 6.59541L 96.7031 61.9254L 97.703 60.1933ZM 1.87124 4.86811C 1.10655 4.41694 0.967597 3.94371 1.00631 3.6132C 1.05289 3.21543 1.4005 2.59045 2.4324 1.9958L 1.4338 0.262939C 0.105693 1.02829 -0.831699 2.11331 -0.980116 3.38055C -1.13641 4.71504 -0.380371 5.86181 0.854942 6.59064L 1.87124 4.86811ZM 2.43515 1.99421C 3.44994 1.40511 4.77011 1.06071 6.08616 1.00729C 7.41116 0.953505 8.61814 1.19857 9.43605 1.66708L 10.4301 -0.0683727C 9.18805 -0.779862 7.57503 -1.05479 6.00504 -0.991067C 4.42608 -0.926977 2.77626 -0.516378 1.43105 0.264528L 2.43515 1.99421ZM 9.43308 1.66537L 105.263 56.9954L 106.263 55.2634L 10.4331 -0.0666638L 9.43308 1.66537ZM 105.264 56.996C 106.052 57.4493 106.179 57.9186 106.139 58.2382C 106.09 58.6366 105.731 59.2651 104.694 59.8629L 105.692 61.5958C 107.015 60.8336 107.966 59.7521 108.124 58.4855C 108.292 57.1401 107.524 55.9894 106.262 55.2627L 105.264 56.996ZM 104.697 59.8611C 103.665 60.4509 102.337 60.8039 101.026 60.8629C 99.7036 60.9223 98.5148 60.6786 97.7163 60.2011L 96.6898 61.9176C 97.9313 62.6601 99.5476 62.9314 101.115 62.8609C 102.694 62.7898 104.341 62.3679 105.689 61.5976L 104.697 59.8611Z"/>
<path id="path66_fill" d="M 97.2031 61.066L 1.36305 5.736C -0.63695 4.556 -0.426943 2.49599 1.93306 1.12599C 4.30306 -0.234011 7.87306 -0.383998 9.93306 0.796002L 105.773 56.126C 107.773 57.306 107.553 59.376 105.193 60.736C 102.793 62.066 99.2031 62.256 97.2031 61.066Z"/>
<path id="path67_stroke" d="M 97.2031 61.066L 97.7145 60.2065L 97.7031 60.2L 97.2031 61.066ZM 1.36305 5.736L 0.854878 6.59731L 0.863072 6.60204L 1.36305 5.736ZM 1.93306 1.12599L 1.43534 0.258637L 1.43101 0.261149L 1.93306 1.12599ZM 9.93306 0.796002L 10.433 -0.0700409L 10.4301 -0.0717219L 9.93306 0.796002ZM 105.773 56.126L 106.281 55.2647L 106.273 55.2599L 105.773 56.126ZM 105.193 60.736L 105.678 61.6107L 105.685 61.6066L 105.692 61.6024L 105.193 60.736ZM 97.7031 60.2L 1.86303 4.86997L 0.863072 6.60204L 96.7031 61.932L 97.7031 60.2ZM 1.8712 4.87474C 1.10687 4.42378 0.967437 3.9506 1.00628 3.6184C 1.05309 3.21818 1.40212 2.59049 2.4351 1.99083L 1.43101 0.261149C 0.103996 1.03149 -0.831978 2.11881 -0.980178 3.3861C -1.13633 4.72141 -0.38077 5.86823 0.854901 6.59727L 1.8712 4.87474ZM 2.43077 1.99333C 3.45321 1.40661 4.77585 1.06218 6.09076 1.00764C 7.41495 0.952703 8.61885 1.19564 9.43601 1.66373L 10.4301 -0.0717219C 9.18727 -0.783638 7.57616 -1.05571 6.00786 -0.990645C 4.43027 -0.9252 2.7829 -0.514634 1.43534 0.258648L 2.43077 1.99333ZM 9.43308 1.66204L 105.273 56.992L 106.273 55.2599L 10.433 -0.0700359L 9.43308 1.66204ZM 105.265 56.9873C 106.026 57.4365 106.165 57.9102 106.125 58.2446C 106.077 58.6472 105.725 59.2754 104.694 59.8696L 105.692 61.6024C 107.021 60.8366 107.959 59.7498 108.111 58.4824C 108.271 57.1468 107.52 55.9954 106.281 55.2647L 105.265 56.9873ZM 104.708 59.8613C 103.663 60.4404 102.321 60.7878 101.003 60.847C 99.6723 60.9068 98.4899 60.668 97.7144 60.2066L 96.6917 61.9254C 97.9162 62.6539 99.5288 62.9152 101.093 62.845C 102.67 62.7742 104.323 62.3616 105.678 61.6107L 104.708 59.8613Z"/>
<path id="path68_fill" d="M 97.2021 61.066L 1.36215 5.73599C -0.637851 4.55599 -0.427895 2.48598 1.9421 1.12598C 4.3021 -0.234021 7.87211 -0.384007 9.94211 0.795993L 105.782 56.126C 107.782 57.306 107.562 59.366 105.202 60.736C 102.812 62.096 99.2421 62.246 97.2021 61.066Z"/>
<path id="path69_stroke" d="M 97.2021 61.066L 97.7028 60.2004L 97.7021 60.1999L 97.2021 61.066ZM 1.36215 5.73599L 0.853977 6.5973L 0.862171 6.60203L 1.36215 5.73599ZM 1.9421 1.12598L 2.43982 1.99332L 2.4414 1.99241L 1.9421 1.12598ZM 9.94211 0.795993L 10.4421 -0.0700586L 10.4373 -0.0727667L 9.94211 0.795993ZM 105.782 56.126L 106.29 55.2647L 106.282 55.2599L 105.782 56.126ZM 105.202 60.736L 105.697 61.6052L 105.704 61.6008L 105.202 60.736ZM 97.7021 60.1999L 1.86213 4.86996L 0.862171 6.60203L 96.7021 61.932L 97.7021 60.1999ZM 1.8703 4.87473C 1.10717 4.42448 0.966989 3.94969 1.00646 3.61592C 1.05383 3.2153 1.40401 2.58771 2.43982 1.99332L 1.44439 0.258638C 0.110198 1.02425 -0.8296 2.11167 -0.979704 3.38106C -1.13771 4.71729 -0.38287 5.86751 0.854 6.59726L 1.8703 4.87473ZM 2.4414 1.99241C 3.45796 1.4066 4.77731 1.06218 6.0923 1.00763C 7.41611 0.952709 8.62362 1.19546 9.44687 1.66475L 10.4373 -0.0727667C 9.19059 -0.783472 7.5781 -1.05573 6.00941 -0.990655C 4.4319 -0.925213 2.78625 -0.514637 1.44281 0.259549L 2.4414 1.99241ZM 9.44213 1.66203L 105.282 56.992L 106.282 55.2599L 10.4421 -0.0700457L 9.44213 1.66203ZM 105.274 56.9872C 106.037 57.4374 106.174 57.909 106.134 58.2406C 106.086 58.6423 105.734 59.2711 104.7 59.8712L 105.704 61.6008C 107.03 60.8309 107.968 59.7447 108.12 58.4788C 108.28 57.143 107.527 55.9946 106.29 55.2647L 105.274 56.9872ZM 104.708 59.8669C 103.673 60.4554 102.344 60.7998 101.029 60.8543C 99.7044 60.9093 98.5078 60.666 97.7028 60.2004L 96.7014 61.9316C 97.9364 62.646 99.5448 62.9177 101.112 62.8526C 102.69 62.7872 104.341 62.3766 105.697 61.6051L 104.708 59.8669Z"/>
<path id="path70_fill" d="M 581.77 199.74C 582.25 205.39 578.37 211.45 570.26 216.13L 347.55 344.71C 333.55 352.81 312.31 353.71 300.16 346.71L 18.05 186.14L 18.05 168.14L 300.16 328.71C 312.31 335.71 333.53 334.84 347.55 326.71L 570.26 198.16C 573.086 196.466 575.495 194.159 577.31 191.41L 577.31 191.35C 584.94 180.18 585.13 162.1 575.42 156.49L 273.42 -9.76562e-06L 8.54492e-06 142.46L 8.54492e-06 191.33L 18 201.59L 300.16 362.13C 312.31 369.13 333.53 368.26 347.55 360.13L 570.26 231.58C 580.37 225.75 584.85 210.36 582.05 199.58L 581.77 199.74Z"/>
<path id="path71_stroke" d="M 581.77 199.74L 581.274 198.872L 580.72 199.188L 580.774 199.825L 581.77 199.74ZM 570.26 216.13L 569.76 215.264L 569.76 215.264L 570.26 216.13ZM 347.55 344.71L 347.05 343.844L 347.049 343.844L 347.55 344.71ZM 300.16 346.71L 300.659 345.844L 300.655 345.841L 300.16 346.71ZM 18.05 186.14L 17.05 186.14L 17.05 186.721L 17.5553 187.009L 18.05 186.14ZM 18.05 168.14L 18.5447 167.271L 17.05 166.42L 17.05 168.14L 18.05 168.14ZM 300.16 328.71L 300.659 327.844L 300.655 327.841L 300.16 328.71ZM 347.55 326.71L 347.05 325.844L 347.048 325.845L 347.55 326.71ZM 570.26 198.16L 570.76 199.026L 570.767 199.022L 570.774 199.018L 570.26 198.16ZM 577.31 191.41L 578.145 191.961L 578.31 191.71L 578.31 191.41L 577.31 191.41ZM 577.31 191.35L 576.484 190.786L 576.31 191.041L 576.31 191.35L 577.31 191.35ZM 575.42 156.49L 575.92 155.624L 575.9 155.613L 575.88 155.602L 575.42 156.49ZM 273.42 -9.76562e-06L 273.88 -0.887888L 273.419 -1.12695L 272.958 -0.886852L 273.42 -9.76562e-06ZM 8.54492e-06 142.46L -0.462063 141.573L -0.999991 141.853L -0.999991 142.46L 8.54492e-06 142.46ZM 8.54492e-06 191.33L -0.999991 191.33L -0.999991 191.911L -0.495194 192.199L 8.54492e-06 191.33ZM 18 201.59L 17.5048 202.459L 17.5055 202.459L 18 201.59ZM 300.16 362.13L 300.659 361.264L 300.655 361.261L 300.16 362.13ZM 347.55 360.13L 347.05 359.264L 347.048 359.265L 347.55 360.13ZM 570.26 231.58L 569.76 230.714L 569.76 230.714L 570.26 231.58ZM 582.05 199.58L 583.018 199.329L 582.689 198.063L 581.554 198.712L 582.05 199.58ZM 580.774 199.825C 581.206 204.918 577.713 210.675 569.76 215.264L 570.76 216.996C 579.027 212.225 583.294 205.862 582.766 199.655L 580.774 199.825ZM 569.76 215.264L 347.05 343.844L 348.05 345.576L 570.76 216.996L 569.76 215.264ZM 347.049 343.844C 340.213 347.8 331.567 350.016 323.119 350.373C 314.662 350.731 306.52 349.22 300.659 345.844L 299.661 347.577C 305.95 351.2 314.503 352.739 323.203 352.372C 331.913 352.004 340.887 349.72 348.051 345.576L 347.049 343.844ZM 300.655 345.841L 18.5447 185.271L 17.5553 187.009L 299.665 347.579L 300.655 345.841ZM 19.05 186.14L 19.05 168.14L 17.05 168.14L 17.05 186.14L 19.05 186.14ZM 17.5553 169.009L 299.665 329.579L 300.655 327.841L 18.5447 167.271L 17.5553 169.009ZM 299.661 329.577C 305.95 333.2 314.497 334.747 323.196 334.383C 331.903 334.019 340.877 331.735 348.052 327.575L 347.048 325.845C 340.203 329.815 331.557 332.031 323.112 332.385C 314.658 332.738 306.52 331.22 300.659 327.844L 299.661 329.577ZM 348.05 327.576L 570.76 199.026L 569.76 197.294L 347.05 325.844L 348.05 327.576ZM 570.774 199.018C 573.728 197.247 576.247 194.835 578.145 191.961L 576.475 190.859C 574.743 193.484 572.443 195.686 569.746 197.302L 570.774 199.018ZM 578.31 191.41L 578.31 191.35L 576.31 191.35L 576.31 191.41L 578.31 191.41ZM 578.136 191.914C 582.079 186.142 584.086 178.617 583.867 171.803C 583.649 165.018 581.202 158.676 575.92 155.624L 574.92 157.356C 579.348 159.915 581.661 165.417 581.868 171.867C 582.074 178.288 580.171 185.388 576.484 190.786L 578.136 191.914ZM 575.88 155.602L 273.88 -0.887888L 272.96 0.887868L 574.96 157.378L 575.88 155.602ZM 272.958 -0.886852L -0.462063 141.573L 0.46208 143.347L 273.882 0.886833L 272.958 -0.886852ZM -0.999991 142.46L -0.999991 191.33L 1.00001 191.33L 1.00001 142.46L -0.999991 142.46ZM -0.495194 192.199L 17.5048 202.459L 18.4952 200.721L 0.495211 190.461L -0.495194 192.199ZM 17.5055 202.459L 299.665 362.999L 300.655 361.261L 18.4945 200.721L 17.5055 202.459ZM 299.661 362.996C 305.95 366.62 314.497 368.167 323.196 367.803C 331.903 367.439 340.877 365.155 348.052 360.995L 347.048 359.265C 340.203 363.235 331.557 365.451 323.112 365.805C 314.658 366.158 306.52 364.64 300.659 361.264L 299.661 362.996ZM 348.05 360.996L 570.76 232.446L 569.76 230.714L 347.05 359.264L 348.05 360.996ZM 570.76 232.446C 576.084 229.376 579.856 223.838 581.942 217.761C 584.029 211.682 584.475 204.937 583.018 199.329L 581.082 199.831C 582.425 205.003 582.031 211.343 580.05 217.112C 578.069 222.882 574.546 227.954 569.76 230.714L 570.76 232.446ZM 581.554 198.712L 581.274 198.872L 582.266 200.608L 582.546 200.448L 581.554 198.712Z"/>
<path id="path72_fill" d="M 300.16 328.71L 8.54492e-06 157.91L 273.5 8.54492e-06L 573.71 170.8C 585.85 177.8 584.33 190.06 570.3 198.16L 347.55 326.71C 333.53 334.84 312.31 335.71 300.16 328.71Z"/>
<path id="path73_stroke" d="M 300.16 328.71L 300.659 327.843L 300.655 327.841L 300.16 328.71ZM 8.54492e-06 157.91L -0.500003 157.044L -2.01088 157.916L -0.494558 158.779L 8.54492e-06 157.91ZM 273.5 8.54492e-06L 273.994 -0.869167L 273.496 -1.15259L 273 -0.86601L 273.5 8.54492e-06ZM 573.71 170.8L 574.21 169.934L 574.205 169.931L 573.71 170.8ZM 570.3 198.16L 570.8 199.026L 570.8 199.026L 570.3 198.16ZM 347.55 326.71L 347.05 325.844L 347.048 325.845L 347.55 326.71ZM 300.655 327.841L 0.494575 157.041L -0.494558 158.779L 299.665 329.579L 300.655 327.841ZM 0.50002 158.776L 274 0.866027L 273 -0.86601L -0.500003 157.044L 0.50002 158.776ZM 273.005 0.869184L 573.216 171.669L 574.205 169.931L 273.994 -0.869167L 273.005 0.869184ZM 573.211 171.666C 579.042 175.029 581.379 179.503 580.826 183.944C 580.264 188.463 576.672 193.327 569.8 197.294L 570.8 199.026C 577.958 194.893 582.141 189.577 582.811 184.191C 583.491 178.727 580.518 173.571 574.21 169.934L 573.211 171.666ZM 569.8 197.294L 347.05 325.844L 348.05 327.576L 570.8 199.026L 569.8 197.294ZM 347.048 325.845C 340.203 329.815 331.557 332.031 323.112 332.385C 314.658 332.738 306.52 331.22 300.659 327.844L 299.661 329.576C 305.95 333.2 314.497 334.747 323.196 334.383C 331.903 334.019 340.877 331.735 348.052 327.575L 347.048 325.845Z"/>
<path id="path74_fill" d="M 2.61001 2.98L -3.66211e-06 1.50001L 2.6 1.46484e-05"/>
<path id="path75_stroke" d="M -3.66211e-06 1.50001L -0.499725 0.633829L -2.01412 1.50751L -0.493261 2.3699L -3.66211e-06 1.50001ZM 3.10327 2.11011L 0.493254 0.630131L -0.493261 2.3699L 2.11675 3.84988L 3.10327 2.11011ZM 0.499718 2.3662L 3.09972 0.866201L 2.10028 -0.866171L -0.499725 0.633829L 0.499718 2.3662Z"/>
<path id="path76_stroke" d="M 0.500012 140.566L 242.46 0.866019L 241.46 -0.866019L -0.500012 138.834L 0.500012 140.566Z"/>
<path id="path77_fill" d="M -2.19727e-05 1.5L 2.60001 -1.2207e-06L 5.21 1.48001"/>
<path id="path78_stroke" d="M 2.60001 -1.2207e-06L 3.09328 -0.869878L 2.59574 -1.15202L 2.1003 -0.86619L 2.60001 -1.2207e-06ZM 0.499695 2.36619L 3.09973 0.866187L 2.1003 -0.86619L -0.499739 0.63381L 0.499695 2.36619ZM 2.10674 0.869875L 4.71673 2.34989L 5.70327 0.610133L 3.09328 -0.869878L 2.10674 0.869875Z"/>
<path id="path79_fill" d="M 83.5711 6.69898C 66.3611 -3.23102 36.3611 -1.97102 16.4411 9.47898C -3.47895 20.929 -5.55895 38.309 11.6311 48.239L 77.981 86.649L 77.981 130.519L 83.2511 133.519L 83.2511 89.679L 155.191 48.149L 83.5711 6.69898Z"/>
<path id="path80_stroke" d="M 83.5711 6.69898L 84.072 5.83348L 84.0708 5.83282L 83.5711 6.69898ZM 11.6311 48.239L 12.1321 47.3735L 12.1313 47.373L 11.6311 48.239ZM 77.981 86.649L 78.981 86.649L 78.981 86.0724L 78.482 85.7835L 77.981 86.649ZM 77.981 130.519L 76.981 130.519L 76.981 131.1L 77.4863 131.388L 77.981 130.519ZM 83.2511 133.519L 82.7563 134.388L 84.2511 135.239L 84.2511 133.519L 83.2511 133.519ZM 83.2511 89.679L 82.7511 88.8129L 82.2511 89.1016L 82.2511 89.679L 83.2511 89.679ZM 155.191 48.149L 155.691 49.015L 157.189 48.1501L 155.692 47.2835L 155.191 48.149ZM 84.0708 5.83282C 75.2516 0.74422 63.244 -1.43773 50.9807 -0.927659C 38.7079 -0.417184 26.0653 2.79353 15.9427 8.61199L 16.9394 10.346C 26.7368 4.71442 39.0543 1.57014 51.0639 1.07061C 63.0831 0.570686 74.6805 2.72373 83.0713 7.56514L 84.0708 5.83282ZM 15.9427 8.61199C 5.83845 14.4199 0.0418646 21.8548 -0.87275 29.3072C -1.79669 36.8354 2.29855 44.0028 11.1309 49.1049L 12.1313 47.373C 3.77356 42.5451 0.313794 36.0575 1.11236 29.5508C 1.92024 22.9681 7.12365 15.988 16.9394 10.346L 15.9427 8.61199ZM 11.13 49.1044L 77.48 87.5144L 78.482 85.7835L 12.1321 47.3735L 11.13 49.1044ZM 76.981 86.649L 76.981 130.519L 78.981 130.519L 78.981 86.649L 76.981 86.649ZM 77.4863 131.388L 82.7563 134.388L 83.7458 132.65L 78.4757 129.65L 77.4863 131.388ZM 84.2511 133.519L 84.2511 89.679L 82.2511 89.679L 82.2511 133.519L 84.2511 133.519ZM 83.751 90.545L 155.691 49.015L 154.691 47.2829L 82.7511 88.8129L 83.751 90.545ZM 155.692 47.2835L 84.072 5.83348L 83.0702 7.56448L 154.69 49.0145L 155.692 47.2835Z"/>
<path id="path81_fill" d="M 81.0571 87.7197L 11.5971 48.2398C -5.6029 38.3098 -3.40289 20.9598 16.4171 9.48977C 36.2871 -1.98024 66.3371 -3.23023 83.5471 6.70977L 152.997 46.2098L 81.0571 87.7197Z"/>
<path id="path82_stroke" d="M 81.0571 87.7197L 80.563 88.5891L 81.0609 88.8721L 81.5569 88.5859L 81.0571 87.7197ZM 11.5971 48.2398L 11.0971 49.1058L 11.103 49.1091L 11.5971 48.2398ZM 16.4171 9.48977L 15.9172 8.6237L 15.9162 8.62425L 16.4171 9.48977ZM 83.5471 6.70977L 83.047 7.57573L 83.0527 7.57901L 83.5471 6.70977ZM 152.997 46.2098L 153.497 47.0759L 155.009 46.2035L 153.492 45.3405L 152.997 46.2098ZM 81.5513 86.8504L 12.0912 47.3704L 11.103 49.1091L 80.563 88.5891L 81.5513 86.8504ZM 12.0971 47.3737C 3.73595 42.5466 0.303306 36.0679 1.11687 29.5664C 1.94027 22.9862 7.15087 16.0076 16.918 10.3553L 15.9162 8.62425C 5.86335 14.4419 0.063941 21.8733 -0.867656 29.3181C -1.8091 36.8416 2.25825 44.0029 11.0971 49.1058L 12.0971 47.3737ZM 16.917 10.3558C 26.6885 4.71523 39.0051 1.56845 51.021 1.07016C 63.0466 0.571466 74.6563 2.72949 83.047 7.57571L 84.0473 5.84382C 75.2279 0.750042 63.2077 -1.43693 50.9382 -0.928126C 38.6591 -0.418919 26.0157 2.7943 15.9172 8.6237L 16.917 10.3558ZM 83.0527 7.57901L 152.503 47.079L 153.492 45.3405L 84.0415 5.84052L 83.0527 7.57901ZM 152.497 45.3436L 80.5573 86.8536L 81.5569 88.5859L 153.497 47.0759L 152.497 45.3436Z"/>
<path id="path83_fill" d="M 17.68 61.24C 27.4444 61.24 35.36 47.531 35.36 30.62C 35.36 13.709 27.4444 0 17.68 0C 7.91558 0 -1.95312e-05 13.709 -1.95312e-05 30.62C -1.95312e-05 47.531 7.91558 61.24 17.68 61.24Z"/>
<path id="path84_stroke" d="M 34.36 30.62C 34.36 38.932 32.4126 46.408 29.3156 51.7716C 26.2035 57.1615 22.0537 60.24 17.68 60.24L 17.68 62.24C 23.0706 62.24 27.7609 58.464 31.0477 52.7716C 34.3496 47.0529 36.36 39.219 36.36 30.62L 34.36 30.62ZM 17.68 60.24C 13.3062 60.24 9.15649 57.1615 6.04434 51.7716C 2.94741 46.408 0.99998 38.932 0.99998 30.62L -1.00002 30.62C -1.00002 39.219 1.01035 47.0529 4.31232 52.7716C 7.59907 58.464 12.2893 62.24 17.68 62.24L 17.68 60.24ZM 0.99998 30.62C 0.99998 22.308 2.94741 14.832 6.04434 9.46842C 9.15649 4.07848 13.3062 1 17.68 1L 17.68 -1C 12.2893 -1 7.59907 2.77603 4.31232 8.46835C 1.01035 14.187 -1.00002 22.021 -1.00002 30.62L 0.99998 30.62ZM 17.68 1C 22.0537 1 26.2035 4.07848 29.3156 9.46842C 32.4126 14.832 34.36 22.308 34.36 30.62L 36.36 30.62C 36.36 22.021 34.3496 14.187 31.0477 8.46835C 27.7609 2.77603 23.0706 -1 17.68 -1L 17.68 1Z"/>
<path id="path85_fill" d="M 12.03 41.68C 18.674 41.68 24.06 32.3496 24.06 20.84C 24.06 9.33038 18.674 0 12.03 0C 5.38599 0 4.88281e-06 9.33038 4.88281e-06 20.84C 4.88281e-06 32.3496 5.38599 41.68 12.03 41.68Z"/>
<path id="path86_stroke" d="M 23.06 20.84C 23.06 26.4513 21.7449 31.4824 19.6704 35.0762C 17.5807 38.6963 14.8434 40.68 12.03 40.68L 12.03 42.68C 15.8606 42.68 19.1383 39.9985 21.4025 36.076C 23.682 32.1272 25.06 26.7383 25.06 20.84L 23.06 20.84ZM 12.03 40.68C 9.21658 40.68 6.47931 38.6963 4.38956 35.0762C 2.31505 31.4824 1 26.4513 1 20.84L -0.999995 20.84C -0.999995 26.7383 0.377952 32.1272 2.65743 36.076C 4.92167 39.9985 8.19938 42.68 12.03 42.68L 12.03 40.68ZM 1 20.84C 1 15.2287 2.31505 10.1976 4.38956 6.60383C 6.47931 2.98366 9.21658 1 12.03 1L 12.03 -1C 8.19938 -1 4.92167 1.68153 2.65743 5.60396C 0.377952 9.5528 -0.999995 14.9417 -0.999995 20.84L 1 20.84ZM 12.03 1C 14.8434 1 17.5807 2.98366 19.6704 6.60383C 21.7449 10.1976 23.06 15.2287 23.06 20.84L 25.06 20.84C 25.06 14.9417 23.682 9.55279 21.4025 5.60395C 19.1383 1.68153 15.8606 -1 12.03 -1L 12.03 1Z"/>
<path id="path87_fill" d="M 0.0899707 42.93L 0.0899707 105.76L 71.95 64.23L 71.95 2.44141e-06L 4.88281e-06 41.54L 0.0899707 42.93Z"/>
<path id="path88_stroke" d="M 0.0899707 42.93L 1.08997 42.93L 1.08997 42.8977L 1.08788 42.8654L 0.0899707 42.93ZM 0.0899707 105.76L -0.910029 105.76L -0.910029 107.493L 0.590347 106.626L 0.0899707 105.76ZM 71.95 64.23L 72.4504 65.0958L 72.95 64.807L 72.95 64.23L 71.95 64.23ZM 71.95 2.44141e-06L 72.95 2.44141e-06L 72.95 -1.73204L 71.45 -0.866025L 71.95 2.44141e-06ZM 4.88281e-06 41.54L -0.499992 40.674L -1.03803 40.9846L -0.997907 41.6046L 4.88281e-06 41.54ZM -0.910029 42.93L -0.910029 105.76L 1.08997 105.76L 1.08997 42.93L -0.910029 42.93ZM 0.590347 106.626L 72.4504 65.0958L 71.4496 63.3642L -0.410405 104.894L 0.590347 106.626ZM 72.95 64.23L 72.95 2.44141e-06L 70.95 2.44141e-06L 70.95 64.23L 72.95 64.23ZM 71.45 -0.866025L -0.499992 40.674L 0.500001 42.406L 72.45 0.86603L 71.45 -0.866025ZM -0.997907 41.6046L -0.907941 42.9946L 1.08788 42.8654L 0.997917 41.4754L -0.997907 41.6046Z"/>
<path id="path89_fill" d="M 52.69 182.52C 81.7899 182.52 105.38 141.661 105.38 91.26C 105.38 40.8585 81.7899 8.54492e-06 52.69 8.54492e-06C 23.5901 8.54492e-06 7.32422e-06 40.8585 7.32422e-06 91.26C 7.32422e-06 141.661 23.5901 182.52 52.69 182.52Z"/>
<path id="path90_stroke" d="M 104.38 91.26C 104.38 116.317 98.5139 138.953 89.0814 155.291C 79.6337 171.654 66.7314 181.52 52.69 181.52L 52.69 183.52C 67.7485 183.52 81.1912 172.957 90.8135 156.291C 100.451 139.598 106.38 116.604 106.38 91.26L 104.38 91.26ZM 52.69 181.52C 38.6486 181.52 25.7463 171.654 16.2986 155.291C 6.86607 138.953 1.00001 116.317 1.00001 91.26L -0.999993 91.26C -0.999993 116.604 4.929 139.598 14.5665 156.291C 24.1888 172.957 37.6316 183.52 52.69 183.52L 52.69 181.52ZM 1.00001 91.26C 1.00001 66.2027 6.86607 43.5667 16.2986 27.2294C 25.7463 10.8658 38.6486 1.00001 52.69 1.00001L 52.69 -0.999991C 37.6316 -0.999991 24.1888 9.56344 14.5665 26.2294C 4.929 42.9218 -0.999993 65.9157 -0.999993 91.26L 1.00001 91.26ZM 52.69 1.00001C 66.7314 1.00001 79.6337 10.8658 89.0814 27.2294C 98.5139 43.5667 104.38 66.2027 104.38 91.26L 106.38 91.26C 106.38 65.9157 100.451 42.9218 90.8135 26.2294C 81.1912 9.56344 67.7485 -0.999991 52.69 -0.999991L 52.69 1.00001Z"/>
<path id="path91_fill" d="M 115.192 31.7152C 117.926 33.2525 120.422 35.1793 122.602 37.4352C 136.882 39.6652 152.732 37.5652 163.892 31.1252L 164.002 31.0652C 159.812 25.0652 153.492 19.3752 145.002 14.4952C 111.682 -4.74476 57.8316 -4.84476 24.7216 14.2752C -8.38835 33.3952 -8.21835 64.4852 25.1017 83.7152C 58.4217 102.945 112.272 103.055 145.382 83.9352C 166.282 71.8652 173.922 55.0252 168.332 39.4052L 167.442 39.9352C 156.632 46.1752 141.442 48.3453 127.512 46.4453C 128.932 53.6353 124.882 61.1053 115.362 66.6053C 98.7317 76.2053 71.6717 76.1652 54.9317 66.4952C 38.1917 56.8252 38.1017 41.2053 54.7417 31.6053C 71.3817 22.0053 98.4517 22.0452 115.192 31.7152Z"/>
<path id="path92_stroke" d="M 115.192 31.7152L 114.691 32.5812L 114.702 32.5869L 115.192 31.7152ZM 122.602 37.4352L 121.882 38.1301L 122.116 38.3715L 122.447 38.4233L 122.602 37.4352ZM 163.892 31.1252L 163.413 30.2474L 163.402 30.2531L 163.392 30.2591L 163.892 31.1252ZM 164.002 31.0652L 164.481 31.9431L 165.461 31.4083L 164.822 30.4927L 164.002 31.0652ZM 145.002 14.4952L 144.502 15.3612L 144.503 15.3622L 145.002 14.4952ZM 145.382 83.9352L 145.882 84.8012L 145.882 84.8012L 145.382 83.9352ZM 168.332 39.4052L 169.273 39.0683L 168.864 37.9245L 167.82 38.546L 168.332 39.4052ZM 167.442 39.9352L 167.942 40.8014L 167.953 40.7944L 167.442 39.9352ZM 127.512 46.4453L 127.647 45.4544L 126.259 45.2652L 126.531 46.639L 127.512 46.4453ZM 115.362 66.6053L 115.862 67.4713L 115.862 67.4711L 115.362 66.6053ZM 114.702 32.5869C 117.351 34.0766 119.77 35.9439 121.882 38.1301L 123.321 36.7404C 121.074 34.4147 118.501 32.4283 115.682 30.8435L 114.702 32.5869ZM 122.447 38.4233C 136.897 40.6797 152.99 38.5709 164.392 31.9914L 163.392 30.2591C 152.474 36.5595 136.866 38.6508 122.756 36.4472L 122.447 38.4233ZM 164.371 32.0031L 164.481 31.9431L 163.523 30.1874L 163.413 30.2474L 164.371 32.0031ZM 164.822 30.4927C 160.532 24.3504 154.092 18.5671 145.5 13.6283L 144.503 15.3622C 152.891 20.1833 159.091 25.7801 163.182 31.6378L 164.822 30.4927ZM 145.502 13.6292C 128.655 3.90145 106.68 -0.959522 84.7848 -0.99976C 62.8897 -1.04 40.9655 3.74016 24.2216 13.4093L 25.2217 15.1412C 41.5878 5.69032 63.1437 0.960473 84.7811 1.00024C 106.418 1.04 128.028 5.84903 144.502 15.3612L 145.502 13.6292ZM 24.2216 13.4093C 7.48239 23.0756 -1.07099 35.9083 -0.999584 48.9595C -0.928198 62.0072 7.76159 74.8623 24.6018 84.5813L 25.6015 82.8491C 9.12171 73.3381 1.0665 61.0333 1.00039 48.9485C 0.934288 36.8672 8.8509 24.5949 25.2217 15.1412L 24.2216 13.4093ZM 24.6018 84.5813C 41.4484 94.304 63.423 99.165 85.3185 99.2065C 107.214 99.248 129.138 94.4704 145.882 84.8012L 144.882 83.0693C 128.516 92.5201 106.96 97.2475 85.3223 97.2065C 63.6853 97.1655 42.0749 92.3565 25.6015 82.8491L 24.6018 84.5813ZM 145.882 84.8012C 167.023 72.5919 175.086 55.3119 169.273 39.0683L 167.39 39.7422C 172.757 54.7386 165.54 71.1386 144.882 83.0693L 145.882 84.8012ZM 167.82 38.546L 166.93 39.076L 167.953 40.7944L 168.843 40.2644L 167.82 38.546ZM 166.942 39.0692C 156.367 45.1732 141.413 47.3321 127.647 45.4544L 127.377 47.4361C 141.471 49.3584 156.896 47.1773 167.942 40.8013L 166.942 39.0692ZM 126.531 46.639C 127.837 53.254 124.17 60.3617 114.861 65.7394L 115.862 67.4711C 125.594 61.8488 130.026 54.0165 128.493 46.2515L 126.531 46.639ZM 114.862 65.7392C 106.736 70.4302 95.9971 72.795 85.1896 72.7765C 74.3826 72.758 63.615 70.3564 55.4319 65.6293L 54.4315 67.3611C 62.9883 72.3041 74.1208 74.7575 85.1862 74.7765C 96.2512 74.7955 107.358 72.3803 115.862 67.4713L 114.862 65.7392ZM 55.4319 65.6293C 47.2418 60.8983 43.3515 54.8509 43.3192 49.0185C 43.2868 43.1899 47.1057 37.1651 55.2414 32.4714L 54.2419 30.7391C 45.7376 35.6454 41.2815 42.2306 41.3192 49.0295C 41.3569 55.8246 45.8815 62.4222 54.4315 67.3611L 55.4319 65.6293ZM 55.2414 32.4714C 63.3726 27.7803 74.1162 25.4155 84.9275 25.434C 95.7383 25.4525 106.508 27.8541 114.691 32.5812L 115.692 30.8493C 107.135 25.9064 96 23.453 84.9309 23.434C 73.8621 23.415 62.7507 25.8302 54.2419 30.7391L 55.2414 32.4714Z"/>
<path id="path93_fill" d="M 0 0L 201 0L 201 130L 0 130L 0 0Z"/>
<path id="path94_stroke" d="M 0 0L 0 -1L -1 -1L -1 0L 0 0ZM 201 0L 202 0L 202 -1L 201 -1L 201 0ZM 201 130L 201 131L 202 131L 202 130L 201 130ZM 0 130L -1 130L -1 131L 0 131L 0 130ZM 0 1L 201 1L 201 -1L 0 -1L 0 1ZM 200 0L 200 130L 202 130L 202 0L 200 0ZM 201 129L 0 129L 0 131L 201 131L 201 129ZM 1 130L 1 0L -1 0L -1 130L 1 130Z"/>
<path id="path95_fill" d="M 115.192 31.7152C 117.926 33.2525 120.422 35.1793 122.602 37.4352C 136.882 39.6652 152.732 37.5652 163.892 31.1252L 164.002 31.0652C 159.812 25.0652 153.492 19.3752 145.002 14.4952C 111.682 -4.74476 57.8316 -4.84476 24.7216 14.2752C -8.38835 33.3952 -8.21835 64.4852 25.1017 83.7152C 58.4217 102.945 112.272 103.055 145.382 83.9352C 166.282 71.8652 173.922 55.0252 168.332 39.4052L 167.442 39.9352C 156.632 46.1752 141.442 48.3453 127.512 46.4453C 128.932 53.6353 124.882 61.1053 115.362 66.6053C 98.7317 76.2053 71.6717 76.1552 54.9317 66.4952C 38.1917 56.8352 38.1017 41.2053 54.7417 31.6053C 71.3817 22.0053 98.4517 22.0452 115.192 31.7152Z"/>
<path id="path96_stroke" d="M 115.192 31.7152L 114.691 32.5812L 114.702 32.5869L 115.192 31.7152ZM 122.602 37.4352L 121.882 38.1301L 122.116 38.3715L 122.447 38.4233L 122.602 37.4352ZM 163.892 31.1252L 163.413 30.2474L 163.402 30.2531L 163.392 30.2591L 163.892 31.1252ZM 164.002 31.0652L 164.481 31.9431L 165.461 31.4083L 164.822 30.4927L 164.002 31.0652ZM 145.002 14.4952L 144.502 15.3612L 144.503 15.3622L 145.002 14.4952ZM 145.382 83.9352L 145.882 84.8012L 145.882 84.8012L 145.382 83.9352ZM 168.332 39.4052L 169.273 39.0683L 168.864 37.9245L 167.82 38.546L 168.332 39.4052ZM 167.442 39.9352L 167.942 40.8014L 167.953 40.7944L 167.442 39.9352ZM 127.512 46.4453L 127.647 45.4544L 126.259 45.2652L 126.531 46.639L 127.512 46.4453ZM 115.362 66.6053L 115.862 67.4713L 115.862 67.4711L 115.362 66.6053ZM 114.702 32.5869C 117.351 34.0766 119.77 35.9439 121.882 38.1301L 123.321 36.7404C 121.074 34.4147 118.501 32.4283 115.682 30.8435L 114.702 32.5869ZM 122.447 38.4233C 136.897 40.6797 152.99 38.5709 164.392 31.9914L 163.392 30.2591C 152.474 36.5595 136.866 38.6508 122.756 36.4472L 122.447 38.4233ZM 164.371 32.0031L 164.481 31.9431L 163.523 30.1874L 163.413 30.2474L 164.371 32.0031ZM 164.822 30.4927C 160.532 24.3504 154.092 18.5671 145.5 13.6283L 144.503 15.3622C 152.891 20.1833 159.091 25.7801 163.182 31.6378L 164.822 30.4927ZM 145.502 13.6292C 128.655 3.90145 106.68 -0.959522 84.7848 -0.99976C 62.8897 -1.04 40.9655 3.74016 24.2216 13.4093L 25.2217 15.1412C 41.5878 5.69032 63.1437 0.960473 84.7811 1.00024C 106.418 1.04 128.028 5.84903 144.502 15.3612L 145.502 13.6292ZM 24.2216 13.4093C 7.48239 23.0756 -1.07099 35.9083 -0.999584 48.9595C -0.928198 62.0072 7.76159 74.8623 24.6018 84.5813L 25.6015 82.8491C 9.12171 73.3381 1.0665 61.0333 1.00039 48.9485C 0.934288 36.8672 8.8509 24.5949 25.2217 15.1412L 24.2216 13.4093ZM 24.6018 84.5813C 41.4484 94.304 63.423 99.165 85.3185 99.2065C 107.214 99.248 129.138 94.4704 145.882 84.8012L 144.882 83.0693C 128.516 92.5201 106.96 97.2475 85.3223 97.2065C 63.6853 97.1655 42.0749 92.3565 25.6015 82.8491L 24.6018 84.5813ZM 145.882 84.8012C 167.023 72.5919 175.086 55.3119 169.273 39.0683L 167.39 39.7422C 172.757 54.7386 165.54 71.1386 144.882 83.0693L 145.882 84.8012ZM 167.82 38.546L 166.93 39.076L 167.953 40.7944L 168.843 40.2644L 167.82 38.546ZM 166.942 39.0692C 156.367 45.1732 141.413 47.3321 127.647 45.4544L 127.377 47.4361C 141.471 49.3584 156.896 47.1773 167.942 40.8013L 166.942 39.0692ZM 126.531 46.639C 127.837 53.254 124.17 60.3617 114.861 65.7394L 115.862 67.4711C 125.594 61.8488 130.026 54.0165 128.493 46.2515L 126.531 46.639ZM 114.862 65.7392C 106.736 70.4301 95.9973 72.7925 85.1897 72.7727C 74.3826 72.753 63.6148 70.3514 55.4315 65.6291L 54.4319 67.3614C 62.9885 72.2991 74.1207 74.7525 85.1861 74.7727C 96.251 74.793 107.358 72.3804 115.862 67.4713L 114.862 65.7392ZM 55.4315 65.6291C 47.2418 60.9032 43.3515 54.8559 43.3192 49.0222C 43.2868 43.1922 47.1059 37.165 55.2414 32.4714L 54.2419 30.7391C 45.7374 35.6455 41.2815 42.2333 41.3192 49.0333C 41.3569 55.8296 45.8815 62.4273 54.4319 67.3614L 55.4315 65.6291ZM 55.2414 32.4714C 63.3726 27.7803 74.1162 25.4155 84.9275 25.434C 95.7383 25.4525 106.508 27.8541 114.691 32.5812L 115.692 30.8493C 107.135 25.9064 96 23.453 84.9309 23.434C 73.8621 23.415 62.7507 25.8302 54.2419 30.7391L 55.2414 32.4714Z"/>
<path id="path97_fill" d="M 41.4 0.0299866L 41.29 0.0999939C 30.13 6.53999 14.29 8.63999 -2.19727e-05 6.40999L -2.19727e-05 29.79L 0.22001 29.79C 4.32001 25.34 5.88997 20.32 4.92997 15.42C 17.42 17.12 30.93 15.54 41.41 10.68L 41.41 -1.2207e-05L 41.4 0.0299866Z"/>
<path id="path98_stroke" d="M 41.4 0.0299866L 41.937 0.87359L 42.2363 0.68307L 42.3486 0.346504L 41.4 0.0299866ZM 41.29 0.0999939L 41.7898 0.966128L 41.8087 0.955266L 41.827 0.943598L 41.29 0.0999939ZM -2.19727e-05 6.40999L 0.154165 5.42195L -1.00002 5.24184L -1.00002 6.40999L -2.19727e-05 6.40999ZM -2.19727e-05 29.79L -1.00002 29.79L -1.00002 30.79L -2.19727e-05 30.79L -2.19727e-05 29.79ZM 0.22001 29.79L 0.22001 30.79L 0.658398 30.79L 0.955446 30.4676L 0.22001 29.79ZM 4.92997 15.42L 5.06484 14.4291L 3.6799 14.2406L 3.94863 15.6123L 4.92997 15.42ZM 41.41 10.68L 41.8307 11.5872L 42.41 11.3186L 42.41 10.68L 41.41 10.68ZM 41.41 -1.2207e-05L 42.41 -1.2207e-05L 42.41 -6.15635L 40.4614 -0.316529L 41.41 -1.2207e-05ZM 40.863 -0.813617L 40.753 -0.74361L 41.827 0.943598L 41.937 0.87359L 40.863 -0.813617ZM 40.7902 -0.76614C 29.8721 5.53429 14.2748 7.62552 0.154165 5.42195L -0.154209 7.39803C 14.3052 9.65447 30.388 7.54569 41.7898 0.966128L 40.7902 -0.76614ZM -1.00002 6.40999L -1.00002 29.79L 0.999978 29.79L 0.999978 6.40999L -1.00002 6.40999ZM -2.19727e-05 30.79L 0.22001 30.79L 0.22001 28.79L -2.19727e-05 28.79L -2.19727e-05 30.79ZM 0.955446 30.4676C 5.23167 25.8263 6.94298 20.4935 5.91131 15.2277L 3.94863 15.6123C 4.83696 20.1465 3.40835 24.8537 -0.515427 29.1124L 0.955446 30.4676ZM 4.79511 16.4109C 17.4405 18.132 31.1487 16.5409 41.8307 11.5872L 40.9893 9.77281C 30.7114 14.5391 17.3994 16.108 5.06484 14.4291L 4.79511 16.4109ZM 42.41 10.68L 42.41 -1.2207e-05L 40.41 -1.2207e-05L 40.41 10.68L 42.41 10.68ZM 40.4614 -0.316529L 40.4514 -0.286531L 42.3486 0.346504L 42.3586 0.316505L 40.4614 -0.316529Z"/>
<path id="path99_fill" d="M 0.0999927 1.2207e-05L 33.25 19.41L 33.14 36.41L 1.70898e-05 17.01L 0.0999927 1.2207e-05Z"/>
<path id="path100_stroke" d="M 0.0999927 1.2207e-05L 0.60527 -0.862945L -0.889807 -1.73834L -0.89999 -0.00586516L 0.0999927 1.2207e-05ZM 33.25 19.41L 34.25 19.4165L 34.2537 18.8389L 33.7553 18.547L 33.25 19.41ZM 33.14 36.41L 32.6348 37.273L 34.1287 38.1476L 34.1399 36.4165L 33.14 36.41ZM 1.70898e-05 17.01L -0.999966 17.0041L -1.00336 17.5814L -0.505181 17.873L 1.70898e-05 17.01ZM -0.405285 0.862969L 32.7447 20.2729L 33.7553 18.547L 0.60527 -0.862945L -0.405285 0.862969ZM 32.25 19.4035L 32.14 36.4035L 34.1399 36.4165L 34.25 19.4165L 32.25 19.4035ZM 33.6452 35.547L 0.505216 16.147L -0.505181 17.873L 32.6348 37.273L 33.6452 35.547ZM 1 17.0159L 1.09998 0.00588957L -0.89999 -0.00586516L -0.999966 17.0041L 1 17.0159Z"/>
<path id="path101_fill" d="M 20.32 62.29L -1.95312e-05 50.56L 77.07 -6.10352e-06L 97.39 11.73L 20.32 62.29Z"/>
<path id="path102_stroke" d="M 20.32 62.29L 19.82 63.1561L 20.3535 63.464L 20.8685 63.1261L 20.32 62.29ZM -1.95312e-05 50.56L -0.548546 49.7239L -1.90601 50.6144L -0.499964 51.426L -1.95312e-05 50.56ZM 77.07 -6.10352e-06L 77.5699 -0.866064L 77.0365 -1.17401L 76.5215 -0.83614L 77.07 -6.10352e-06ZM 97.39 11.73L 97.9385 12.5661L 99.296 11.6756L 97.8899 10.8639L 97.39 11.73ZM 20.8199 61.4239L 0.499924 49.6939L -0.499964 51.426L 19.82 63.1561L 20.8199 61.4239ZM 0.548507 51.3961L 77.6185 0.836127L 76.5215 -0.83614L -0.548546 49.7239L 0.548507 51.3961ZM 76.57 0.866052L 96.89 12.5961L 97.8899 10.8639L 77.5699 -0.866064L 76.57 0.866052ZM 96.8415 10.8939L 19.7715 61.4539L 20.8685 63.1261L 97.9385 12.5661L 96.8415 10.8939Z"/>
<path id="path103_fill" d="M 24.68 32.4L 9.76562e-06 18.15L 9.76562e-06 10.76L 35.12 1.09863e-05L 60.12 4.55L 60.12 11.94L 24.68 32.4Z"/>
<path id="path104_stroke" d="M 24.68 32.4L 24.18 33.266L 24.68 33.5547L 25.18 33.266L 24.68 32.4ZM 9.76562e-06 18.15L -0.99999 18.15L -0.99999 18.7273L -0.500017 19.016L 9.76562e-06 18.15ZM 9.76562e-06 10.76L -0.292928 9.80386L -0.99999 10.0205L -0.99999 10.76L 9.76562e-06 10.76ZM 35.12 1.09863e-05L 35.2991 -0.983828L 35.0597 -1.02739L 34.8271 -0.956121L 35.12 1.09863e-05ZM 60.12 4.55L 61.12 4.55L 61.12 3.71557L 60.2991 3.56616L 60.12 4.55ZM 60.12 11.94L 60.62 12.8061L 61.12 12.5174L 61.12 11.94L 60.12 11.94ZM 25.18 31.534L 0.500036 17.284L -0.500017 19.016L 24.18 33.266L 25.18 31.534ZM 1.00001 18.15L 1.00001 10.76L -0.99999 10.76L -0.99999 18.15L 1.00001 18.15ZM 0.292947 11.7161L 35.4129 0.956143L 34.8271 -0.956121L -0.292928 9.80386L 0.292947 11.7161ZM 34.9409 0.983849L 59.9409 5.53384L 60.2991 3.56616L 35.2991 -0.983828L 34.9409 0.983849ZM 59.12 4.55L 59.12 11.94L 61.12 11.94L 61.12 4.55L 59.12 4.55ZM 59.62 11.074L 24.18 31.534L 25.18 33.266L 60.62 12.8061L 59.62 11.074Z"/>
<path id="path105_fill" d="M 24.68 34.71L 9.76562e-06 20.46L 35.43 -1.2207e-06L 60.12 14.25L 24.68 34.71Z"/>
<path id="path106_stroke" d="M 24.68 34.71L 24.18 35.576L 24.68 35.8647L 25.18 35.576L 24.68 34.71ZM 9.76562e-06 20.46L -0.500072 19.594L -1.99977 20.4601L -0.500017 21.326L 9.76562e-06 20.46ZM 35.43 -1.2207e-06L 35.9299 -0.866099L 35.4299 -1.15468L 34.9299 -0.865979L 35.43 -1.2207e-06ZM 60.12 14.25L 60.62 15.116L 62.1203 14.2499L 60.6199 13.3839L 60.12 14.25ZM 25.18 33.844L 0.500036 19.594L -0.500017 21.326L 24.18 35.576L 25.18 33.844ZM 0.500092 21.326L 35.9301 0.865977L 34.9299 -0.865979L -0.500072 19.594L 0.500092 21.326ZM 34.9301 0.866097L 59.6201 15.1161L 60.6199 13.3839L 35.9299 -0.866099L 34.9301 0.866097ZM 59.62 13.384L 24.18 33.844L 25.18 35.576L 60.62 15.116L 59.62 13.384Z"/>
<path id="path107_fill" d="M 6.54 9.21001L 2.19727e-05 5.43001L 9.38998 1.46484e-05L 15.94 3.78001L 6.54 9.21001Z"/>
<path id="path108_stroke" d="M 6.54 9.21001L 6.03959 10.0758L 6.53986 10.3649L 7.0402 10.0759L 6.54 9.21001ZM 2.19727e-05 5.43001L -0.500579 4.56433L -1.99796 5.43023L -0.500389 6.2958L 2.19727e-05 5.43001ZM 9.38998 1.46484e-05L 9.88981 -0.866107L 9.38946 -1.15485L 8.88937 -0.865663L 9.38998 1.46484e-05ZM 15.94 3.78001L 16.4402 4.64592L 17.94 3.77959L 16.4399 2.91389L 15.94 3.78001ZM 7.04041 8.34422L 0.500433 4.56422L -0.500389 6.2958L 6.03959 10.0758L 7.04041 8.34422ZM 0.500623 6.29569L 9.89058 0.865693L 8.88937 -0.865663L -0.500579 4.56433L 0.500623 6.29569ZM 8.89014 0.866136L 15.4402 4.64613L 16.4399 2.91389L 9.88981 -0.866107L 8.89014 0.866136ZM 15.4398 2.9141L 6.0398 8.3441L 7.0402 10.0759L 16.4402 4.64592L 15.4398 2.9141Z"/>
<path id="path109_fill" d="M 6.55 9.19999L 9.76562e-06 5.41999L 9.39997 1.09863e-05L 15.95 3.78001L 6.55 9.19999Z"/>
<path id="path110_stroke" d="M 6.55 9.19999L 6.05016 10.0661L 6.54978 10.3544L 7.0495 10.0663L 6.55 9.19999ZM 9.76562e-06 5.41999L -0.4995 4.55369L -2.0013 5.41962L -0.499828 6.28611L 9.76562e-06 5.41999ZM 9.39997 1.09863e-05L 9.89981 -0.86611L 9.40019 -1.15444L 8.90046 -0.866297L 9.39997 1.09863e-05ZM 15.95 3.78001L 16.4495 4.64632L 17.9513 3.78039L 16.4499 2.91389L 15.95 3.78001ZM 7.04983 8.33387L 0.499847 4.55387L -0.499828 6.28611L 6.05016 10.0661L 7.04983 8.33387ZM 0.49952 6.2863L 9.89948 0.866319L 8.90046 -0.866297L -0.4995 4.55369L 0.49952 6.2863ZM 8.90014 0.866132L 15.4502 4.64613L 16.4499 2.91389L 9.89981 -0.86611L 8.90014 0.866132ZM 15.4505 2.9137L 6.05049 8.33368L 7.0495 10.0663L 16.4495 4.64632L 15.4505 2.9137Z"/>
</defs>
</svg>
