<svg width="800" height="450" viewBox="0 0 800 450" version="1.1" xmlns="http://www.w3.org/2000/svg" xmlns:xlink="http://www.w3.org/1999/xlink">
<title>video</title>
<desc>Created using Figma</desc>
<g id="Canvas" transform="translate(-8959 -971)">
<g id="video">
<g id="Vector">
<use xlink:href="#path0_fill" transform="matrix(-1 0 0 1 9759 971)" fill="url(#paint0_linear)"/>
</g>
<mask id="mask0_alpha" mask-type="alpha">
<g id="Vector">
<use xlink:href="#path0_fill" transform="matrix(-1 0 0 1 9759 971)" fill="url(#paint1_linear)"/>
</g>
</mask>
<g id="Group 3" mask="url(#mask0_alpha)">
<g id="Group 2" opacity="0.5">
<g id="Vector">
<use xlink:href="#path1_fill" transform="matrix(-1 0 0 1 9264 980.103)" fill="url(#paint2_linear)"/>
</g>
<g id="Vector">
<use xlink:href="#path2_fill" transform="matrix(-1 0 0 1 9263.67 919.233)" fill="url(#paint3_linear)"/>
</g>
</g>
<g id="Group 2" opacity="0.5">
<g id="Vector">
<use xlink:href="#path3_fill" transform="matrix(-1 0 0 1 9109.41 1165.68)" fill="#005FB5"/>
</g>
<g id="Vector">
<use xlink:href="#path4_fill" transform="matrix(-1 0 0 1 9207.76 1197.13)" fill="url(#paint5_linear)"/>
</g>
<g id="Vector">
<use xlink:href="#path5_fill" transform="matrix(-1 0 0 1 9139.48 1182.96)" fill="url(#paint6_linear)"/>
</g>
<g id="Vector">
<use xlink:href="#path6_fill" transform="matrix(-1 0 0 1 9139.48 1173.26)" fill="url(#paint7_linear)"/>
</g>
<g id="Vector">
<use xlink:href="#path7_fill" transform="matrix(-1 0 0 1 9115.28 1178.62)" fill="#FFFFFF"/>
</g>
<g id="Vector">
<use xlink:href="#path8_fill" transform="matrix(-1 0 0 1 9104.73 1184.96)" fill="#FFFFFF"/>
</g>
</g>
<g id="Group" opacity="0.5">
<g id="Vector">
<use xlink:href="#path9_fill" transform="matrix(-1 0 0 1 10024 978.628)" fill="url(#paint10_linear)"/>
</g>
<g id="Vector">
<use xlink:href="#path10_fill" transform="matrix(-1 0 0 1 10023.7 919)" fill="url(#paint11_linear)"/>
</g>
<g id="Vector">
<use xlink:href="#path11_fill" transform="matrix(-0.338567 -0.940942 -0.941055 0.338252 9670.59 1265.14)" fill="#005FB5"/>
</g>
<g id="Vector">
<use xlink:href="#path12_fill" transform="matrix(-0.338567 -0.940942 -0.941055 0.338252 9667.05 1262.15)" fill="#FFFFFF"/>
</g>
<g id="Vector">
<use xlink:href="#path13_fill" transform="matrix(-0.338567 -0.940942 -0.941055 0.338252 9646.71 1251.41)" fill="#005FB5"/>
</g>
<g id="Vector">
<use xlink:href="#path14_fill" transform="matrix(-0.338567 -0.940942 -0.941055 0.338252 9643.17 1248.42)" fill="#FFFFFF"/>
</g>
<g id="Vector">
<use xlink:href="#path15_fill" transform="matrix(-0.338567 -0.940942 -0.941055 0.338252 9622.92 1236.99)" fill="#005FB5"/>
</g>
<g id="Vector">
<use xlink:href="#path16_fill" transform="matrix(-0.340158 -0.939943 -0.940057 0.339842 9619.04 1234.88)" fill="#FFFFFF"/>
</g>
<g id="Vector">
<use xlink:href="#path17_fill" transform="matrix(-1 0 0 1 9593.72 1149.5)" fill="url(#paint18_linear)"/>
</g>
<g id="Vector">
<use xlink:href="#path18_fill" transform="matrix(-1 0 0 1 9593.72 1162.25)" fill="url(#paint19_linear)"/>
</g>
</g>
<g id="Group" opacity="0.5">
<g id="Vector">
<use xlink:href="#path19_fill" transform="matrix(-1 0 0 1 10023.7 1335.64)" fill="url(#paint20_linear)"/>
</g>
<g id="Vector">
<use xlink:href="#path20_fill" transform="matrix(-1 0 0 1 10023.4 1286)" fill="url(#paint21_linear)"/>
</g>
</g>
<g id="Group 2">
<g id="Group" opacity="0.5">
<g id="Vector">
<use xlink:href="#path21_fill" transform="matrix(-1 0 0 1 9287.76 1399.74)" fill="url(#paint22_linear)"/>
</g>
<g id="Vector">
<use xlink:href="#path22_fill" transform="matrix(-1 0 0 1 9287.76 1389.58)" fill="url(#paint23_linear)"/>
</g>
<g id="Vector">
<use xlink:href="#path23_fill" transform="matrix(-1 0 0 1 9633.7 1194.69)" fill="url(#paint24_linear)"/>
</g>
<g id="Vector">
<use xlink:href="#path24_fill" transform="matrix(-1 0 0 1 9346.96 1201.7)" fill="#D6AD00"/>
</g>
<g id="Vector">
<use xlink:href="#path25_fill" transform="matrix(-1 0 0 1 9361.19 1209.91)" fill="#D6AD00"/>
</g>
<g id="Vector">
<use xlink:href="#path26_fill" transform="matrix(-1 0 0 1 9375.46 1218.15)" fill="#D6AD00"/>
</g>
<g id="Vector">
<use xlink:href="#path27_fill" transform="matrix(-1 0 0 1 9633.7 1176.72)" fill="url(#paint28_linear)"/>
</g>
<g id="Vector">
<use xlink:href="#path28_fill" transform="matrix(-1 0 0 1 9633.7 1161.27)" fill="url(#paint29_linear)"/>
</g>
<g id="Vector">
<use xlink:href="#path29_stroke" transform="matrix(-1 0 0 1 9613.65 1318.37)" fill="url(#paint30_linear)"/>
</g>
<g id="Vector">
<use xlink:href="#path30_stroke" transform="matrix(-1 0 0 1 9605.96 1175.73)" fill="url(#paint31_linear)"/>
</g>
<g id="Vector">
<use xlink:href="#path31_stroke" transform="matrix(-1 0 0 1 9361.45 1172.76)" fill="url(#paint32_linear)"/>
</g>
<g id="Vector">
<use xlink:href="#path32_stroke" transform="matrix(-1 0 0 1 9608.43 1177.22)" fill="url(#paint33_linear)"/>
</g>
<g id="Vector">
<use xlink:href="#path33_fill" transform="matrix(-1 0 0 1 9273.35 1353.95)" fill="url(#paint34_linear)"/>
</g>
<g id="Vector">
<use xlink:href="#path34_fill" transform="matrix(-1 0 0 1 9271.16 1345.74)" fill="url(#paint35_linear)"/>
</g>
<g id="Vector">
<use xlink:href="#path35_fill" transform="matrix(-0.00541049 -0.999985 -0.999985 0.00541049 9257.8 1386.4)" fill="url(#paint36_linear)"/>
</g>
<g id="Vector">
<use xlink:href="#path36_fill" transform="matrix(-0.00541049 -0.999985 -0.999985 0.00541049 9247.99 1372.7)" fill="url(#paint37_linear)"/>
</g>
<g id="Vector">
<use xlink:href="#path37_fill" transform="matrix(-1 0 0 1 9190.11 1391.92)" fill="url(#paint38_linear)"/>
</g>
</g>
</g>
</g>
</g>
</g>
<defs>
<linearGradient id="paint0_linear" x1="0" y1="0" x2="1" y2="0" gradientUnits="userSpaceOnUse" gradientTransform="matrix(800 0 0 800 0 -175)">
<stop offset="0" stop-color="#2F80ED"/>
<stop offset="1" stop-color="#33ADFF"/>
</linearGradient>
<linearGradient id="paint1_linear" x1="0" y1="0" x2="1" y2="0" gradientUnits="userSpaceOnUse" gradientTransform="matrix(800 0 0 800 0 -175)">
<stop offset="0" stop-color="#2F80ED"/>
<stop offset="1" stop-color="#33ADFF"/>
</linearGradient>
<linearGradient id="paint2_linear" x1="0" y1="0" x2="1" y2="0" gradientUnits="userSpaceOnUse" gradientTransform="matrix(569.993 0 0 570.422 -0.00482601 -120.655)">
<stop offset="0" stop-color="#2F60ED"/>
<stop offset="1" stop-color="#3392FF"/>
</linearGradient>
<linearGradient id="paint3_linear" x1="0" y1="0" x2="1" y2="0" gradientUnits="userSpaceOnUse" gradientTransform="matrix(324302 0 0 187348 459576 -30635.6)">
<stop offset="0" stop-color="#2F80ED"/>
<stop offset="1" stop-color="#33ADFF"/>
</linearGradient>
<linearGradient id="paint5_linear" x1="0" y1="0" x2="1" y2="0" gradientUnits="userSpaceOnUse" gradientTransform="matrix(9484.81 0 0 6066.42 82024.8 17914.9)">
<stop offset="0" stop-color="#2F80ED"/>
<stop offset="1" stop-color="#33ADFF"/>
</linearGradient>
<linearGradient id="paint6_linear" x1="0" y1="0" x2="1" y2="0" gradientUnits="userSpaceOnUse" gradientTransform="matrix(3614.41 0 0 1947.89 54739.9 8978.69)">
<stop offset="0" stop-color="#2F60ED"/>
<stop offset="1" stop-color="#3392FF"/>
</linearGradient>
<linearGradient id="paint7_linear" x1="0" y1="0" x2="1" y2="0" gradientUnits="userSpaceOnUse" gradientTransform="matrix(3614.41 0 0 2086.77 54739.9 9322.41)">
<stop offset="0" stop-color="#2F80ED"/>
<stop offset="1" stop-color="#33ADFF"/>
</linearGradient>
<linearGradient id="paint10_linear" x1="0" y1="0" x2="1" y2="0" gradientUnits="userSpaceOnUse" gradientTransform="matrix(336734 0 0 194197 0 -20338.4)">
<stop offset="0" stop-color="#2F60ED"/>
<stop offset="1" stop-color="#3392FF"/>
</linearGradient>
<linearGradient id="paint11_linear" x1="0" y1="0" x2="1" y2="0" gradientUnits="userSpaceOnUse" gradientTransform="matrix(318032 0 0 183506 450690 -30007.4)">
<stop offset="0" stop-color="#2F80ED"/>
<stop offset="1" stop-color="#33ADFF"/>
</linearGradient>
<linearGradient id="paint18_linear" x1="0" y1="0" x2="1" y2="0" gradientUnits="userSpaceOnUse" gradientTransform="matrix(13076.4 0 0 7544.89 51077.3 14202.8)">
<stop offset="0" stop-color="#2F80ED"/>
<stop offset="1" stop-color="#33ADFF"/>
</linearGradient>
<linearGradient id="paint19_linear" x1="0" y1="0" x2="1" y2="0" gradientUnits="userSpaceOnUse" gradientTransform="matrix(13076.4 0 0 7545.99 51077.3 15079)">
<stop offset="0" stop-color="#2F80ED"/>
<stop offset="1" stop-color="#33ADFF"/>
</linearGradient>
<linearGradient id="paint20_linear" x1="0" y1="0" x2="1" y2="0" gradientUnits="userSpaceOnUse" gradientTransform="matrix(279915 0 0 161661 0 -16930.9)">
<stop offset="0" stop-color="#2F60ED"/>
<stop offset="1" stop-color="#3392FF"/>
</linearGradient>
<linearGradient id="paint21_linear" x1="0" y1="0" x2="1" y2="0" gradientUnits="userSpaceOnUse" gradientTransform="matrix(279587 0 0 161555 167.181 -34139.8)">
<stop offset="0" stop-color="#2F80ED"/>
<stop offset="1" stop-color="#33ADFF"/>
</linearGradient>
<linearGradient id="paint22_linear" x1="0" y1="0" x2="1" y2="0" gradientUnits="userSpaceOnUse" gradientTransform="matrix(28765.4 0 0 16611.8 129270 46222)">
<stop offset="0" stop-color="#2F60ED"/>
<stop offset="1" stop-color="#3392FF"/>
</linearGradient>
<linearGradient id="paint23_linear" x1="0" y1="0" x2="1" y2="0" gradientUnits="userSpaceOnUse" gradientTransform="matrix(28765.4 0 0 16609.2 129270 45218.7)">
<stop offset="0" stop-color="#2F80ED"/>
<stop offset="1" stop-color="#33ADFF"/>
</linearGradient>
<linearGradient id="paint24_linear" x1="0" y1="0" x2="1" y2="0" gradientUnits="userSpaceOnUse" gradientTransform="matrix(260941 149966 -257799 49841.1 543080 484314)">
<stop offset="0" stop-color="#2F60ED"/>
<stop offset="1" stop-color="#3392FF"/>
</linearGradient>
<linearGradient id="paint28_linear" x1="0" y1="0" x2="1" y2="0" gradientUnits="userSpaceOnUse" gradientTransform="matrix(339768 0 0 213843 242648 64828.7)">
<stop offset="0" stop-color="#2F60ED"/>
<stop offset="1" stop-color="#3392FF"/>
</linearGradient>
<linearGradient id="paint29_linear" x1="0" y1="0" x2="1" y2="0" gradientUnits="userSpaceOnUse" gradientTransform="matrix(260941 149966 -257793 49840.1 532235 466952)">
<stop offset="0" stop-color="#2F80ED"/>
<stop offset="1" stop-color="#33ADFF"/>
</linearGradient>
<linearGradient id="paint30_linear" x1="0" y1="0" x2="1" y2="0" gradientUnits="userSpaceOnUse" gradientTransform="matrix(1095.16 721.935 -632.299 1250.41 1454.42 645.051)">
<stop offset="0" stop-color="#2F80ED"/>
<stop offset="1" stop-color="#33ADFF"/>
</linearGradient>
<linearGradient id="paint31_linear" x1="0" y1="0" x2="1" y2="0" gradientUnits="userSpaceOnUse" gradientTransform="matrix(101526 33843.7 -58617.2 58618.1 150243 14829.2)">
<stop offset="0" stop-color="#2F80ED"/>
<stop offset="1" stop-color="#33ADFF"/>
</linearGradient>
<linearGradient id="paint32_linear" x1="0" y1="0" x2="1" y2="0" gradientUnits="userSpaceOnUse" gradientTransform="matrix(2186.06 363.39 -1262.17 629.385 3560.31 -2.93248)">
<stop offset="0" stop-color="#2F80ED"/>
<stop offset="1" stop-color="#33ADFF"/>
</linearGradient>
<linearGradient id="paint33_linear" x1="0" y1="0" x2="1" y2="0" gradientUnits="userSpaceOnUse" gradientTransform="matrix(225259 74171.6 -130053 128469 333287 32569.7)">
<stop offset="0" stop-color="#2F80ED"/>
<stop offset="1" stop-color="#33ADFF"/>
</linearGradient>
<linearGradient id="paint34_linear" x1="0" y1="0" x2="1" y2="0" gradientUnits="userSpaceOnUse" gradientTransform="matrix(24082.5 0 0 20719.5 120529 60238.4)">
<stop offset="0" stop-color="#2F60ED"/>
<stop offset="1" stop-color="#3392FF"/>
</linearGradient>
<linearGradient id="paint35_linear" x1="0" y1="0" x2="1" y2="0" gradientUnits="userSpaceOnUse" gradientTransform="matrix(23410.1 0 0 13422 119157 36939.2)">
<stop offset="0" stop-color="#2F80ED"/>
<stop offset="1" stop-color="#33ADFF"/>
</linearGradient>
<linearGradient id="paint36_linear" x1="0" y1="0" x2="1" y2="0" gradientUnits="userSpaceOnUse" gradientTransform="matrix(-886.829 1543.08 -1781.64 -3071.8 -44496.3 -9240.45)">
<stop offset="0" stop-color="#2F60ED"/>
<stop offset="1" stop-color="#3392FF"/>
</linearGradient>
<linearGradient id="paint37_linear" x1="0" y1="0" x2="1" y2="0" gradientUnits="userSpaceOnUse" gradientTransform="matrix(5.42576 1002.81 -1737.2 9.39923 -18533.9 19407.2)">
<stop offset="0" stop-color="#2F80ED"/>
<stop offset="1" stop-color="#33ADFF"/>
</linearGradient>
<linearGradient id="paint38_linear" x1="0" y1="0" x2="1" y2="0" gradientUnits="userSpaceOnUse" gradientTransform="matrix(5176.08 0 0 7608.37 61869.1 54662.1)">
<stop offset="0" stop-color="#2F60ED"/>
<stop offset="1" stop-color="#3392FF"/>
</linearGradient>
<path id="path0_fill" d="M 780 3.66211e-06L 20 3.66211e-06C 8.95432 3.66211e-06 1.2207e-05 8.95431 1.2207e-05 20L 1.2207e-05 430C 1.2207e-05 441.046 8.95432 450 20 450L 780 450C 791.046 450 800 441.046 800 430L 800 20C 800 8.95431 791.046 3.66211e-06 780 3.66211e-06Z"/>
<path id="path1_fill" d="M 319.96 326.426L 4.94853 144.458C -1.87606 140.522 0.345399 100.215 0.345399 76.2405L 223.755 3.74734C 231.631 -0.799134 243.549 -1.25979 250.373 2.64577L 569.708 128.625C 569.988 155.894 571.349 195.48 563.474 200.027L 346.568 325.365C 338.693 329.911 326.825 330.432 319.96 326.426Z"/>
<path id="path2_fill" d="M 319.631 326.44L 4.61926 144.431C -2.20532 140.485 -1.3848 133.605 6.53051 129.049L 223.426 3.75072C 231.301 -0.805766 243.219 -1.25641 250.044 2.64915L 565.055 184.658C 571.87 188.594 571.06 195.474 563.144 200.03L 346.239 325.328C 338.363 329.885 326.495 330.375 319.631 326.44Z"/>
<path id="path3_fill" d="M 0.0999927 1.2207e-05L 33.25 19.41L 33.14 36.41L 1.70898e-05 17.01L 0.0999927 1.2207e-05Z"/>
<path id="path4_fill" d="M 20.32 62.29L -1.95312e-05 50.56L 77.07 -6.10352e-06L 97.39 11.73L 20.32 62.29Z"/>
<path id="path5_fill" d="M 24.68 32.4L 9.76562e-06 18.15L 9.76562e-06 10.76L 35.12 1.09863e-05L 60.12 4.55L 60.12 11.94L 24.68 32.4Z"/>
<path id="path6_fill" d="M 24.68 34.71L 9.76562e-06 20.46L 35.43 -1.2207e-06L 60.12 14.25L 24.68 34.71Z"/>
<path id="path7_fill" d="M 6.54 9.21001L 2.19727e-05 5.43001L 9.38998 1.46484e-05L 15.94 3.78001L 6.54 9.21001Z"/>
<path id="path8_fill" d="M 6.55 9.19999L 9.76562e-06 5.41999L 9.39997 1.09863e-05L 15.95 3.78001L 6.55 9.19999Z"/>
<path id="path9_fill" d="M 313.785 319.767L 4.86064 141.504C -1.84826 137.637 0.341644 98.1649 0.341644 74.6914L 219.462 3.68675C 227.192 -0.764956 238.874 -1.2565 245.555 2.60165L 558.73 125.951C 558.999 152.661 560.335 191.437 552.615 195.889L 339.879 318.682C 332.205 323.143 320.476 323.625 313.785 319.767Z"/>
<path id="path10_fill" d="M 313.441 319.742L 4.51655 141.479C -2.17379 137.621 -1.32938 130.879 6.3724 126.427L 219.118 3.68987C 226.847 -0.771109 238.53 -1.25338 245.211 2.60477L 554.136 180.831C 560.826 184.689 559.991 191.431 552.28 195.892L 339.535 318.666C 331.861 323.118 320.132 323.6 313.441 319.742Z"/>
<path id="path11_fill" d="M 13.4765 15.5697C 20.9194 15.5697 26.953 12.0843 26.953 7.78482C 26.953 3.48538 20.9194 9.06123e-06 13.4765 9.06123e-06C 6.03363 9.06123e-06 4.52878e-06 3.48538 4.52878e-06 7.78482C 4.52878e-06 12.0843 6.03363 15.5697 13.4765 15.5697Z"/>
<path id="path12_fill" d="M 9.46972 10.9303C 14.6997 10.9303 18.9394 8.48347 18.9394 5.46515C 18.9394 2.44683 14.6997 9.06123e-06 9.46972 9.06123e-06C 4.23974 9.06123e-06 1.1322e-05 2.44683 1.1322e-05 5.46515C 1.1322e-05 8.48347 4.23974 10.9303 9.46972 10.9303Z"/>
<path id="path13_fill" d="M 13.4765 15.5697C 20.9194 15.5697 26.953 12.0843 26.953 7.78482C 26.953 3.48538 20.9194 1.13265e-05 13.4765 1.13265e-05C 6.03364 1.13265e-05 -1.35863e-05 3.48538 -1.35863e-05 7.78482C -1.35863e-05 12.0843 6.03364 15.5697 13.4765 15.5697Z"/>
<path id="path14_fill" d="M 9.46973 10.9303C 14.6997 10.9303 18.9394 8.48347 18.9394 5.46515C 18.9394 2.44683 14.6997 1.13265e-05 9.46973 1.13265e-05C 4.23975 1.13265e-05 -6.79317e-06 2.44683 -6.79317e-06 5.46515C -6.79317e-06 8.48347 4.23975 10.9303 9.46973 10.9303Z"/>
<path id="path15_fill" d="M 13.4765 15.5696C 20.9193 15.5696 26.953 12.0843 26.953 7.78483C 26.953 3.48539 20.9193 -5.66327e-06 13.4765 -5.66327e-06C 6.03363 -5.66327e-06 0 3.48539 0 7.78483C 0 12.0843 6.03363 15.5696 13.4765 15.5696Z"/>
<path id="path16_fill" d="M 9.46972 10.9303C 14.6997 10.9303 18.9394 8.48347 18.9394 5.46516C 18.9394 2.44684 14.6997 -5.66326e-06 9.46972 -5.66326e-06C 4.23974 -5.66326e-06 6.79317e-06 2.44684 6.79317e-06 5.46516C 6.79317e-06 8.48347 4.23974 10.9303 9.46972 10.9303Z"/>
<path id="path17_fill" d="M 110.154 4.32186L 7.49763 63.5574L 2.26544e-06 59.2355L 102.656 -2.26425e-06L 110.154 4.32186Z"/>
<path id="path18_fill" d="M 110.154 4.33114L 7.49763 63.5666L 2.26544e-06 59.2448L 102.656 -1.13213e-05L 110.154 4.33114Z"/>
<path id="path19_fill" d="M 260.839 266.193L 4.04048 117.797C -1.53639 114.577 0.283996 81.7184 0.283996 62.1777L 182.431 3.06907C 188.856 -0.636796 198.568 -1.04598 204.121 2.16577L 464.453 104.849C 464.676 127.084 465.787 159.364 459.37 163.07L 282.529 265.29C 276.15 269.004 266.4 269.405 260.839 266.193Z"/>
<path id="path20_fill" d="M 260.553 266.173L 3.75445 117.776C -1.807 114.564 -1.10507 108.951 5.29715 105.246L 182.145 3.07167C 188.57 -0.641918 198.282 -1.04339 203.835 2.16837L 460.634 150.534C 466.195 153.746 465.501 159.359 459.091 163.073L 282.243 265.277C 275.864 268.983 266.114 269.385 260.553 266.173Z"/>
<path id="path21_fill" d="M 97.6571 97.9414L 11.5971 48.2414C -5.60287 38.3114 -3.40287 20.9614 16.4171 9.4914C 36.2871 -1.9786 66.3371 -3.22858 83.5471 6.70142L 169.597 56.3914L 97.6571 97.9414Z"/>
<path id="path22_fill" d="M 97.6571 97.9257L 11.5971 48.2457C -5.60287 38.3157 -3.40287 20.9557 16.4171 9.4857C 36.2871 -1.9843 66.3371 -3.2243 83.5471 6.7057L 169.597 56.3957L 97.6571 97.9257Z"/>
<path id="path23_fill" d="M 300.16 328.71L 8.54492e-06 157.9L 273.5 -8.54492e-06L 573.71 170.8C 585.85 177.8 584.33 190.06 570.3 198.16L 347.55 326.74C 333.53 334.84 312.31 335.72 300.16 328.71Z"/>
<path id="path24_fill" d="M 97.2031 61.0594L 1.36309 5.72937C -0.636909 4.54938 -0.426901 2.48937 1.9331 1.12937C 4.2931 -0.240631 7.8731 -0.380648 9.9331 0.799352L 105.763 56.1294C 107.813 57.3094 107.553 59.3694 105.193 60.7294C 102.813 62.0894 99.2431 62.2794 97.2031 61.0594Z"/>
<path id="path25_fill" d="M 97.2031 61.066L 1.36305 5.736C -0.63695 4.55601 -0.426943 2.49599 1.93306 1.12599C 4.30306 -0.234011 7.87306 -0.383998 9.93306 0.796002L 105.773 56.126C 107.773 57.306 107.553 59.376 105.193 60.736C 102.793 62.066 99.2031 62.256 97.2031 61.066Z"/>
<path id="path26_fill" d="M 97.2021 61.066L 1.36215 5.73599C -0.637851 4.55599 -0.427895 2.48598 1.9421 1.12598C 4.3021 -0.234021 7.87211 -0.384007 9.94211 0.795993L 105.782 56.126C 107.782 57.306 107.562 59.366 105.202 60.736C 102.812 62.096 99.2421 62.246 97.2021 61.066Z"/>
<path id="path27_fill" d="M 581.77 199.74C 582.25 205.39 578.37 211.45 570.26 216.13L 347.55 344.71C 333.55 352.81 312.31 353.71 300.16 346.71L 18.05 186.14L 18.05 168.14L 300.16 328.71C 312.31 335.71 333.53 334.84 347.55 326.71L 570.26 198.16C 573.086 196.466 575.495 194.159 577.31 191.41L 577.31 191.35C 584.94 180.18 585.13 162.1 575.42 156.49L 273.42 -9.76562e-06L 8.54492e-06 142.46L 8.54492e-06 191.33L 18 201.59L 300.16 362.13C 312.31 369.13 333.53 368.26 347.55 360.13L 570.26 231.58C 580.37 225.75 584.85 210.36 582.05 199.58L 581.77 199.74Z"/>
<path id="path28_fill" d="M 300.16 328.71L 8.54492e-06 157.91L 273.5 8.54492e-06L 573.71 170.8C 585.85 177.8 584.33 190.06 570.3 198.16L 347.55 326.71C 333.53 334.84 312.31 335.71 300.16 328.71Z"/>
<path id="path29_stroke" d="M 2.11675 3.84988C 2.59718 4.1223 3.20748 3.95368 3.4799 3.47325C 3.75231 2.99283 3.58369 2.38253 3.10327 2.11011L 2.11675 3.84988ZM -3.66211e-06 1.50001L -0.499725 0.633829C -0.810436 0.813084 -1.00133 1.14503 -0.999997 1.50374C -0.998661 1.86245 -0.805298 2.19296 -0.493261 2.3699L -3.66211e-06 1.50001ZM 3.09972 0.866201C 3.57811 0.590212 3.74218 -0.0213255 3.46619 -0.499707C 3.1902 -0.978088 2.57866 -1.14216 2.10028 -0.866171L 3.09972 0.866201ZM 3.10327 2.11011L 0.493254 0.630131L -0.493261 2.3699L 2.11675 3.84988L 3.10327 2.11011ZM 0.499718 2.3662L 3.09972 0.866201L 2.10028 -0.866171L -0.499725 0.633829L 0.499718 2.3662Z"/>
<path id="path30_stroke" d="M -0.500013 138.834C -0.978302 139.11 -1.14217 139.722 -0.86602 140.2C -0.589871 140.678 0.0217215 140.842 0.50001 140.566L -0.500013 138.834ZM 242.46 0.866019C 242.938 0.58987 243.102 -0.0217228 242.826 -0.500012C 242.55 -0.978301 241.938 -1.14217 241.46 -0.866019L 242.46 0.866019ZM 3.02043 139.111C 3.49872 138.835 3.66258 138.223 3.38643 137.745C 3.11029 137.267 2.49869 137.103 2.0204 137.379L 3.02043 139.111ZM 7.06124 134.468C 6.58295 134.745 6.41908 135.356 6.69523 135.834C 6.97138 136.313 7.58297 136.477 8.06126 136.2L 7.06124 134.468ZM 13.1021 133.29C 13.5804 133.014 13.7442 132.402 13.4681 131.924C 13.192 131.446 12.5804 131.282 12.1021 131.558L 13.1021 133.29ZM 17.1429 128.648C 16.6646 128.924 16.5007 129.535 16.7769 130.014C 17.053 130.492 17.6646 130.656 18.1429 130.38L 17.1429 128.648ZM 23.1838 127.469C 23.662 127.193 23.8259 126.581 23.5498 126.103C 23.2736 125.625 22.662 125.461 22.1837 125.737L 23.1838 127.469ZM 27.2246 122.827C 26.7463 123.103 26.5824 123.714 26.8586 124.193C 27.1347 124.671 27.7463 124.835 28.2246 124.559L 27.2246 122.827ZM 33.2654 121.648C 33.7437 121.372 33.9076 120.761 33.6314 120.282C 33.3553 119.804 32.7437 119.64 32.2654 119.916L 33.2654 121.648ZM 37.3062 117.006C 36.8279 117.282 36.6641 117.894 36.9402 118.372C 37.2164 118.85 37.828 119.014 38.3063 118.738L 37.3062 117.006ZM 43.3471 115.827C 43.8254 115.551 43.9893 114.94 43.7131 114.461C 43.437 113.983 42.8254 113.819 42.3471 114.095L 43.3471 115.827ZM 47.3879 111.185C 46.9096 111.461 46.7457 112.073 47.0219 112.551C 47.298 113.029 47.9096 113.193 48.3879 112.917L 47.3879 111.185ZM 53.4288 110.007C 53.907 109.731 54.0709 109.119 53.7948 108.641C 53.5186 108.162 52.907 107.998 52.4287 108.275L 53.4288 110.007ZM 57.4696 105.364C 56.9913 105.64 56.8274 106.252 57.1036 106.73C 57.3797 107.209 57.9913 107.372 58.4696 107.096L 57.4696 105.364ZM 63.5104 104.186C 63.9887 103.91 64.1526 103.298 63.8764 102.82C 63.6003 102.341 62.9887 102.178 62.5104 102.454L 63.5104 104.186ZM 67.5512 99.5434C 67.0729 99.8195 66.9091 100.431 67.1852 100.909C 67.4614 101.388 68.073 101.552 68.5513 101.275L 67.5512 99.5434ZM 73.5921 98.365C 74.0704 98.0888 74.2342 97.4772 73.9581 96.999C 73.682 96.5207 73.0704 96.3568 72.5921 96.6329L 73.5921 98.365ZM 77.6329 93.7225C 77.1546 93.9987 76.9907 94.6103 77.2669 95.0886C 77.543 95.5668 78.1546 95.7307 78.6329 95.4546L 77.6329 93.7225ZM 83.6738 92.5442C 84.152 92.268 84.3159 91.6564 84.0398 91.1781C 83.7636 90.6998 83.152 90.536 82.6737 90.8121L 83.6738 92.5442ZM 87.7146 87.9017C 87.2363 88.1778 87.0724 88.7894 87.3486 89.2677C 87.6247 89.746 88.2363 89.9099 88.7146 89.6337L 87.7146 87.9017ZM 93.7554 86.7233C 94.2337 86.4472 94.3976 85.8356 94.1214 85.3573C 93.8453 84.879 93.2337 84.7151 92.7554 84.9913L 93.7554 86.7233ZM 97.7962 82.0809C 97.3179 82.357 97.1541 82.9686 97.4302 83.4469C 97.7064 83.9252 98.318 84.0891 98.7963 83.8129L 97.7962 82.0809ZM 103.837 80.9025C 104.315 80.6263 104.479 80.0147 104.203 79.5365C 103.927 79.0582 103.315 78.8943 102.837 79.1704L 103.837 80.9025ZM 107.878 76.26C 107.4 76.5362 107.236 77.1478 107.512 77.6261C 107.788 78.1043 108.4 78.2682 108.878 77.9921L 107.878 76.26ZM 113.919 75.0816C 114.397 74.8055 114.561 74.1939 114.285 73.7156C 114.009 73.2373 113.397 73.0735 112.919 73.3496L 113.919 75.0816ZM 117.96 70.4392C 117.481 70.7153 117.317 71.3269 117.594 71.8052C 117.87 72.2835 118.481 72.4474 118.96 72.1712L 117.96 70.4392ZM 124 69.2608C 124.479 68.9847 124.643 68.3731 124.366 67.8948C 124.09 67.4165 123.479 67.2526 123 67.5288L 124 69.2608ZM 128.041 64.6184C 127.563 64.8945 127.399 65.5061 127.675 65.9844C 127.951 66.4627 128.563 66.6265 129.041 66.3504L 128.041 64.6184ZM 134.082 63.44C 134.56 63.1638 134.724 62.5522 134.448 62.074C 134.172 61.5957 133.56 61.4318 133.082 61.7079L 134.082 63.44ZM 138.123 58.7975C 137.645 59.0737 137.481 59.6853 137.757 60.1636C 138.033 60.6418 138.645 60.8057 139.123 60.5296L 138.123 58.7975ZM 144.164 57.6191C 144.642 57.343 144.806 56.7314 144.53 56.2531C 144.254 55.7748 143.642 55.611 143.164 55.8871L 144.164 57.6191ZM 148.205 52.9767C 147.726 53.2528 147.562 53.8644 147.839 54.3427C 148.115 54.821 148.726 54.9849 149.205 54.7087L 148.205 52.9767ZM 154.245 51.7983C 154.724 51.5222 154.888 50.9106 154.611 50.4323C 154.335 49.954 153.724 49.7901 153.245 50.0663L 154.245 51.7983ZM 158.286 47.1559C 157.808 47.432 157.644 48.0436 157.92 48.5219C 158.196 49.0002 158.808 49.164 159.286 48.8879L 158.286 47.1559ZM 164.327 45.9775C 164.805 45.7013 164.969 45.0897 164.693 44.6115C 164.417 44.1332 163.805 43.9693 163.327 44.2454L 164.327 45.9775ZM 168.368 41.335C 167.89 41.6112 167.726 42.2228 168.002 42.7011C 168.278 43.1793 168.89 43.3432 169.368 43.0671L 168.368 41.335ZM 174.409 40.1566C 174.887 39.8805 175.051 39.2689 174.775 38.7906C 174.499 38.3123 173.887 38.1485 173.409 38.4246L 174.409 40.1566ZM 178.45 35.5142C 177.971 35.7903 177.807 36.4019 178.084 36.8802C 178.36 37.3585 178.971 37.5224 179.45 37.2462L 178.45 35.5142ZM 184.49 34.3358C 184.969 34.0597 185.133 33.4481 184.856 32.9698C 184.58 32.4915 183.969 32.3276 183.49 32.6038L 184.49 34.3358ZM 188.531 29.6934C 188.053 29.9695 187.889 30.5811 188.165 31.0594C 188.441 31.5377 189.053 31.7015 189.531 31.4254L 188.531 29.6934ZM 194.572 28.515C 195.05 28.2388 195.214 27.6272 194.938 27.1489C 194.662 26.6707 194.05 26.5068 193.572 26.7829L 194.572 28.515ZM 198.613 23.8725C 198.135 24.1487 197.971 24.7603 198.247 25.2386C 198.523 25.7168 199.135 25.8807 199.613 25.6046L 198.613 23.8725ZM 204.654 22.6941C 205.132 22.418 205.296 21.8064 205.02 21.3281C 204.744 20.8498 204.132 20.686 203.654 20.9621L 204.654 22.6941ZM 208.695 18.0517C 208.216 18.3278 208.052 18.9394 208.329 19.4177C 208.605 19.896 209.216 20.0599 209.695 19.7837L 208.695 18.0517ZM 214.735 16.8733C 215.214 16.5972 215.378 15.9856 215.101 15.5073C 214.825 15.029 214.214 14.8651 213.735 15.1413L 214.735 16.8733ZM 218.776 12.2309C 218.298 12.507 218.134 13.1186 218.41 13.5969C 218.686 14.0752 219.298 14.239 219.776 13.9629L 218.776 12.2309ZM 224.817 11.0525C 225.295 10.7763 225.459 10.1647 225.183 9.68645C 224.907 9.20816 224.295 9.04429 223.817 9.32044L 224.817 11.0525ZM 228.858 6.41002C 228.38 6.68617 228.216 7.29777 228.492 7.77605C 228.768 8.25434 229.38 8.41821 229.858 8.14206L 228.858 6.41002ZM 234.899 5.23164C 235.377 4.9555 235.541 4.3439 235.265 3.86561C 234.989 3.38732 234.377 3.22346 233.899 3.49961L 234.899 5.23164ZM 238.94 0.58919C 238.461 0.865339 238.297 1.47693 238.574 1.95522C 238.85 2.43351 239.461 2.59738 239.94 2.32123L 238.94 0.58919ZM 0.50001 140.566L 3.02043 139.111L 2.0204 137.379L -0.500013 138.834L 0.50001 140.566ZM 8.06126 136.2L 13.1021 133.29L 12.1021 131.558L 7.06124 134.468L 8.06126 136.2ZM 18.1429 130.38L 23.1838 127.469L 22.1837 125.737L 17.1429 128.648L 18.1429 130.38ZM 28.2246 124.559L 33.2654 121.648L 32.2654 119.916L 27.2246 122.827L 28.2246 124.559ZM 38.3063 118.738L 43.3471 115.827L 42.3471 114.095L 37.3062 117.006L 38.3063 118.738ZM 48.3879 112.917L 53.4288 110.007L 52.4287 108.275L 47.3879 111.185L 48.3879 112.917ZM 58.4696 107.096L 63.5104 104.186L 62.5104 102.454L 57.4696 105.364L 58.4696 107.096ZM 68.5513 101.275L 73.5921 98.365L 72.5921 96.6329L 67.5512 99.5434L 68.5513 101.275ZM 78.6329 95.4546L 83.6738 92.5442L 82.6737 90.8121L 77.6329 93.7225L 78.6329 95.4546ZM 88.7146 89.6337L 93.7554 86.7233L 92.7554 84.9913L 87.7146 87.9017L 88.7146 89.6337ZM 98.7963 83.8129L 103.837 80.9025L 102.837 79.1704L 97.7962 82.0809L 98.7963 83.8129ZM 108.878 77.9921L 113.919 75.0816L 112.919 73.3496L 107.878 76.26L 108.878 77.9921ZM 118.96 72.1712L 124 69.2608L 123 67.5288L 117.96 70.4392L 118.96 72.1712ZM 129.041 66.3504L 134.082 63.44L 133.082 61.7079L 128.041 64.6184L 129.041 66.3504ZM 139.123 60.5296L 144.164 57.6191L 143.164 55.8871L 138.123 58.7975L 139.123 60.5296ZM 149.205 54.7087L 154.245 51.7983L 153.245 50.0663L 148.205 52.9767L 149.205 54.7087ZM 159.286 48.8879L 164.327 45.9775L 163.327 44.2454L 158.286 47.1559L 159.286 48.8879ZM 169.368 43.0671L 174.409 40.1566L 173.409 38.4246L 168.368 41.335L 169.368 43.0671ZM 179.45 37.2462L 184.49 34.3358L 183.49 32.6038L 178.45 35.5142L 179.45 37.2462ZM 189.531 31.4254L 194.572 28.515L 193.572 26.7829L 188.531 29.6934L 189.531 31.4254ZM 199.613 25.6046L 204.654 22.6941L 203.654 20.9621L 198.613 23.8725L 199.613 25.6046ZM 209.695 19.7837L 214.735 16.8733L 213.735 15.1413L 208.695 18.0517L 209.695 19.7837ZM 219.776 13.9629L 224.817 11.0525L 223.817 9.32044L 218.776 12.2309L 219.776 13.9629ZM 229.858 8.14206L 234.899 5.23164L 233.899 3.49961L 228.858 6.41002L 229.858 8.14206ZM 239.94 2.32123L 242.46 0.866019L 241.46 -0.866019L 238.94 0.58919L 239.94 2.32123Z"/>
<path id="path31_stroke" d="M -0.499739 0.63381C -0.978122 0.909796 -1.1422 1.52133 -0.866211 1.99972C -0.590224 2.4781 0.0213124 2.64217 0.499695 2.36619L -0.499739 0.63381ZM 2.60001 -1.2207e-06L 3.09328 -0.869878C 2.78502 -1.04468 2.40726 -1.04328 2.1003 -0.86619L 2.60001 -1.2207e-06ZM 4.71673 2.34989C 5.19715 2.62231 5.80745 2.4537 6.07988 1.97328C 6.3523 1.49286 6.18369 0.882559 5.70327 0.610133L 4.71673 2.34989ZM 0.499695 2.36619L 3.09973 0.866187L 2.1003 -0.86619L -0.499739 0.63381L 0.499695 2.36619ZM 2.10675 0.869875L 4.71673 2.34989L 5.70327 0.610133L 3.09328 -0.869878L 2.10675 0.869875Z"/>
<path id="path32_stroke" d="M 257.935 -0.869137C 257.455 -1.14229 256.844 -0.974604 256.571 -0.494598C 256.298 -0.0145923 256.465 0.595964 256.945 0.869118L 257.935 -0.869137ZM 529.22 154.66L 529.721 153.794L 529.715 153.791L 529.22 154.66ZM 526.05 180.15L 525.552 179.283L 525.55 179.284L 526.05 180.15ZM 318.56 299.94L 318.06 299.074L 318.56 299.94ZM 274.42 301.77L 274.92 300.904L 274.915 300.901L 274.42 301.77ZM 0.494557 144.751C 0.0145416 144.478 -0.596009 144.645 -0.869146 145.125C -1.14228 145.605 -0.974576 146.216 -0.494561 146.489L 0.494557 144.751ZM 2.14409 147.991C 2.62411 148.264 3.23466 148.096 3.5078 147.616C 3.78093 147.136 3.61323 146.525 3.13321 146.252L 2.14409 147.991ZM 8.41052 149.255C 7.9305 148.982 7.31995 149.15 7.04681 149.63C 6.77368 150.11 6.94138 150.72 7.4214 150.993L 8.41052 149.255ZM 12.6987 153.996C 13.1787 154.269 13.7893 154.102 14.0624 153.622C 14.3355 153.142 14.1678 152.531 13.6878 152.258L 12.6987 153.996ZM 18.9651 155.261C 18.4851 154.988 17.8746 155.156 17.6014 155.636C 17.3283 156.116 17.496 156.726 17.976 156.999L 18.9651 155.261ZM 23.2533 160.002C 23.7333 160.275 24.3439 160.108 24.617 159.628C 24.8902 159.148 24.7225 158.537 24.2424 158.264L 23.2533 160.002ZM 29.5197 161.267C 29.0397 160.994 28.4292 161.161 28.156 161.641C 27.8829 162.121 28.0506 162.732 28.5306 163.005L 29.5197 161.267ZM 33.8079 166.008C 34.288 166.281 34.8985 166.113 35.1716 165.633C 35.4448 165.153 35.2771 164.543 34.7971 164.27L 33.8079 166.008ZM 40.0744 167.272C 39.5943 166.999 38.9838 167.167 38.7107 167.647C 38.4375 168.127 38.6052 168.738 39.0852 169.011L 40.0744 167.272ZM 44.3625 172.014C 44.8426 172.287 45.4531 172.119 45.7263 171.639C 45.9994 171.159 45.8317 170.548 45.3517 170.275L 44.3625 172.014ZM 50.629 173.278C 50.149 173.005 49.5384 173.173 49.2653 173.653C 48.9921 174.133 49.1598 174.743 49.6399 175.017L 50.629 173.278ZM 54.9172 178.019C 55.3972 178.293 56.0077 178.125 56.2809 177.645C 56.554 177.165 56.3863 176.554 55.9063 176.281L 54.9172 178.019ZM 61.1836 179.284C 60.7036 179.011 60.093 179.179 59.8199 179.659C 59.5467 180.139 59.7145 180.749 60.1945 181.022L 61.1836 179.284ZM 65.4718 184.025C 65.9518 184.298 66.5623 184.131 66.8355 183.651C 67.1086 183.171 66.9409 182.56 66.4609 182.287L 65.4718 184.025ZM 71.7382 185.29C 71.2582 185.017 70.6476 185.184 70.3745 185.664C 70.1014 186.144 70.2691 186.755 70.7491 187.028L 71.7382 185.29ZM 76.0264 190.031C 76.5064 190.304 77.117 190.136 77.3901 189.656C 77.6632 189.176 77.4955 188.566 77.0155 188.293L 76.0264 190.031ZM 82.2928 191.296C 81.8128 191.022 81.2023 191.19 80.9291 191.67C 80.656 192.15 80.8237 192.761 81.3037 193.034L 82.2928 191.296ZM 86.581 196.037C 87.061 196.31 87.6716 196.142 87.9447 195.662C 88.2178 195.182 88.0501 194.572 87.5701 194.298L 86.581 196.037ZM 92.8474 197.301C 92.3674 197.028 91.7569 197.196 91.4837 197.676C 91.2106 198.156 91.3783 198.766 91.8583 199.04L 92.8474 197.301ZM 97.1356 202.042C 97.6156 202.316 98.2262 202.148 98.4993 201.668C 98.7725 201.188 98.6048 200.577 98.1247 200.304L 97.1356 202.042ZM 103.402 203.307C 102.922 203.034 102.311 203.202 102.038 203.682C 101.765 204.162 101.933 204.772 102.413 205.045L 103.402 203.307ZM 107.69 208.048C 108.17 208.321 108.781 208.154 109.054 207.674C 109.327 207.194 109.159 206.583 108.679 206.31L 107.69 208.048ZM 113.957 209.313C 113.477 209.04 112.866 209.207 112.593 209.687C 112.32 210.167 112.488 210.778 112.968 211.051L 113.957 209.313ZM 118.245 214.054C 118.725 214.327 119.335 214.159 119.609 213.679C 119.882 213.199 119.714 212.589 119.234 212.316L 118.245 214.054ZM 124.511 215.319C 124.031 215.046 123.421 215.213 123.148 215.693C 122.874 216.173 123.042 216.784 123.522 217.057L 124.511 215.319ZM 128.799 220.06C 129.279 220.333 129.89 220.165 130.163 219.685C 130.436 219.205 130.269 218.595 129.789 218.322L 128.799 220.06ZM 135.066 221.324C 134.586 221.051 133.975 221.219 133.702 221.699C 133.429 222.179 133.597 222.79 134.077 223.063L 135.066 221.324ZM 139.354 226.066C 139.834 226.339 140.445 226.171 140.718 225.691C 140.991 225.211 140.823 224.6 140.343 224.327L 139.354 226.066ZM 145.621 227.33C 145.14 227.057 144.53 227.225 144.257 227.705C 143.984 228.185 144.151 228.795 144.631 229.068L 145.621 227.33ZM 149.909 232.071C 150.389 232.344 150.999 232.177 151.272 231.697C 151.546 231.217 151.378 230.606 150.898 230.333L 149.909 232.071ZM 156.175 233.336C 155.695 233.063 155.085 233.231 154.811 233.711C 154.538 234.191 154.706 234.801 155.186 235.074L 156.175 233.336ZM 160.463 238.077C 160.943 238.35 161.554 238.183 161.827 237.703C 162.1 237.223 161.932 236.612 161.452 236.339L 160.463 238.077ZM 166.73 239.342C 166.25 239.069 165.639 239.236 165.366 239.716C 165.093 240.196 165.261 240.807 165.741 241.08L 166.73 239.342ZM 171.018 244.083C 171.498 244.356 172.108 244.188 172.382 243.708C 172.655 243.228 172.487 242.618 172.007 242.345L 171.018 244.083ZM 177.284 245.347C 176.804 245.074 176.194 245.242 175.921 245.722C 175.648 246.202 175.815 246.813 176.295 247.086L 177.284 245.347ZM 181.573 250.089C 182.053 250.362 182.663 250.194 182.936 249.714C 183.209 249.234 183.042 248.624 182.562 248.35L 181.573 250.089ZM 187.839 251.353C 187.359 251.08 186.748 251.248 186.475 251.728C 186.202 252.208 186.37 252.818 186.85 253.092L 187.839 251.353ZM 192.127 256.094C 192.607 256.368 193.218 256.2 193.491 255.72C 193.764 255.24 193.596 254.629 193.116 254.356L 192.127 256.094ZM 198.394 257.359C 197.914 257.086 197.303 257.254 197.03 257.734C 196.757 258.214 196.924 258.824 197.404 259.097L 198.394 257.359ZM 202.682 262.1C 203.162 262.373 203.772 262.206 204.045 261.726C 204.319 261.246 204.151 260.635 203.671 260.362L 202.682 262.1ZM 208.948 263.365C 208.468 263.092 207.858 263.259 207.584 263.739C 207.311 264.219 207.479 264.83 207.959 265.103L 208.948 263.365ZM 213.236 268.106C 213.716 268.379 214.327 268.211 214.6 267.731C 214.873 267.251 214.706 266.641 214.225 266.368L 213.236 268.106ZM 219.503 269.371C 219.023 269.097 218.412 269.265 218.139 269.745C 217.866 270.225 218.034 270.836 218.514 271.109L 219.503 269.371ZM 223.791 274.112C 224.271 274.385 224.882 274.217 225.155 273.737C 225.428 273.257 225.26 272.647 224.78 272.373L 223.791 274.112ZM 230.057 275.376C 229.577 275.103 228.967 275.271 228.694 275.751C 228.421 276.231 228.588 276.841 229.068 277.115L 230.057 275.376ZM 234.346 280.118C 234.826 280.391 235.436 280.223 235.709 279.743C 235.982 279.263 235.815 278.652 235.335 278.379L 234.346 280.118ZM 240.612 281.382C 240.132 281.109 239.521 281.277 239.248 281.757C 238.975 282.237 239.143 282.847 239.623 283.12L 240.612 281.382ZM 244.9 286.123C 245.38 286.396 245.991 286.229 246.264 285.749C 246.537 285.269 246.369 284.658 245.889 284.385L 244.9 286.123ZM 251.167 287.388C 250.687 287.115 250.076 287.282 249.803 287.762C 249.53 288.242 249.698 288.853 250.178 289.126L 251.167 287.388ZM 255.455 292.129C 255.935 292.402 256.545 292.234 256.819 291.754C 257.092 291.274 256.924 290.664 256.444 290.391L 255.455 292.129ZM 261.721 293.394C 261.241 293.121 260.631 293.288 260.358 293.768C 260.084 294.248 260.252 294.859 260.732 295.132L 261.721 293.394ZM 266.009 298.135C 266.489 298.408 267.1 298.24 267.373 297.76C 267.646 297.28 267.479 296.67 266.999 296.397L 266.009 298.135ZM 272.276 299.399C 271.796 299.126 271.185 299.294 270.912 299.774C 270.639 300.254 270.807 300.865 271.287 301.138L 272.276 299.399ZM 276.575 303.977C 277.08 304.199 277.671 303.97 277.893 303.465C 278.116 302.959 277.886 302.369 277.381 302.146L 276.575 303.977ZM 282.65 303.919C 282.114 303.786 281.572 304.113 281.439 304.649C 281.307 305.185 281.633 305.727 282.169 305.86L 282.65 303.919ZM 287.949 306.875C 288.498 306.935 288.992 306.539 289.052 305.99C 289.113 305.441 288.716 304.947 288.168 304.887L 287.949 306.875ZM 293.783 305.178C 293.23 305.18 292.784 305.629 292.786 306.181C 292.788 306.734 293.238 307.18 293.79 307.178L 293.783 305.178ZM 299.621 306.85C 300.17 306.79 300.567 306.297 300.508 305.748C 300.448 305.199 299.955 304.802 299.406 304.861L 299.621 306.85ZM 304.967 303.966C 304.427 304.082 304.083 304.614 304.199 305.154C 304.315 305.694 304.847 306.038 305.387 305.922L 304.967 303.966ZM 311.027 304.382C 311.551 304.207 311.833 303.64 311.658 303.116C 311.483 302.593 310.916 302.31 310.392 302.486L 311.027 304.382ZM 315.589 300.38C 315.092 300.621 314.883 301.219 315.124 301.716C 315.364 302.213 315.962 302.421 316.459 302.181L 315.589 300.38ZM 321.654 299.309C 322.132 299.033 322.296 298.421 322.02 297.943C 321.744 297.464 321.132 297.3 320.654 297.577L 321.654 299.309ZM 325.841 294.582C 325.363 294.858 325.199 295.47 325.475 295.948C 325.751 296.426 326.363 296.59 326.841 296.314L 325.841 294.582ZM 332.028 293.319C 332.506 293.043 332.67 292.431 332.394 291.953C 332.118 291.475 331.506 291.311 331.028 291.587L 332.028 293.319ZM 336.215 288.592C 335.737 288.868 335.573 289.48 335.849 289.958C 336.125 290.437 336.737 290.601 337.215 290.324L 336.215 288.592ZM 342.403 287.33C 342.881 287.054 343.045 286.442 342.769 285.964C 342.493 285.485 341.881 285.321 341.403 285.598L 342.403 287.33ZM 346.59 282.603C 346.112 282.879 345.948 283.491 346.224 283.969C 346.5 284.447 347.112 284.611 347.59 284.335L 346.59 282.603ZM 352.777 281.34C 353.255 281.064 353.419 280.452 353.143 279.974C 352.867 279.496 352.255 279.332 351.777 279.608L 352.777 281.34ZM 356.964 276.613C 356.486 276.889 356.322 277.501 356.598 277.979C 356.874 278.458 357.486 278.622 357.964 278.345L 356.964 276.613ZM 363.152 275.351C 363.63 275.075 363.794 274.463 363.518 273.985C 363.242 273.506 362.63 273.342 362.152 273.619L 363.152 275.351ZM 367.339 270.624C 366.861 270.9 366.697 271.512 366.973 271.99C 367.249 272.468 367.861 272.632 368.339 272.356L 367.339 270.624ZM 373.526 269.361C 374.004 269.085 374.168 268.473 373.892 267.995C 373.616 267.517 373.004 267.353 372.526 267.629L 373.526 269.361ZM 377.713 264.634C 377.235 264.91 377.071 265.522 377.347 266C 377.623 266.479 378.235 266.643 378.713 266.366L 377.713 264.634ZM 383.901 263.372C 384.379 263.096 384.543 262.484 384.267 262.006C 383.991 261.527 383.379 261.363 382.901 261.64L 383.901 263.372ZM 388.088 258.645C 387.61 258.921 387.446 259.533 387.722 260.011C 387.998 260.489 388.61 260.653 389.088 260.377L 388.088 258.645ZM 394.275 257.382C 394.753 257.106 394.917 256.494 394.641 256.016C 394.365 255.538 393.753 255.374 393.275 255.65L 394.275 257.382ZM 398.462 252.655C 397.984 252.931 397.82 253.543 398.096 254.021C 398.372 254.5 398.984 254.664 399.462 254.387L 398.462 252.655ZM 404.65 251.393C 405.128 251.117 405.292 250.505 405.016 250.027C 404.74 249.548 404.128 249.384 403.65 249.661L 404.65 251.393ZM 408.837 246.666C 408.359 246.942 408.195 247.554 408.471 248.032C 408.747 248.51 409.359 248.674 409.837 248.398L 408.837 246.666ZM 415.024 245.403C 415.502 245.127 415.666 244.515 415.39 244.037C 415.114 243.559 414.502 243.395 414.024 243.671L 415.024 245.403ZM 419.211 240.676C 418.733 240.952 418.569 241.564 418.845 242.042C 419.121 242.521 419.733 242.685 420.211 242.408L 419.211 240.676ZM 425.399 239.414C 425.877 239.138 426.041 238.526 425.765 238.048C 425.489 237.569 424.877 237.405 424.399 237.682L 425.399 239.414ZM 429.586 234.687C 429.108 234.963 428.944 235.575 429.22 236.053C 429.496 236.531 430.108 236.695 430.586 236.419L 429.586 234.687ZM 435.773 233.424C 436.251 233.148 436.415 232.536 436.139 232.058C 435.863 231.58 435.251 231.416 434.773 231.692L 435.773 233.424ZM 439.96 228.697C 439.482 228.973 439.318 229.585 439.594 230.063C 439.87 230.542 440.482 230.706 440.96 230.429L 439.96 228.697ZM 446.148 227.435C 446.626 227.159 446.79 226.547 446.514 226.069C 446.238 225.59 445.626 225.426 445.148 225.703L 446.148 227.435ZM 450.335 222.708C 449.857 222.984 449.693 223.596 449.969 224.074C 450.245 224.552 450.857 224.716 451.335 224.44L 450.335 222.708ZM 456.522 221.445C 457 221.169 457.164 220.557 456.888 220.079C 456.612 219.601 456 219.437 455.522 219.713L 456.522 221.445ZM 460.709 216.718C 460.231 216.994 460.067 217.606 460.343 218.084C 460.619 218.563 461.231 218.727 461.709 218.45L 460.709 216.718ZM 466.897 215.456C 467.375 215.18 467.539 214.568 467.263 214.09C 466.987 213.611 466.375 213.447 465.897 213.724L 466.897 215.456ZM 471.084 210.729C 470.606 211.005 470.442 211.617 470.718 212.095C 470.994 212.573 471.606 212.737 472.084 212.461L 471.084 210.729ZM 477.271 209.466C 477.749 209.19 477.913 208.578 477.637 208.1C 477.361 207.622 476.749 207.458 476.271 207.734L 477.271 209.466ZM 481.458 204.739C 480.98 205.015 480.816 205.627 481.092 206.105C 481.368 206.584 481.98 206.748 482.458 206.471L 481.458 204.739ZM 487.646 203.477C 488.124 203.201 488.288 202.589 488.012 202.111C 487.736 201.632 487.124 201.468 486.646 201.745L 487.646 203.477ZM 491.833 198.75C 491.355 199.026 491.191 199.638 491.467 200.116C 491.743 200.594 492.355 200.758 492.833 200.482L 491.833 198.75ZM 498.02 197.487C 498.498 197.211 498.662 196.599 498.386 196.121C 498.11 195.643 497.498 195.479 497.02 195.755L 498.02 197.487ZM 502.207 192.76C 501.729 193.036 501.565 193.648 501.841 194.126C 502.117 194.605 502.729 194.769 503.207 194.492L 502.207 192.76ZM 508.395 191.498C 508.873 191.222 509.037 190.61 508.761 190.132C 508.485 189.653 507.873 189.489 507.395 189.766L 508.395 191.498ZM 512.582 186.771C 512.104 187.047 511.94 187.659 512.216 188.137C 512.492 188.615 513.104 188.779 513.582 188.503L 512.582 186.771ZM 518.769 185.508C 519.247 185.232 519.411 184.62 519.135 184.142C 518.859 183.664 518.247 183.5 517.769 183.776L 518.769 185.508ZM 522.956 180.781C 522.478 181.057 522.314 181.669 522.59 182.147C 522.866 182.626 523.478 182.79 523.956 182.513L 522.956 180.781ZM 528.942 179.516C 529.397 179.204 529.513 178.581 529.201 178.126C 528.888 177.671 528.266 177.555 527.81 177.867L 528.942 179.516ZM 531.845 174.468C 531.465 174.869 531.482 175.502 531.883 175.882C 532.284 176.262 532.917 176.245 533.297 175.844L 531.845 174.468ZM 536.607 171.1C 536.841 170.6 536.626 170.004 536.126 169.77C 535.626 169.536 535.03 169.751 534.796 170.251L 536.607 171.1ZM 535.848 165.397C 535.869 165.949 536.333 166.38 536.885 166.359C 537.437 166.337 537.868 165.873 537.846 165.321L 535.848 165.397ZM 536.08 159.652C 535.79 159.182 535.174 159.036 534.704 159.326C 534.234 159.615 534.088 160.231 534.378 160.702L 536.08 159.652ZM 530.903 156.975C 531.342 157.31 531.97 157.226 532.305 156.787C 532.64 156.349 532.557 155.721 532.118 155.386L 530.903 156.975ZM 527.101 152.304C 526.621 152.031 526.011 152.198 525.738 152.678C 525.464 153.158 525.632 153.769 526.112 154.042L 527.101 152.304ZM 520.886 151.068C 521.366 151.341 521.976 151.173 522.249 150.693C 522.523 150.213 522.355 149.603 521.875 149.33L 520.886 151.068ZM 516.648 146.355C 516.168 146.082 515.558 146.25 515.285 146.73C 515.011 147.21 515.179 147.82 515.659 148.094L 516.648 146.355ZM 510.433 145.119C 510.913 145.392 511.523 145.225 511.796 144.745C 512.069 144.265 511.902 143.654 511.422 143.381L 510.433 145.119ZM 506.195 140.407C 505.715 140.134 505.105 140.301 504.831 140.781C 504.558 141.261 504.726 141.872 505.206 142.145L 506.195 140.407ZM 499.979 139.171C 500.459 139.444 501.07 139.276 501.343 138.796C 501.616 138.316 501.449 137.706 500.969 137.433L 499.979 139.171ZM 495.742 134.458C 495.262 134.185 494.652 134.353 494.378 134.833C 494.105 135.313 494.273 135.923 494.753 136.197L 495.742 134.458ZM 489.526 133.222C 490.006 133.496 490.617 133.328 490.89 132.848C 491.163 132.368 490.996 131.757 490.516 131.484L 489.526 133.222ZM 485.289 128.51C 484.809 128.237 484.198 128.404 483.925 128.884C 483.652 129.364 483.82 129.975 484.3 130.248L 485.289 128.51ZM 479.073 127.274C 479.553 127.547 480.164 127.379 480.437 126.899C 480.71 126.419 480.543 125.809 480.062 125.536L 479.073 127.274ZM 474.836 122.561C 474.356 122.288 473.745 122.456 473.472 122.936C 473.199 123.416 473.367 124.027 473.847 124.3L 474.836 122.561ZM 468.62 121.325C 469.1 121.599 469.711 121.431 469.984 120.951C 470.257 120.471 470.089 119.86 469.609 119.587L 468.62 121.325ZM 464.383 116.613C 463.903 116.34 463.292 116.508 463.019 116.988C 462.746 117.468 462.914 118.078 463.394 118.351L 464.383 116.613ZM 458.167 115.377C 458.647 115.65 459.258 115.482 459.531 115.002C 459.804 114.522 459.636 113.912 459.156 113.639L 458.167 115.377ZM 453.93 110.665C 453.45 110.391 452.839 110.559 452.566 111.039C 452.293 111.519 452.461 112.13 452.941 112.403L 453.93 110.665ZM 447.714 109.429C 448.194 109.702 448.805 109.534 449.078 109.054C 449.351 108.574 449.183 107.963 448.703 107.69L 447.714 109.429ZM 443.477 104.716C 442.997 104.443 442.386 104.611 442.113 105.091C 441.84 105.571 442.008 106.181 442.488 106.454L 443.477 104.716ZM 437.261 103.48C 437.741 103.753 438.352 103.586 438.625 103.106C 438.898 102.626 438.73 102.015 438.25 101.742L 437.261 103.48ZM 433.024 98.7676C 432.544 98.4944 431.933 98.6621 431.66 99.1421C 431.387 99.6221 431.554 100.233 432.034 100.506L 433.024 98.7676ZM 426.808 97.5316C 427.288 97.8048 427.898 97.6371 428.172 97.1571C 428.445 96.6771 428.277 96.0665 427.797 95.7934L 426.808 97.5316ZM 422.571 92.8191C 422.091 92.546 421.48 92.7137 421.207 93.1937C 420.934 93.6737 421.101 94.2842 421.581 94.5574L 422.571 92.8191ZM 416.355 91.5832C 416.835 91.8563 417.445 91.6886 417.719 91.2086C 417.992 90.7286 417.824 90.1181 417.344 89.8449L 416.355 91.5832ZM 412.117 86.8707C 411.637 86.5975 411.027 86.7652 410.754 87.2452C 410.481 87.7252 410.648 88.3358 411.128 88.6089L 412.117 86.8707ZM 405.902 85.6347C 406.382 85.9079 406.992 85.7402 407.266 85.2602C 407.539 84.7802 407.371 84.1696 406.891 83.8964L 405.902 85.6347ZM 401.664 80.9222C 401.184 80.6491 400.574 80.8167 400.301 81.2967C 400.028 81.7768 400.195 82.3873 400.675 82.6605L 401.664 80.9222ZM 395.449 79.6862C 395.929 79.9594 396.539 79.7917 396.812 79.3117C 397.086 78.8317 396.918 78.2211 396.438 77.948L 395.449 79.6862ZM 391.211 74.9737C 390.731 74.7006 390.121 74.8683 389.848 75.3483C 389.574 75.8283 389.742 76.4389 390.222 76.712L 391.211 74.9737ZM 384.996 73.7378C 385.476 74.0109 386.086 73.8432 386.359 73.3632C 386.633 72.8832 386.465 72.2727 385.985 71.9995L 384.996 73.7378ZM 380.758 69.0253C 380.278 68.7521 379.668 68.9198 379.395 69.3998C 379.121 69.8798 379.289 70.4904 379.769 70.7635L 380.758 69.0253ZM 374.543 67.7893C 375.023 68.0625 375.633 67.8948 375.906 67.4148C 376.179 66.9348 376.012 66.3242 375.532 66.0511L 374.543 67.7893ZM 370.305 63.0768C 369.825 62.8037 369.215 62.9714 368.941 63.4514C 368.668 63.9314 368.836 64.5419 369.316 64.8151L 370.305 63.0768ZM 364.089 61.8409C 364.569 62.114 365.18 61.9463 365.453 61.4663C 365.726 60.9863 365.559 60.3757 365.079 60.1026L 364.089 61.8409ZM 359.852 57.1284C 359.372 56.8552 358.762 57.0229 358.488 57.5029C 358.215 57.9829 358.383 58.5935 358.863 58.8666L 359.852 57.1284ZM 353.636 55.8924C 354.116 56.1655 354.727 55.9979 355 55.5178C 355.273 55.0378 355.106 54.4273 354.626 54.1541L 353.636 55.8924ZM 349.399 51.1799C 348.919 50.9067 348.308 51.0744 348.035 51.5544C 347.762 52.0344 347.93 52.645 348.41 52.9182L 349.399 51.1799ZM 343.183 49.9439C 343.663 50.2171 344.274 50.0494 344.547 49.5694C 344.82 49.0894 344.652 48.4788 344.172 48.2057L 343.183 49.9439ZM 338.946 45.2314C 338.466 44.9583 337.855 45.126 337.582 45.606C 337.309 46.086 337.477 46.6965 337.957 46.9697L 338.946 45.2314ZM 332.73 43.9955C 333.21 44.2686 333.821 44.1009 334.094 43.6209C 334.367 43.1409 334.199 42.5304 333.719 42.2572L 332.73 43.9955ZM 328.493 39.283C 328.013 39.0098 327.402 39.1775 327.129 39.6575C 326.856 40.1375 327.024 40.7481 327.504 41.0212L 328.493 39.283ZM 322.277 38.047C 322.757 38.3202 323.368 38.1525 323.641 37.6725C 323.914 37.1925 323.746 36.5819 323.266 36.3088L 322.277 38.047ZM 318.04 33.3345C 317.56 33.0614 316.949 33.2291 316.676 33.7091C 316.403 34.1891 316.571 34.7996 317.051 35.0728L 318.04 33.3345ZM 311.824 32.0985C 312.304 32.3717 312.915 32.204 313.188 31.724C 313.461 31.244 313.293 30.6334 312.813 30.3603L 311.824 32.0985ZM 307.587 27.3861C 307.107 27.1129 306.496 27.2806 306.223 27.7606C 305.95 28.2406 306.118 28.8512 306.598 29.1243L 307.587 27.3861ZM 301.371 26.1501C 301.851 26.4232 302.462 26.2555 302.735 25.7755C 303.008 25.2955 302.84 24.685 302.36 24.4118L 301.371 26.1501ZM 297.134 21.4376C 296.654 21.1644 296.043 21.3321 295.77 21.8121C 295.497 22.2921 295.664 22.9027 296.144 23.1759L 297.134 21.4376ZM 290.918 20.2016C 291.398 20.4748 292.008 20.3071 292.282 19.8271C 292.555 19.3471 292.387 18.7365 291.907 18.4634L 290.918 20.2016ZM 286.681 15.4891C 286.201 15.216 285.59 15.3837 285.317 15.8637C 285.044 16.3437 285.211 16.9542 285.691 17.2274L 286.681 15.4891ZM 280.465 14.2532C 280.945 14.5263 281.555 14.3586 281.829 13.8786C 282.102 13.3986 281.934 12.7881 281.454 12.5149L 280.465 14.2532ZM 276.227 9.54067C 275.747 9.26752 275.137 9.43521 274.864 9.91521C 274.591 10.3952 274.758 11.0058 275.238 11.2789L 276.227 9.54067ZM 270.012 8.3047C 270.492 8.57785 271.102 8.41016 271.375 7.93016C 271.649 7.45015 271.481 6.8396 271.001 6.56644L 270.012 8.3047ZM 265.774 3.59221C 265.294 3.31906 264.684 3.48675 264.411 3.96675C 264.138 4.44676 264.305 5.05731 264.785 5.33047L 265.774 3.59221ZM 259.559 2.35624C 260.039 2.62939 260.649 2.4617 260.922 1.9817C 261.196 1.50169 261.028 0.891136 260.548 0.617982L 259.559 2.35624ZM -0.494561 146.489L 2.14409 147.991L 3.13321 146.252L 0.494557 144.751L -0.494561 146.489ZM 7.4214 150.993L 12.6987 153.996L 13.6878 152.258L 8.41052 149.255L 7.4214 150.993ZM 17.976 156.999L 23.2533 160.002L 24.2424 158.264L 18.9651 155.261L 17.976 156.999ZM 28.5306 163.005L 33.8079 166.008L 34.7971 164.27L 29.5197 161.267L 28.5306 163.005ZM 39.0852 169.011L 44.3625 172.014L 45.3517 170.275L 40.0744 167.272L 39.0852 169.011ZM 49.6399 175.017L 54.9172 178.019L 55.9063 176.281L 50.629 173.278L 49.6399 175.017ZM 60.1945 181.022L 65.4718 184.025L 66.4609 182.287L 61.1836 179.284L 60.1945 181.022ZM 70.7491 187.028L 76.0264 190.031L 77.0155 188.293L 71.7382 185.29L 70.7491 187.028ZM 81.3037 193.034L 86.581 196.037L 87.5701 194.298L 82.2928 191.296L 81.3037 193.034ZM 91.8583 199.04L 97.1356 202.042L 98.1247 200.304L 92.8474 197.301L 91.8583 199.04ZM 102.413 205.045L 107.69 208.048L 108.679 206.31L 103.402 203.307L 102.413 205.045ZM 112.968 211.051L 118.245 214.054L 119.234 212.316L 113.957 209.313L 112.968 211.051ZM 123.522 217.057L 128.799 220.06L 129.789 218.322L 124.511 215.319L 123.522 217.057ZM 134.077 223.063L 139.354 226.066L 140.343 224.327L 135.066 221.324L 134.077 223.063ZM 144.631 229.068L 149.909 232.071L 150.898 230.333L 145.621 227.33L 144.631 229.068ZM 155.186 235.074L 160.463 238.077L 161.452 236.339L 156.175 233.336L 155.186 235.074ZM 165.741 241.08L 171.018 244.083L 172.007 242.345L 166.73 239.342L 165.741 241.08ZM 176.295 247.086L 181.573 250.089L 182.562 248.35L 177.284 245.347L 176.295 247.086ZM 186.85 253.092L 192.127 256.094L 193.116 254.356L 187.839 251.353L 186.85 253.092ZM 197.404 259.097L 202.682 262.1L 203.671 260.362L 198.394 257.359L 197.404 259.097ZM 207.959 265.103L 213.236 268.106L 214.225 266.368L 208.948 263.365L 207.959 265.103ZM 218.514 271.109L 223.791 274.112L 224.78 272.373L 219.503 269.371L 218.514 271.109ZM 229.068 277.115L 234.346 280.118L 235.335 278.379L 230.057 275.376L 229.068 277.115ZM 239.623 283.12L 244.9 286.123L 245.889 284.385L 240.612 281.382L 239.623 283.12ZM 250.178 289.126L 255.455 292.129L 256.444 290.391L 251.167 287.388L 250.178 289.126ZM 260.732 295.132L 266.009 298.135L 266.999 296.397L 261.721 293.394L 260.732 295.132ZM 271.287 301.138L 273.925 302.639L 274.915 300.901L 272.276 299.399L 271.287 301.138ZM 273.92 302.636C 274.764 303.124 275.652 303.57 276.575 303.977L 277.381 302.146C 276.519 301.767 275.698 301.353 274.92 300.904L 273.92 302.636ZM 282.169 305.86C 284.023 306.319 285.96 306.657 287.949 306.875L 288.168 304.887C 286.26 304.678 284.411 304.355 282.65 303.919L 282.169 305.86ZM 293.79 307.178C 295.721 307.171 297.674 307.061 299.621 306.85L 299.406 304.861C 297.526 305.065 295.643 305.171 293.783 305.178L 293.79 307.178ZM 305.387 305.922C 307.305 305.509 309.193 304.996 311.027 304.382L 310.392 302.486C 308.632 303.075 306.815 303.569 304.967 303.966L 305.387 305.922ZM 316.459 302.181C 317.35 301.751 318.218 301.292 319.06 300.806L 318.06 299.074C 317.262 299.535 316.437 299.97 315.589 300.38L 316.459 302.181ZM 319.06 300.806L 321.654 299.309L 320.654 297.577L 318.06 299.074L 319.06 300.806ZM 326.841 296.314L 332.028 293.319L 331.028 291.587L 325.841 294.582L 326.841 296.314ZM 337.215 290.324L 342.403 287.33L 341.403 285.598L 336.215 288.592L 337.215 290.324ZM 347.59 284.335L 352.777 281.34L 351.777 279.608L 346.59 282.603L 347.59 284.335ZM 357.964 278.345L 363.152 275.351L 362.152 273.619L 356.964 276.613L 357.964 278.345ZM 368.339 272.356L 373.526 269.361L 372.526 267.629L 367.339 270.624L 368.339 272.356ZM 378.713 266.366L 383.901 263.372L 382.901 261.64L 377.713 264.634L 378.713 266.366ZM 389.088 260.377L 394.275 257.382L 393.275 255.65L 388.088 258.645L 389.088 260.377ZM 399.462 254.387L 404.65 251.393L 403.65 249.661L 398.462 252.655L 399.462 254.387ZM 409.837 248.398L 415.024 245.403L 414.024 243.671L 408.837 246.666L 409.837 248.398ZM 420.211 242.408L 425.399 239.414L 424.399 237.682L 419.211 240.676L 420.211 242.408ZM 430.586 236.419L 435.773 233.424L 434.773 231.692L 429.586 234.687L 430.586 236.419ZM 440.96 230.429L 446.148 227.435L 445.148 225.703L 439.96 228.697L 440.96 230.429ZM 451.335 224.44L 456.522 221.445L 455.522 219.713L 450.335 222.708L 451.335 224.44ZM 461.709 218.45L 466.897 215.456L 465.897 213.724L 460.709 216.718L 461.709 218.45ZM 472.084 212.461L 477.271 209.466L 476.271 207.734L 471.084 210.729L 472.084 212.461ZM 482.458 206.471L 487.646 203.477L 486.646 201.745L 481.458 204.739L 482.458 206.471ZM 492.833 200.482L 498.02 197.487L 497.02 195.755L 491.833 198.75L 492.833 200.482ZM 503.207 194.492L 508.395 191.498L 507.395 189.766L 502.207 192.76L 503.207 194.492ZM 513.582 188.503L 518.769 185.508L 517.769 183.776L 512.582 186.771L 513.582 188.503ZM 523.956 182.513L 526.55 181.016L 525.55 179.284L 522.956 180.781L 523.956 182.513ZM 526.547 181.017C 527.391 180.534 528.19 180.033 528.942 179.516L 527.81 177.867C 527.104 178.352 526.352 178.824 525.552 179.283L 526.547 181.017ZM 533.297 175.844C 534.731 174.329 535.841 172.735 536.607 171.1L 534.796 170.251C 534.133 171.667 533.152 173.087 531.845 174.468L 533.297 175.844ZM 537.846 165.321C 537.771 163.352 537.18 161.436 536.08 159.652L 534.378 160.702C 535.305 162.206 535.787 163.789 535.848 165.397L 537.846 165.321ZM 532.118 155.386C 531.387 154.827 530.587 154.296 529.721 153.794L 528.719 155.526C 529.517 155.987 530.245 156.471 530.903 156.975L 532.118 155.386ZM 529.715 153.791L 527.101 152.304L 526.112 154.042L 528.725 155.529L 529.715 153.791ZM 521.875 149.33L 516.648 146.355L 515.659 148.094L 520.886 151.068L 521.875 149.33ZM 511.422 143.381L 506.195 140.407L 505.206 142.145L 510.433 145.119L 511.422 143.381ZM 500.969 137.433L 495.742 134.458L 494.753 136.197L 499.979 139.171L 500.969 137.433ZM 490.516 131.484L 485.289 128.51L 484.3 130.248L 489.526 133.222L 490.516 131.484ZM 480.062 125.536L 474.836 122.561L 473.847 124.3L 479.073 127.274L 480.062 125.536ZM 469.609 119.587L 464.383 116.613L 463.394 118.351L 468.62 121.325L 469.609 119.587ZM 459.156 113.639L 453.93 110.665L 452.941 112.403L 458.167 115.377L 459.156 113.639ZM 448.703 107.69L 443.477 104.716L 442.488 106.454L 447.714 109.429L 448.703 107.69ZM 438.25 101.742L 433.024 98.7676L 432.034 100.506L 437.261 103.48L 438.25 101.742ZM 427.797 95.7934L 422.571 92.8191L 421.581 94.5574L 426.808 97.5316L 427.797 95.7934ZM 417.344 89.8449L 412.117 86.8707L 411.128 88.6089L 416.355 91.5832L 417.344 89.8449ZM 406.891 83.8964L 401.664 80.9222L 400.675 82.6605L 405.902 85.6347L 406.891 83.8964ZM 396.438 77.948L 391.211 74.9737L 390.222 76.712L 395.449 79.6862L 396.438 77.948ZM 385.985 71.9995L 380.758 69.0253L 379.769 70.7635L 384.996 73.7378L 385.985 71.9995ZM 375.532 66.0511L 370.305 63.0768L 369.316 64.8151L 374.543 67.7893L 375.532 66.0511ZM 365.079 60.1026L 359.852 57.1284L 358.863 58.8666L 364.089 61.8409L 365.079 60.1026ZM 354.626 54.1541L 349.399 51.1799L 348.41 52.9182L 353.636 55.8924L 354.626 54.1541ZM 344.172 48.2057L 338.946 45.2314L 337.957 46.9697L 343.183 49.9439L 344.172 48.2057ZM 333.719 42.2572L 328.493 39.283L 327.504 41.0212L 332.73 43.9955L 333.719 42.2572ZM 323.266 36.3088L 318.04 33.3345L 317.051 35.0728L 322.277 38.047L 323.266 36.3088ZM 312.813 30.3603L 307.587 27.3861L 306.598 29.1243L 311.824 32.0985L 312.813 30.3603ZM 302.36 24.4118L 297.134 21.4376L 296.144 23.1759L 301.371 26.1501L 302.36 24.4118ZM 291.907 18.4634L 286.681 15.4891L 285.691 17.2274L 290.918 20.2016L 291.907 18.4634ZM 281.454 12.5149L 276.227 9.54067L 275.238 11.2789L 280.465 14.2532L 281.454 12.5149ZM 271.001 6.56644L 265.774 3.59221L 264.785 5.33047L 270.012 8.3047L 271.001 6.56644ZM 260.548 0.617982L 257.935 -0.869137L 256.945 0.869118L 259.559 2.35624L 260.548 0.617982Z"/>
<path id="path33_fill" d="M 83.5711 6.69898C 66.3611 -3.23102 36.3611 -1.97102 16.4411 9.47898C -3.47895 20.929 -5.55895 38.309 11.6311 48.239L 77.981 86.649L 77.981 130.519L 83.2511 133.519L 83.2511 89.679L 155.191 48.149L 83.5711 6.69898Z"/>
<path id="path34_fill" d="M 81.0571 87.7197L 11.5971 48.2398C -5.6029 38.3098 -3.40289 20.9598 16.4171 9.48977C 36.2871 -1.98024 66.3371 -3.23023 83.5471 6.70977L 152.997 46.2098L 81.0571 87.7197Z"/>
<path id="path35_fill" d="M 17.68 61.24C 27.4444 61.24 35.36 47.531 35.36 30.62C 35.36 13.709 27.4444 0 17.68 0C 7.91558 0 -1.95312e-05 13.709 -1.95312e-05 30.62C -1.95312e-05 47.531 7.91558 61.24 17.68 61.24Z"/>
<path id="path36_fill" d="M 12.03 41.68C 18.674 41.68 24.06 32.3496 24.06 20.84C 24.06 9.33038 18.674 0 12.03 0C 5.38599 0 4.88281e-06 9.33038 4.88281e-06 20.84C 4.88281e-06 32.3496 5.38599 41.68 12.03 41.68Z"/>
<path id="path37_fill" d="M 0.0899707 42.93L 0.0899707 105.76L 71.95 64.23L 71.95 2.44141e-06L 4.88281e-06 41.54L 0.0899707 42.93Z"/>
</defs>
</svg>
