<svg width="28" height="28" viewBox="0 0 28 28" version="1.1" xmlns="http://www.w3.org/2000/svg" xmlns:xlink="http://www.w3.org/1999/xlink">
<title>Vector</title>
<desc>Created using Figma</desc>
<g id="Canvas" transform="translate(-4347 540)">
<g id="Vector">
<use xlink:href="#path0_fill" transform="translate(4347 -540)" fill="#3193F5"/>
</g>
</g>
<defs>
<path id="path0_fill" d="M 14 6.96588C 14.6983 6.96588 15.3728 7.0676 16.0095 7.25708C 18.1148 6.04156 19.5317 3.76675 19.5317 1.16098C 19.5317 1.1524 19.5317 1.14386 19.5317 1.13528C 17.8348 0.404694 15.9647 0 14 0C 6.26801 0 0 6.26801 0 14C 0 21.732 6.26801 28 14 28C 21.732 28 28 21.732 28 14C 28 9.11853 25.5017 4.82059 21.7139 2.31503C 21.716 2.38538 21.7171 2.45599 21.7171 2.52686C 21.7171 5.05054 20.388 7.26379 18.3917 8.50494C 20.0025 9.79398 21.0341 11.7765 21.0341 14C 21.0341 17.8849 17.8848 21.0341 14 21.0341C 10.1151 21.0341 6.96585 17.8849 6.96585 14C 6.96585 10.1152 10.1151 6.96588 14 6.96588Z"/>
</defs>
</svg>
